<mxfile host="Electron" modified="2023-07-01T18:05:30.023Z" agent="Mozilla/5.0 (Windows NT 10.0; Win64; x64) AppleWebKit/537.36 (KHTML, like Gecko) draw.io/21.5.1 Chrome/112.0.5615.204 Electron/24.6.0 Safari/537.36" etag="U37XUtXMsb1_0UIMghk7" version="21.5.1" type="device" pages="14">
  <diagram id="6r_7wrbWC-jpxYJkSop5" name="construction">
    <mxGraphModel dx="1036" dy="614" grid="1" gridSize="10" guides="1" tooltips="1" connect="1" arrows="1" fold="1" page="1" pageScale="1" pageWidth="827" pageHeight="1169" math="0" shadow="0">
      <root>
        <mxCell id="0" />
        <mxCell id="1" parent="0" />
        <mxCell id="biTr3cH4Q774U8oR9gXu-2" value="" style="ellipse;whiteSpace=wrap;html=1;aspect=fixed;fillColor=none;sketch=0;rotation=0;" parent="1" vertex="1">
          <mxGeometry x="315" y="115" width="90" height="90" as="geometry" />
        </mxCell>
        <mxCell id="biTr3cH4Q774U8oR9gXu-3" value="" style="ellipse;whiteSpace=wrap;html=1;aspect=fixed;fillColor=none;" parent="1" vertex="1">
          <mxGeometry x="120" y="340" width="10" height="10" as="geometry" />
        </mxCell>
        <mxCell id="biTr3cH4Q774U8oR9gXu-4" value="" style="ellipse;whiteSpace=wrap;html=1;aspect=fixed;fillColor=none;" parent="1" vertex="1">
          <mxGeometry x="124" y="289" width="30" height="30" as="geometry" />
        </mxCell>
        <mxCell id="biTr3cH4Q774U8oR9gXu-5" value="" style="ellipse;whiteSpace=wrap;html=1;aspect=fixed;fillColor=none;" parent="1" vertex="1">
          <mxGeometry x="150" y="220" width="50" height="50" as="geometry" />
        </mxCell>
        <mxCell id="biTr3cH4Q774U8oR9gXu-6" value="" style="ellipse;whiteSpace=wrap;html=1;aspect=fixed;fillColor=none;" parent="1" vertex="1">
          <mxGeometry x="210" y="153" width="70" height="70" as="geometry" />
        </mxCell>
        <mxCell id="biTr3cH4Q774U8oR9gXu-64" value="" style="group;rotation=0;movable=1;resizable=1;rotatable=1;deletable=1;editable=1;connectable=1;flipH=1;" parent="1" vertex="1" connectable="0">
          <mxGeometry x="315" y="115" width="285" height="235" as="geometry" />
        </mxCell>
        <mxCell id="biTr3cH4Q774U8oR9gXu-60" value="" style="ellipse;whiteSpace=wrap;html=1;aspect=fixed;fillColor=none;movable=1;resizable=1;rotatable=1;deletable=1;editable=1;connectable=1;rotation=0;" parent="biTr3cH4Q774U8oR9gXu-64" vertex="1">
          <mxGeometry x="275" y="225" width="10" height="10" as="geometry" />
        </mxCell>
        <mxCell id="biTr3cH4Q774U8oR9gXu-61" value="" style="ellipse;whiteSpace=wrap;html=1;aspect=fixed;fillColor=none;movable=1;resizable=1;rotatable=1;deletable=1;editable=1;connectable=1;rotation=0;" parent="biTr3cH4Q774U8oR9gXu-64" vertex="1">
          <mxGeometry x="251" y="174" width="30" height="30" as="geometry" />
        </mxCell>
        <mxCell id="biTr3cH4Q774U8oR9gXu-62" value="" style="ellipse;whiteSpace=wrap;html=1;aspect=fixed;fillColor=none;movable=1;resizable=1;rotatable=1;deletable=1;editable=1;connectable=1;rotation=0;" parent="biTr3cH4Q774U8oR9gXu-64" vertex="1">
          <mxGeometry x="205" y="105" width="50" height="50" as="geometry" />
        </mxCell>
        <mxCell id="biTr3cH4Q774U8oR9gXu-63" value="" style="ellipse;whiteSpace=wrap;html=1;aspect=fixed;fillColor=none;movable=1;resizable=1;rotatable=1;deletable=1;editable=1;connectable=1;rotation=0;" parent="biTr3cH4Q774U8oR9gXu-64" vertex="1">
          <mxGeometry x="125" y="38" width="70" height="70" as="geometry" />
        </mxCell>
        <mxCell id="biTr3cH4Q774U8oR9gXu-87" value="" style="group" parent="1" vertex="1" connectable="0">
          <mxGeometry x="80" y="480" width="480" height="235" as="geometry" />
        </mxCell>
        <mxCell id="biTr3cH4Q774U8oR9gXu-77" value="" style="ellipse;whiteSpace=wrap;html=1;aspect=fixed;fillColor=none;sketch=0;rotation=0;" parent="biTr3cH4Q774U8oR9gXu-87" vertex="1">
          <mxGeometry x="195" width="90" height="90" as="geometry" />
        </mxCell>
        <mxCell id="biTr3cH4Q774U8oR9gXu-78" value="" style="ellipse;whiteSpace=wrap;html=1;aspect=fixed;fillColor=none;" parent="biTr3cH4Q774U8oR9gXu-87" vertex="1">
          <mxGeometry y="225" width="10" height="10" as="geometry" />
        </mxCell>
        <mxCell id="biTr3cH4Q774U8oR9gXu-79" value="" style="ellipse;whiteSpace=wrap;html=1;aspect=fixed;fillColor=none;" parent="biTr3cH4Q774U8oR9gXu-87" vertex="1">
          <mxGeometry x="4" y="174" width="30" height="30" as="geometry" />
        </mxCell>
        <mxCell id="biTr3cH4Q774U8oR9gXu-80" value="" style="ellipse;whiteSpace=wrap;html=1;aspect=fixed;fillColor=none;" parent="biTr3cH4Q774U8oR9gXu-87" vertex="1">
          <mxGeometry x="30" y="105" width="50" height="50" as="geometry" />
        </mxCell>
        <mxCell id="biTr3cH4Q774U8oR9gXu-81" value="" style="ellipse;whiteSpace=wrap;html=1;aspect=fixed;fillColor=none;" parent="biTr3cH4Q774U8oR9gXu-87" vertex="1">
          <mxGeometry x="90" y="38" width="70" height="70" as="geometry" />
        </mxCell>
        <mxCell id="biTr3cH4Q774U8oR9gXu-82" value="" style="group;rotation=0;movable=1;resizable=1;rotatable=1;deletable=1;editable=1;connectable=1;flipH=1;" parent="biTr3cH4Q774U8oR9gXu-87" vertex="1" connectable="0">
          <mxGeometry x="195" width="285" height="235" as="geometry" />
        </mxCell>
        <mxCell id="biTr3cH4Q774U8oR9gXu-83" value="" style="ellipse;whiteSpace=wrap;html=1;aspect=fixed;fillColor=none;movable=1;resizable=1;rotatable=1;deletable=1;editable=1;connectable=1;rotation=0;" parent="biTr3cH4Q774U8oR9gXu-82" vertex="1">
          <mxGeometry x="275" y="225" width="10" height="10" as="geometry" />
        </mxCell>
        <mxCell id="biTr3cH4Q774U8oR9gXu-84" value="" style="ellipse;whiteSpace=wrap;html=1;aspect=fixed;fillColor=none;movable=1;resizable=1;rotatable=1;deletable=1;editable=1;connectable=1;rotation=0;" parent="biTr3cH4Q774U8oR9gXu-82" vertex="1">
          <mxGeometry x="251" y="174" width="30" height="30" as="geometry" />
        </mxCell>
        <mxCell id="biTr3cH4Q774U8oR9gXu-85" value="" style="ellipse;whiteSpace=wrap;html=1;aspect=fixed;fillColor=none;movable=1;resizable=1;rotatable=1;deletable=1;editable=1;connectable=1;rotation=0;" parent="biTr3cH4Q774U8oR9gXu-82" vertex="1">
          <mxGeometry x="205" y="105" width="50" height="50" as="geometry" />
        </mxCell>
        <mxCell id="biTr3cH4Q774U8oR9gXu-86" value="" style="ellipse;whiteSpace=wrap;html=1;aspect=fixed;fillColor=none;movable=1;resizable=1;rotatable=1;deletable=1;editable=1;connectable=1;rotation=0;" parent="biTr3cH4Q774U8oR9gXu-82" vertex="1">
          <mxGeometry x="125" y="38" width="70" height="70" as="geometry" />
        </mxCell>
        <mxCell id="biTr3cH4Q774U8oR9gXu-98" value="" style="group;rotation=90;" parent="1" vertex="1" connectable="0">
          <mxGeometry x="313" y="602" width="480" height="235" as="geometry" />
        </mxCell>
        <mxCell id="biTr3cH4Q774U8oR9gXu-99" value="" style="ellipse;whiteSpace=wrap;html=1;aspect=fixed;fillColor=none;sketch=0;rotation=90;" parent="biTr3cH4Q774U8oR9gXu-98" vertex="1">
          <mxGeometry x="268" y="73" width="90" height="90" as="geometry" />
        </mxCell>
        <mxCell id="biTr3cH4Q774U8oR9gXu-100" value="" style="ellipse;whiteSpace=wrap;html=1;aspect=fixed;fillColor=none;rotation=90;" parent="biTr3cH4Q774U8oR9gXu-98" vertex="1">
          <mxGeometry x="122" y="-122" width="10" height="10" as="geometry" />
        </mxCell>
        <mxCell id="biTr3cH4Q774U8oR9gXu-101" value="" style="ellipse;whiteSpace=wrap;html=1;aspect=fixed;fillColor=none;rotation=90;" parent="biTr3cH4Q774U8oR9gXu-98" vertex="1">
          <mxGeometry x="154" y="-118" width="30" height="30" as="geometry" />
        </mxCell>
        <mxCell id="biTr3cH4Q774U8oR9gXu-102" value="" style="ellipse;whiteSpace=wrap;html=1;aspect=fixed;fillColor=none;rotation=90;" parent="biTr3cH4Q774U8oR9gXu-98" vertex="1">
          <mxGeometry x="203" y="-92" width="50" height="50" as="geometry" />
        </mxCell>
        <mxCell id="biTr3cH4Q774U8oR9gXu-103" value="" style="ellipse;whiteSpace=wrap;html=1;aspect=fixed;fillColor=none;rotation=90;" parent="biTr3cH4Q774U8oR9gXu-98" vertex="1">
          <mxGeometry x="250" y="-32" width="70" height="70" as="geometry" />
        </mxCell>
        <mxCell id="biTr3cH4Q774U8oR9gXu-104" value="" style="group;rotation=90;movable=1;resizable=1;rotatable=1;deletable=1;editable=1;connectable=1;flipH=1;" parent="biTr3cH4Q774U8oR9gXu-98" vertex="1" connectable="0">
          <mxGeometry x="98" y="98" width="285" height="235" as="geometry" />
        </mxCell>
        <mxCell id="biTr3cH4Q774U8oR9gXu-105" value="" style="ellipse;whiteSpace=wrap;html=1;aspect=fixed;fillColor=none;movable=1;resizable=1;rotatable=1;deletable=1;editable=1;connectable=1;rotation=90;" parent="biTr3cH4Q774U8oR9gXu-104" vertex="1">
          <mxGeometry x="25" y="250" width="10" height="10" as="geometry" />
        </mxCell>
        <mxCell id="biTr3cH4Q774U8oR9gXu-106" value="" style="ellipse;whiteSpace=wrap;html=1;aspect=fixed;fillColor=none;movable=1;resizable=1;rotatable=1;deletable=1;editable=1;connectable=1;rotation=90;" parent="biTr3cH4Q774U8oR9gXu-104" vertex="1">
          <mxGeometry x="56" y="226" width="30" height="30" as="geometry" />
        </mxCell>
        <mxCell id="biTr3cH4Q774U8oR9gXu-107" value="" style="ellipse;whiteSpace=wrap;html=1;aspect=fixed;fillColor=none;movable=1;resizable=1;rotatable=1;deletable=1;editable=1;connectable=1;rotation=90;" parent="biTr3cH4Q774U8oR9gXu-104" vertex="1">
          <mxGeometry x="105" y="180" width="50" height="50" as="geometry" />
        </mxCell>
        <mxCell id="biTr3cH4Q774U8oR9gXu-108" value="" style="ellipse;whiteSpace=wrap;html=1;aspect=fixed;fillColor=none;movable=1;resizable=1;rotatable=1;deletable=1;editable=1;connectable=1;rotation=90;" parent="biTr3cH4Q774U8oR9gXu-104" vertex="1">
          <mxGeometry x="152" y="100" width="70" height="70" as="geometry" />
        </mxCell>
        <mxCell id="biTr3cH4Q774U8oR9gXu-109" value="" style="group;rotation=-180;" parent="1" vertex="1" connectable="0">
          <mxGeometry x="190" y="835" width="480" height="235" as="geometry" />
        </mxCell>
        <mxCell id="biTr3cH4Q774U8oR9gXu-110" value="" style="ellipse;whiteSpace=wrap;html=1;aspect=fixed;fillColor=none;sketch=0;rotation=-180;" parent="biTr3cH4Q774U8oR9gXu-109" vertex="1">
          <mxGeometry x="195" y="145" width="90" height="90" as="geometry" />
        </mxCell>
        <mxCell id="biTr3cH4Q774U8oR9gXu-111" value="" style="ellipse;whiteSpace=wrap;html=1;aspect=fixed;fillColor=none;rotation=-180;" parent="biTr3cH4Q774U8oR9gXu-109" vertex="1">
          <mxGeometry x="470" width="10" height="10" as="geometry" />
        </mxCell>
        <mxCell id="biTr3cH4Q774U8oR9gXu-112" value="" style="ellipse;whiteSpace=wrap;html=1;aspect=fixed;fillColor=none;rotation=-180;" parent="biTr3cH4Q774U8oR9gXu-109" vertex="1">
          <mxGeometry x="446" y="31" width="30" height="30" as="geometry" />
        </mxCell>
        <mxCell id="biTr3cH4Q774U8oR9gXu-113" value="" style="ellipse;whiteSpace=wrap;html=1;aspect=fixed;fillColor=none;rotation=-180;" parent="biTr3cH4Q774U8oR9gXu-109" vertex="1">
          <mxGeometry x="400" y="80" width="50" height="50" as="geometry" />
        </mxCell>
        <mxCell id="biTr3cH4Q774U8oR9gXu-114" value="" style="ellipse;whiteSpace=wrap;html=1;aspect=fixed;fillColor=none;rotation=-180;" parent="biTr3cH4Q774U8oR9gXu-109" vertex="1">
          <mxGeometry x="320" y="127" width="70" height="70" as="geometry" />
        </mxCell>
        <mxCell id="biTr3cH4Q774U8oR9gXu-115" value="" style="group;rotation=-180;movable=1;resizable=1;rotatable=1;deletable=1;editable=1;connectable=1;flipH=1;" parent="biTr3cH4Q774U8oR9gXu-109" vertex="1" connectable="0">
          <mxGeometry width="285" height="235" as="geometry" />
        </mxCell>
        <mxCell id="biTr3cH4Q774U8oR9gXu-116" value="" style="ellipse;whiteSpace=wrap;html=1;aspect=fixed;fillColor=none;movable=1;resizable=1;rotatable=1;deletable=1;editable=1;connectable=1;rotation=-180;" parent="biTr3cH4Q774U8oR9gXu-115" vertex="1">
          <mxGeometry width="10" height="10" as="geometry" />
        </mxCell>
        <mxCell id="biTr3cH4Q774U8oR9gXu-117" value="" style="ellipse;whiteSpace=wrap;html=1;aspect=fixed;fillColor=none;movable=1;resizable=1;rotatable=1;deletable=1;editable=1;connectable=1;rotation=-180;" parent="biTr3cH4Q774U8oR9gXu-115" vertex="1">
          <mxGeometry x="4" y="31" width="30" height="30" as="geometry" />
        </mxCell>
        <mxCell id="biTr3cH4Q774U8oR9gXu-118" value="" style="ellipse;whiteSpace=wrap;html=1;aspect=fixed;fillColor=none;movable=1;resizable=1;rotatable=1;deletable=1;editable=1;connectable=1;rotation=-180;" parent="biTr3cH4Q774U8oR9gXu-115" vertex="1">
          <mxGeometry x="30" y="80" width="50" height="50" as="geometry" />
        </mxCell>
        <mxCell id="biTr3cH4Q774U8oR9gXu-119" value="" style="ellipse;whiteSpace=wrap;html=1;aspect=fixed;fillColor=none;movable=1;resizable=1;rotatable=1;deletable=1;editable=1;connectable=1;rotation=-180;" parent="biTr3cH4Q774U8oR9gXu-115" vertex="1">
          <mxGeometry x="90" y="127" width="70" height="70" as="geometry" />
        </mxCell>
        <mxCell id="biTr3cH4Q774U8oR9gXu-120" value="" style="group;rotation=-90;" parent="1" vertex="1" connectable="0">
          <mxGeometry x="-43" y="712" width="480" height="235" as="geometry" />
        </mxCell>
        <mxCell id="biTr3cH4Q774U8oR9gXu-121" value="" style="ellipse;whiteSpace=wrap;html=1;aspect=fixed;fillColor=none;sketch=0;rotation=-90;" parent="biTr3cH4Q774U8oR9gXu-120" vertex="1">
          <mxGeometry x="123" y="73" width="90" height="90" as="geometry" />
        </mxCell>
        <mxCell id="biTr3cH4Q774U8oR9gXu-122" value="" style="ellipse;whiteSpace=wrap;html=1;aspect=fixed;fillColor=none;rotation=-90;" parent="biTr3cH4Q774U8oR9gXu-120" vertex="1">
          <mxGeometry x="348" y="348" width="10" height="10" as="geometry" />
        </mxCell>
        <mxCell id="biTr3cH4Q774U8oR9gXu-123" value="" style="ellipse;whiteSpace=wrap;html=1;aspect=fixed;fillColor=none;rotation=-90;" parent="biTr3cH4Q774U8oR9gXu-120" vertex="1">
          <mxGeometry x="297" y="324" width="30" height="30" as="geometry" />
        </mxCell>
        <mxCell id="biTr3cH4Q774U8oR9gXu-124" value="" style="ellipse;whiteSpace=wrap;html=1;aspect=fixed;fillColor=none;rotation=-90;" parent="biTr3cH4Q774U8oR9gXu-120" vertex="1">
          <mxGeometry x="228" y="278" width="50" height="50" as="geometry" />
        </mxCell>
        <mxCell id="biTr3cH4Q774U8oR9gXu-125" value="" style="ellipse;whiteSpace=wrap;html=1;aspect=fixed;fillColor=none;rotation=-90;" parent="biTr3cH4Q774U8oR9gXu-120" vertex="1">
          <mxGeometry x="161" y="198" width="70" height="70" as="geometry" />
        </mxCell>
        <mxCell id="biTr3cH4Q774U8oR9gXu-126" value="" style="group;rotation=-90;movable=1;resizable=1;rotatable=1;deletable=1;editable=1;connectable=1;flipH=1;" parent="biTr3cH4Q774U8oR9gXu-120" vertex="1" connectable="0">
          <mxGeometry x="98" y="-97" width="285" height="235" as="geometry" />
        </mxCell>
        <mxCell id="biTr3cH4Q774U8oR9gXu-127" value="" style="ellipse;whiteSpace=wrap;html=1;aspect=fixed;fillColor=none;movable=1;resizable=1;rotatable=1;deletable=1;editable=1;connectable=1;rotation=-90;" parent="biTr3cH4Q774U8oR9gXu-126" vertex="1">
          <mxGeometry x="250" y="-25" width="10" height="10" as="geometry" />
        </mxCell>
        <mxCell id="biTr3cH4Q774U8oR9gXu-128" value="" style="ellipse;whiteSpace=wrap;html=1;aspect=fixed;fillColor=none;movable=1;resizable=1;rotatable=1;deletable=1;editable=1;connectable=1;rotation=-90;" parent="biTr3cH4Q774U8oR9gXu-126" vertex="1">
          <mxGeometry x="199" y="-21" width="30" height="30" as="geometry" />
        </mxCell>
        <mxCell id="biTr3cH4Q774U8oR9gXu-129" value="" style="ellipse;whiteSpace=wrap;html=1;aspect=fixed;fillColor=none;movable=1;resizable=1;rotatable=1;deletable=1;editable=1;connectable=1;rotation=-90;" parent="biTr3cH4Q774U8oR9gXu-126" vertex="1">
          <mxGeometry x="130" y="5" width="50" height="50" as="geometry" />
        </mxCell>
        <mxCell id="biTr3cH4Q774U8oR9gXu-130" value="" style="ellipse;whiteSpace=wrap;html=1;aspect=fixed;fillColor=none;movable=1;resizable=1;rotatable=1;deletable=1;editable=1;connectable=1;rotation=-90;" parent="biTr3cH4Q774U8oR9gXu-126" vertex="1">
          <mxGeometry x="63" y="65" width="70" height="70" as="geometry" />
        </mxCell>
        <mxCell id="biTr3cH4Q774U8oR9gXu-17" value="Hilfslinien" parent="0" visible="0" />
        <mxCell id="biTr3cH4Q774U8oR9gXu-18" value="" style="endArrow=none;html=1;rounded=0;entryX=0.5;entryY=0;entryDx=0;entryDy=0;exitX=0.5;exitY=1;exitDx=0;exitDy=0;" parent="biTr3cH4Q774U8oR9gXu-17" edge="1">
          <mxGeometry width="50" height="50" relative="1" as="geometry">
            <mxPoint x="360" y="640.0000000000001" as="sourcePoint" />
            <mxPoint x="360" y="160.0000000000001" as="targetPoint" />
          </mxGeometry>
        </mxCell>
        <mxCell id="biTr3cH4Q774U8oR9gXu-19" value="" style="endArrow=none;html=1;rounded=0;exitX=0;exitY=0.5;exitDx=0;exitDy=0;entryX=1;entryY=0.5;entryDx=0;entryDy=0;" parent="biTr3cH4Q774U8oR9gXu-17" edge="1">
          <mxGeometry width="50" height="50" relative="1" as="geometry">
            <mxPoint x="120.00000000000011" y="400.0000000000001" as="sourcePoint" />
            <mxPoint x="600" y="400.0000000000001" as="targetPoint" />
          </mxGeometry>
        </mxCell>
        <mxCell id="biTr3cH4Q774U8oR9gXu-20" value="" style="endArrow=none;html=1;rounded=0;exitX=0;exitY=0;exitDx=0;exitDy=0;entryX=1;entryY=1;entryDx=0;entryDy=0;" parent="biTr3cH4Q774U8oR9gXu-17" edge="1">
          <mxGeometry width="50" height="50" relative="1" as="geometry">
            <mxPoint x="190.2943725152287" y="230.2943725152287" as="sourcePoint" />
            <mxPoint x="529.7056274847714" y="569.7056274847714" as="targetPoint" />
          </mxGeometry>
        </mxCell>
        <mxCell id="biTr3cH4Q774U8oR9gXu-21" value="" style="endArrow=none;html=1;rounded=0;" parent="biTr3cH4Q774U8oR9gXu-17" edge="1">
          <mxGeometry width="50" height="50" relative="1" as="geometry">
            <mxPoint x="359.9999999999998" y="400" as="sourcePoint" />
            <mxPoint x="79.99999999999977" y="280" as="targetPoint" />
          </mxGeometry>
        </mxCell>
        <mxCell id="biTr3cH4Q774U8oR9gXu-22" value="" style="endArrow=none;html=1;rounded=0;" parent="biTr3cH4Q774U8oR9gXu-17" edge="1">
          <mxGeometry width="50" height="50" relative="1" as="geometry">
            <mxPoint x="239.99999999999977" y="120.00000000000011" as="sourcePoint" />
            <mxPoint x="359.9999999999998" y="400" as="targetPoint" />
          </mxGeometry>
        </mxCell>
        <mxCell id="biTr3cH4Q774U8oR9gXu-23" value="" style="endArrow=none;html=1;rounded=0;entryX=0.5;entryY=0;entryDx=0;entryDy=0;exitX=0.5;exitY=1;exitDx=0;exitDy=0;" parent="biTr3cH4Q774U8oR9gXu-17" source="biTr3cH4Q774U8oR9gXu-2" target="biTr3cH4Q774U8oR9gXu-2" edge="1">
          <mxGeometry width="50" height="50" relative="1" as="geometry">
            <mxPoint x="344.9999999999998" y="110.00000000000011" as="sourcePoint" />
            <mxPoint x="344.9999999999998" y="20.000000000000114" as="targetPoint" />
          </mxGeometry>
        </mxCell>
        <mxCell id="biTr3cH4Q774U8oR9gXu-24" value="" style="endArrow=none;html=1;rounded=0;entryX=1;entryY=0.5;entryDx=0;entryDy=0;exitX=0;exitY=0.5;exitDx=0;exitDy=0;" parent="biTr3cH4Q774U8oR9gXu-17" source="biTr3cH4Q774U8oR9gXu-2" target="biTr3cH4Q774U8oR9gXu-2" edge="1">
          <mxGeometry width="50" height="50" relative="1" as="geometry">
            <mxPoint x="299.9999999999998" y="65.00000000000011" as="sourcePoint" />
            <mxPoint x="389.9999999999998" y="65.00000000000011" as="targetPoint" />
          </mxGeometry>
        </mxCell>
        <mxCell id="biTr3cH4Q774U8oR9gXu-29" value="" style="endArrow=none;html=1;rounded=0;entryX=0.5;entryY=0;entryDx=0;entryDy=0;exitX=0.5;exitY=1;exitDx=0;exitDy=0;" parent="biTr3cH4Q774U8oR9gXu-17" source="biTr3cH4Q774U8oR9gXu-6" target="biTr3cH4Q774U8oR9gXu-6" edge="1">
          <mxGeometry width="50" height="50" relative="1" as="geometry">
            <mxPoint x="350" y="150" as="sourcePoint" />
            <mxPoint x="400" y="100" as="targetPoint" />
          </mxGeometry>
        </mxCell>
        <mxCell id="biTr3cH4Q774U8oR9gXu-30" value="" style="endArrow=none;html=1;rounded=0;entryX=1;entryY=0.5;entryDx=0;entryDy=0;exitX=0;exitY=0.5;exitDx=0;exitDy=0;" parent="biTr3cH4Q774U8oR9gXu-17" source="biTr3cH4Q774U8oR9gXu-6" target="biTr3cH4Q774U8oR9gXu-6" edge="1">
          <mxGeometry width="50" height="50" relative="1" as="geometry">
            <mxPoint x="350" y="150" as="sourcePoint" />
            <mxPoint x="400" y="100" as="targetPoint" />
          </mxGeometry>
        </mxCell>
        <mxCell id="biTr3cH4Q774U8oR9gXu-32" value="" style="endArrow=none;html=1;rounded=0;entryX=1;entryY=0.5;entryDx=0;entryDy=0;exitX=0;exitY=0.5;exitDx=0;exitDy=0;" parent="biTr3cH4Q774U8oR9gXu-17" source="biTr3cH4Q774U8oR9gXu-5" target="biTr3cH4Q774U8oR9gXu-5" edge="1">
          <mxGeometry width="50" height="50" relative="1" as="geometry">
            <mxPoint x="380" y="150" as="sourcePoint" />
            <mxPoint x="430" y="100" as="targetPoint" />
          </mxGeometry>
        </mxCell>
        <mxCell id="biTr3cH4Q774U8oR9gXu-33" value="" style="endArrow=none;html=1;rounded=0;entryX=0.5;entryY=0;entryDx=0;entryDy=0;exitX=0.5;exitY=1;exitDx=0;exitDy=0;" parent="biTr3cH4Q774U8oR9gXu-17" source="biTr3cH4Q774U8oR9gXu-5" target="biTr3cH4Q774U8oR9gXu-5" edge="1">
          <mxGeometry width="50" height="50" relative="1" as="geometry">
            <mxPoint x="380" y="150" as="sourcePoint" />
            <mxPoint x="430" y="100" as="targetPoint" />
          </mxGeometry>
        </mxCell>
        <mxCell id="biTr3cH4Q774U8oR9gXu-34" value="" style="endArrow=none;html=1;rounded=0;entryX=0.5;entryY=0;entryDx=0;entryDy=0;exitX=0.5;exitY=1;exitDx=0;exitDy=0;" parent="biTr3cH4Q774U8oR9gXu-17" source="biTr3cH4Q774U8oR9gXu-4" target="biTr3cH4Q774U8oR9gXu-4" edge="1">
          <mxGeometry width="50" height="50" relative="1" as="geometry">
            <mxPoint x="490" y="120" as="sourcePoint" />
            <mxPoint x="540" y="70" as="targetPoint" />
          </mxGeometry>
        </mxCell>
        <mxCell id="biTr3cH4Q774U8oR9gXu-35" value="" style="endArrow=none;html=1;rounded=0;entryX=1;entryY=0.5;entryDx=0;entryDy=0;exitX=0;exitY=0.5;exitDx=0;exitDy=0;" parent="biTr3cH4Q774U8oR9gXu-17" source="biTr3cH4Q774U8oR9gXu-4" target="biTr3cH4Q774U8oR9gXu-4" edge="1">
          <mxGeometry width="50" height="50" relative="1" as="geometry">
            <mxPoint x="490" y="120" as="sourcePoint" />
            <mxPoint x="540" y="70" as="targetPoint" />
          </mxGeometry>
        </mxCell>
        <mxCell id="biTr3cH4Q774U8oR9gXu-39" value="" style="endArrow=none;html=1;rounded=0;exitX=0.5;exitY=1;exitDx=0;exitDy=0;entryX=0.5;entryY=0;entryDx=0;entryDy=0;" parent="biTr3cH4Q774U8oR9gXu-17" source="biTr3cH4Q774U8oR9gXu-3" target="biTr3cH4Q774U8oR9gXu-3" edge="1">
          <mxGeometry width="50" height="50" relative="1" as="geometry">
            <mxPoint x="80" y="350" as="sourcePoint" />
            <mxPoint x="130" y="300" as="targetPoint" />
          </mxGeometry>
        </mxCell>
        <mxCell id="biTr3cH4Q774U8oR9gXu-40" value="" style="endArrow=none;html=1;rounded=0;exitX=0;exitY=0.5;exitDx=0;exitDy=0;entryX=1;entryY=0.5;entryDx=0;entryDy=0;" parent="biTr3cH4Q774U8oR9gXu-17" source="biTr3cH4Q774U8oR9gXu-3" target="biTr3cH4Q774U8oR9gXu-3" edge="1">
          <mxGeometry width="50" height="50" relative="1" as="geometry">
            <mxPoint x="80" y="350" as="sourcePoint" />
            <mxPoint x="130" y="300" as="targetPoint" />
          </mxGeometry>
        </mxCell>
        <mxCell id="biTr3cH4Q774U8oR9gXu-65" value="" style="ellipse;whiteSpace=wrap;html=1;aspect=fixed;fillColor=none;" parent="biTr3cH4Q774U8oR9gXu-17" vertex="1">
          <mxGeometry x="120" y="160" width="480" height="480" as="geometry" />
        </mxCell>
        <mxCell id="biTr3cH4Q774U8oR9gXu-131" value="Unbenannte Ebene" parent="0" visible="0" />
        <mxCell id="biTr3cH4Q774U8oR9gXu-140" value="" style="endArrow=none;html=1;rounded=0;" parent="biTr3cH4Q774U8oR9gXu-131" edge="1">
          <mxGeometry width="50" height="50" relative="1" as="geometry">
            <mxPoint x="80" y="480" as="sourcePoint" />
            <mxPoint x="670" y="480" as="targetPoint" />
          </mxGeometry>
        </mxCell>
        <mxCell id="biTr3cH4Q774U8oR9gXu-142" value="" style="endArrow=none;html=1;rounded=0;edgeStyle=orthogonalEdgeStyle;" parent="biTr3cH4Q774U8oR9gXu-131" edge="1">
          <mxGeometry width="50" height="50" relative="1" as="geometry">
            <mxPoint x="80" y="1070" as="sourcePoint" />
            <mxPoint x="671" y="480" as="targetPoint" />
          </mxGeometry>
        </mxCell>
      </root>
    </mxGraphModel>
  </diagram>
  <diagram id="whkgaW0Fo3Wy172tx4Dv" name="white on black">
    <mxGraphModel dx="1219" dy="722" grid="1" gridSize="10" guides="1" tooltips="1" connect="1" arrows="1" fold="1" page="1" pageScale="1" pageWidth="827" pageHeight="1169" math="0" shadow="0">
      <root>
        <mxCell id="0" />
        <mxCell id="1" parent="0" />
        <mxCell id="8TMi8AfxDVl9BBn_o_QO-1" value="" style="group;fillColor=#000000;container=0;" parent="1" vertex="1" connectable="0">
          <mxGeometry x="139.5" y="220.5" width="591" height="591" as="geometry" />
        </mxCell>
        <mxCell id="jGljlAqOBn-4L6SyxRuJ-2" value="" style="ellipse;whiteSpace=wrap;html=1;aspect=fixed;fillColor=default;sketch=0;rotation=0;movable=1;resizable=1;rotatable=1;deletable=1;editable=1;locked=0;connectable=1;container=0;strokeColor=none;" parent="1" vertex="1">
          <mxGeometry x="335.5" y="220.5" width="90" height="90" as="geometry" />
        </mxCell>
        <mxCell id="jGljlAqOBn-4L6SyxRuJ-3" value="" style="ellipse;whiteSpace=wrap;html=1;aspect=fixed;fillColor=default;movable=1;resizable=1;rotatable=1;deletable=1;editable=1;locked=0;connectable=1;container=0;strokeColor=none;" parent="1" vertex="1">
          <mxGeometry x="140.5" y="445.5" width="10" height="10" as="geometry" />
        </mxCell>
        <mxCell id="jGljlAqOBn-4L6SyxRuJ-4" value="" style="ellipse;whiteSpace=wrap;html=1;aspect=fixed;fillColor=default;movable=1;resizable=1;rotatable=1;deletable=1;editable=1;locked=0;connectable=1;container=0;strokeColor=none;" parent="1" vertex="1">
          <mxGeometry x="144.5" y="394.5" width="30" height="30" as="geometry" />
        </mxCell>
        <mxCell id="jGljlAqOBn-4L6SyxRuJ-5" value="" style="ellipse;whiteSpace=wrap;html=1;aspect=fixed;fillColor=default;movable=1;resizable=1;rotatable=1;deletable=1;editable=1;locked=0;connectable=1;container=0;strokeColor=none;" parent="1" vertex="1">
          <mxGeometry x="170.5" y="325.5" width="50" height="50" as="geometry" />
        </mxCell>
        <mxCell id="jGljlAqOBn-4L6SyxRuJ-6" value="" style="ellipse;whiteSpace=wrap;html=1;aspect=fixed;fillColor=default;movable=1;resizable=1;rotatable=1;deletable=1;editable=1;locked=0;connectable=1;container=0;strokeColor=none;" parent="1" vertex="1">
          <mxGeometry x="230.5" y="258.5" width="70" height="70" as="geometry" />
        </mxCell>
        <mxCell id="jGljlAqOBn-4L6SyxRuJ-8" value="" style="ellipse;whiteSpace=wrap;html=1;aspect=fixed;fillColor=default;movable=1;resizable=1;rotatable=1;deletable=1;editable=1;connectable=1;rotation=0;locked=0;container=0;strokeColor=none;" parent="1" vertex="1">
          <mxGeometry x="610.5" y="445.5" width="10" height="10" as="geometry" />
        </mxCell>
        <mxCell id="jGljlAqOBn-4L6SyxRuJ-9" value="" style="ellipse;whiteSpace=wrap;html=1;aspect=fixed;fillColor=default;movable=1;resizable=1;rotatable=1;deletable=1;editable=1;connectable=1;rotation=0;locked=0;container=0;strokeColor=none;" parent="1" vertex="1">
          <mxGeometry x="586.5" y="394.5" width="30" height="30" as="geometry" />
        </mxCell>
        <mxCell id="jGljlAqOBn-4L6SyxRuJ-10" value="" style="ellipse;whiteSpace=wrap;html=1;aspect=fixed;fillColor=default;movable=1;resizable=1;rotatable=1;deletable=1;editable=1;connectable=1;rotation=0;locked=0;container=0;strokeColor=none;" parent="1" vertex="1">
          <mxGeometry x="540.5" y="325.5" width="50" height="50" as="geometry" />
        </mxCell>
        <mxCell id="jGljlAqOBn-4L6SyxRuJ-11" value="" style="ellipse;whiteSpace=wrap;html=1;aspect=fixed;fillColor=default;movable=1;resizable=1;rotatable=1;deletable=1;editable=1;connectable=1;rotation=0;locked=0;container=0;strokeColor=none;" parent="1" vertex="1">
          <mxGeometry x="460.5" y="258.5" width="70" height="70" as="geometry" />
        </mxCell>
        <mxCell id="jGljlAqOBn-4L6SyxRuJ-13" value="" style="ellipse;whiteSpace=wrap;html=1;aspect=fixed;fillColor=default;sketch=0;rotation=90;movable=1;resizable=1;rotatable=1;deletable=1;editable=1;locked=0;connectable=1;container=0;strokeColor=none;" parent="1" vertex="1">
          <mxGeometry x="641.5" y="415.5" width="90" height="90" as="geometry" />
        </mxCell>
        <mxCell id="jGljlAqOBn-4L6SyxRuJ-14" value="" style="ellipse;whiteSpace=wrap;html=1;aspect=fixed;fillColor=default;rotation=90;movable=1;resizable=1;rotatable=1;deletable=1;editable=1;locked=0;connectable=1;container=0;strokeColor=none;" parent="1" vertex="1">
          <mxGeometry x="495.5" y="220.5" width="10" height="10" as="geometry" />
        </mxCell>
        <mxCell id="jGljlAqOBn-4L6SyxRuJ-15" value="" style="ellipse;whiteSpace=wrap;html=1;aspect=fixed;fillColor=default;rotation=90;movable=1;resizable=1;rotatable=1;deletable=1;editable=1;locked=0;connectable=1;container=0;strokeColor=none;" parent="1" vertex="1">
          <mxGeometry x="527.5" y="224.5" width="30" height="30" as="geometry" />
        </mxCell>
        <mxCell id="jGljlAqOBn-4L6SyxRuJ-16" value="" style="ellipse;whiteSpace=wrap;html=1;aspect=fixed;fillColor=default;rotation=90;movable=1;resizable=1;rotatable=1;deletable=1;editable=1;locked=0;connectable=1;container=0;strokeColor=none;" parent="1" vertex="1">
          <mxGeometry x="576.5" y="250.5" width="50" height="50" as="geometry" />
        </mxCell>
        <mxCell id="jGljlAqOBn-4L6SyxRuJ-17" value="" style="ellipse;whiteSpace=wrap;html=1;aspect=fixed;fillColor=default;rotation=90;movable=1;resizable=1;rotatable=1;deletable=1;editable=1;locked=0;connectable=1;container=0;strokeColor=none;" parent="1" vertex="1">
          <mxGeometry x="623.5" y="310.5" width="70" height="70" as="geometry" />
        </mxCell>
        <mxCell id="jGljlAqOBn-4L6SyxRuJ-19" value="" style="ellipse;whiteSpace=wrap;html=1;aspect=fixed;fillColor=default;movable=1;resizable=1;rotatable=1;deletable=1;editable=1;connectable=1;rotation=90;locked=0;container=0;strokeColor=none;" parent="1" vertex="1">
          <mxGeometry x="496.5" y="690.5" width="10" height="10" as="geometry" />
        </mxCell>
        <mxCell id="jGljlAqOBn-4L6SyxRuJ-20" value="" style="ellipse;whiteSpace=wrap;html=1;aspect=fixed;fillColor=default;movable=1;resizable=1;rotatable=1;deletable=1;editable=1;connectable=1;rotation=90;locked=0;container=0;strokeColor=none;" parent="1" vertex="1">
          <mxGeometry x="527.5" y="666.5" width="30" height="30" as="geometry" />
        </mxCell>
        <mxCell id="jGljlAqOBn-4L6SyxRuJ-21" value="" style="ellipse;whiteSpace=wrap;html=1;aspect=fixed;fillColor=default;movable=1;resizable=1;rotatable=1;deletable=1;editable=1;connectable=1;rotation=90;locked=0;container=0;strokeColor=none;" parent="1" vertex="1">
          <mxGeometry x="576.5" y="620.5" width="50" height="50" as="geometry" />
        </mxCell>
        <mxCell id="jGljlAqOBn-4L6SyxRuJ-22" value="" style="ellipse;whiteSpace=wrap;html=1;aspect=fixed;fillColor=default;movable=1;resizable=1;rotatable=1;deletable=1;editable=1;connectable=1;rotation=90;locked=0;container=0;strokeColor=none;" parent="1" vertex="1">
          <mxGeometry x="623.5" y="540.5" width="70" height="70" as="geometry" />
        </mxCell>
        <mxCell id="jGljlAqOBn-4L6SyxRuJ-24" value="" style="ellipse;whiteSpace=wrap;html=1;aspect=fixed;fillColor=default;sketch=0;rotation=-180;container=0;strokeColor=none;" parent="1" vertex="1">
          <mxGeometry x="445.5" y="720.5" width="90" height="90" as="geometry" />
        </mxCell>
        <mxCell id="jGljlAqOBn-4L6SyxRuJ-25" value="" style="ellipse;whiteSpace=wrap;html=1;aspect=fixed;fillColor=default;rotation=-180;movable=1;resizable=1;rotatable=1;deletable=1;editable=1;locked=0;connectable=1;container=0;strokeColor=none;" parent="1" vertex="1">
          <mxGeometry x="720.5" y="575.5" width="10" height="10" as="geometry" />
        </mxCell>
        <mxCell id="jGljlAqOBn-4L6SyxRuJ-26" value="" style="ellipse;whiteSpace=wrap;html=1;aspect=fixed;fillColor=default;rotation=-180;movable=1;resizable=1;rotatable=1;deletable=1;editable=1;locked=0;connectable=1;container=0;strokeColor=none;" parent="1" vertex="1">
          <mxGeometry x="696.5" y="606.5" width="30" height="30" as="geometry" />
        </mxCell>
        <mxCell id="jGljlAqOBn-4L6SyxRuJ-27" value="" style="ellipse;whiteSpace=wrap;html=1;aspect=fixed;fillColor=default;rotation=-180;movable=1;resizable=1;rotatable=1;deletable=1;editable=1;locked=0;connectable=1;container=0;strokeColor=none;" parent="1" vertex="1">
          <mxGeometry x="650.5" y="655.5" width="50" height="50" as="geometry" />
        </mxCell>
        <mxCell id="jGljlAqOBn-4L6SyxRuJ-28" value="" style="ellipse;whiteSpace=wrap;html=1;aspect=fixed;fillColor=default;rotation=-180;container=0;strokeColor=none;" parent="1" vertex="1">
          <mxGeometry x="570.5" y="702.5" width="70" height="70" as="geometry" />
        </mxCell>
        <mxCell id="jGljlAqOBn-4L6SyxRuJ-30" value="" style="ellipse;whiteSpace=wrap;html=1;aspect=fixed;fillColor=default;movable=1;resizable=1;rotatable=1;deletable=1;editable=1;connectable=1;rotation=-180;locked=0;container=0;strokeColor=none;" parent="1" vertex="1">
          <mxGeometry x="250.5" y="575.5" width="10" height="10" as="geometry" />
        </mxCell>
        <mxCell id="jGljlAqOBn-4L6SyxRuJ-31" value="" style="ellipse;whiteSpace=wrap;html=1;aspect=fixed;fillColor=default;movable=1;resizable=1;rotatable=1;deletable=1;editable=1;connectable=1;rotation=-180;locked=0;container=0;strokeColor=none;" parent="1" vertex="1">
          <mxGeometry x="254.5" y="606.5" width="30" height="30" as="geometry" />
        </mxCell>
        <mxCell id="jGljlAqOBn-4L6SyxRuJ-32" value="" style="ellipse;whiteSpace=wrap;html=1;aspect=fixed;fillColor=default;movable=1;resizable=1;rotatable=1;deletable=1;editable=1;connectable=1;rotation=-180;locked=0;container=0;strokeColor=none;" parent="1" vertex="1">
          <mxGeometry x="280.5" y="655.5" width="50" height="50" as="geometry" />
        </mxCell>
        <mxCell id="jGljlAqOBn-4L6SyxRuJ-33" value="" style="ellipse;whiteSpace=wrap;html=1;aspect=fixed;fillColor=default;movable=1;resizable=1;rotatable=1;deletable=1;editable=1;connectable=1;rotation=-180;container=0;strokeColor=none;" parent="1" vertex="1">
          <mxGeometry x="340.5" y="702.5" width="70" height="70" as="geometry" />
        </mxCell>
        <mxCell id="jGljlAqOBn-4L6SyxRuJ-35" value="" style="ellipse;whiteSpace=wrap;html=1;aspect=fixed;fillColor=default;sketch=0;rotation=-90;movable=1;resizable=1;rotatable=1;deletable=1;editable=1;locked=0;connectable=1;container=0;strokeColor=none;" parent="1" vertex="1">
          <mxGeometry x="140.5" y="525.5" width="90" height="90" as="geometry" />
        </mxCell>
        <mxCell id="jGljlAqOBn-4L6SyxRuJ-36" value="" style="ellipse;whiteSpace=wrap;html=1;aspect=fixed;fillColor=default;rotation=-90;container=0;strokeColor=none;" parent="1" vertex="1">
          <mxGeometry x="365.5" y="800.5" width="10" height="10" as="geometry" />
        </mxCell>
        <mxCell id="jGljlAqOBn-4L6SyxRuJ-37" value="" style="ellipse;whiteSpace=wrap;html=1;aspect=fixed;fillColor=default;rotation=-90;container=0;strokeColor=none;" parent="1" vertex="1">
          <mxGeometry x="314.5" y="776.5" width="30" height="30" as="geometry" />
        </mxCell>
        <mxCell id="jGljlAqOBn-4L6SyxRuJ-38" value="" style="ellipse;whiteSpace=wrap;html=1;aspect=fixed;fillColor=default;rotation=-90;container=0;strokeColor=none;" parent="1" vertex="1">
          <mxGeometry x="245.5" y="730.5" width="50" height="50" as="geometry" />
        </mxCell>
        <mxCell id="jGljlAqOBn-4L6SyxRuJ-39" value="" style="ellipse;whiteSpace=wrap;html=1;aspect=fixed;fillColor=default;rotation=-90;movable=1;resizable=1;rotatable=1;deletable=1;editable=1;locked=0;connectable=1;container=0;strokeColor=none;" parent="1" vertex="1">
          <mxGeometry x="178.5" y="650.5" width="70" height="70" as="geometry" />
        </mxCell>
        <mxCell id="jGljlAqOBn-4L6SyxRuJ-41" value="" style="ellipse;whiteSpace=wrap;html=1;aspect=fixed;fillColor=default;movable=1;resizable=1;rotatable=1;deletable=1;editable=1;connectable=1;rotation=-90;locked=0;container=0;strokeColor=none;" parent="1" vertex="1">
          <mxGeometry x="365.5" y="330.5" width="10" height="10" as="geometry" />
        </mxCell>
        <mxCell id="jGljlAqOBn-4L6SyxRuJ-42" value="" style="ellipse;whiteSpace=wrap;html=1;aspect=fixed;fillColor=default;movable=1;resizable=1;rotatable=1;deletable=1;editable=1;connectable=1;rotation=-90;locked=0;container=0;strokeColor=none;" parent="1" vertex="1">
          <mxGeometry x="314.5" y="334.5" width="30" height="30" as="geometry" />
        </mxCell>
        <mxCell id="jGljlAqOBn-4L6SyxRuJ-43" value="" style="ellipse;whiteSpace=wrap;html=1;aspect=fixed;fillColor=default;movable=1;resizable=1;rotatable=1;deletable=1;editable=1;connectable=1;rotation=-90;locked=0;container=0;strokeColor=none;" parent="1" vertex="1">
          <mxGeometry x="245.5" y="360.5" width="50" height="50" as="geometry" />
        </mxCell>
        <mxCell id="jGljlAqOBn-4L6SyxRuJ-44" value="" style="ellipse;whiteSpace=wrap;html=1;aspect=fixed;fillColor=default;movable=1;resizable=1;rotatable=1;deletable=1;editable=1;connectable=1;rotation=-90;locked=0;container=0;strokeColor=none;" parent="1" vertex="1">
          <mxGeometry x="178.5" y="420.5" width="70" height="70" as="geometry" />
        </mxCell>
      </root>
    </mxGraphModel>
  </diagram>
  <diagram name="white on black text" id="-f9h0kbA2zLIxvs8xTmp">
    <mxGraphModel dx="2899" dy="1228" grid="1" gridSize="10" guides="1" tooltips="1" connect="1" arrows="1" fold="1" page="1" pageScale="1" pageWidth="827" pageHeight="1169" math="0" shadow="0">
      <root>
        <mxCell id="W81d36O1FyqJt7WVWAbd-0" />
        <mxCell id="W81d36O1FyqJt7WVWAbd-1" parent="W81d36O1FyqJt7WVWAbd-0" />
        <mxCell id="Jz77P2ICA5JCDNovnXND-0" value="" style="rounded=1;whiteSpace=wrap;html=1;strokeColor=none;fillColor=#000000;arcSize=9;" vertex="1" parent="W81d36O1FyqJt7WVWAbd-1">
          <mxGeometry x="-258.5" y="170" width="1400" height="920" as="geometry" />
        </mxCell>
        <mxCell id="W81d36O1FyqJt7WVWAbd-3" value="" style="ellipse;whiteSpace=wrap;html=1;aspect=fixed;fillColor=default;sketch=0;rotation=0;movable=1;resizable=1;rotatable=1;deletable=1;editable=1;locked=0;connectable=1;container=0;strokeColor=none;" vertex="1" parent="W81d36O1FyqJt7WVWAbd-1">
          <mxGeometry x="335.5" y="220.5" width="90" height="90" as="geometry" />
        </mxCell>
        <mxCell id="W81d36O1FyqJt7WVWAbd-4" value="" style="ellipse;whiteSpace=wrap;html=1;aspect=fixed;fillColor=default;movable=1;resizable=1;rotatable=1;deletable=1;editable=1;locked=0;connectable=1;container=0;strokeColor=none;" vertex="1" parent="W81d36O1FyqJt7WVWAbd-1">
          <mxGeometry x="140.5" y="445.5" width="10" height="10" as="geometry" />
        </mxCell>
        <mxCell id="W81d36O1FyqJt7WVWAbd-5" value="" style="ellipse;whiteSpace=wrap;html=1;aspect=fixed;fillColor=default;movable=1;resizable=1;rotatable=1;deletable=1;editable=1;locked=0;connectable=1;container=0;strokeColor=none;" vertex="1" parent="W81d36O1FyqJt7WVWAbd-1">
          <mxGeometry x="144.5" y="394.5" width="30" height="30" as="geometry" />
        </mxCell>
        <mxCell id="W81d36O1FyqJt7WVWAbd-6" value="" style="ellipse;whiteSpace=wrap;html=1;aspect=fixed;fillColor=default;movable=1;resizable=1;rotatable=1;deletable=1;editable=1;locked=0;connectable=1;container=0;strokeColor=none;" vertex="1" parent="W81d36O1FyqJt7WVWAbd-1">
          <mxGeometry x="170.5" y="325.5" width="50" height="50" as="geometry" />
        </mxCell>
        <mxCell id="W81d36O1FyqJt7WVWAbd-7" value="" style="ellipse;whiteSpace=wrap;html=1;aspect=fixed;fillColor=default;movable=1;resizable=1;rotatable=1;deletable=1;editable=1;locked=0;connectable=1;container=0;strokeColor=none;" vertex="1" parent="W81d36O1FyqJt7WVWAbd-1">
          <mxGeometry x="230.5" y="258.5" width="70" height="70" as="geometry" />
        </mxCell>
        <mxCell id="W81d36O1FyqJt7WVWAbd-8" value="" style="ellipse;whiteSpace=wrap;html=1;aspect=fixed;fillColor=default;movable=1;resizable=1;rotatable=1;deletable=1;editable=1;connectable=1;rotation=0;locked=0;container=0;strokeColor=none;" vertex="1" parent="W81d36O1FyqJt7WVWAbd-1">
          <mxGeometry x="610.5" y="445.5" width="10" height="10" as="geometry" />
        </mxCell>
        <mxCell id="W81d36O1FyqJt7WVWAbd-9" value="" style="ellipse;whiteSpace=wrap;html=1;aspect=fixed;fillColor=default;movable=1;resizable=1;rotatable=1;deletable=1;editable=1;connectable=1;rotation=0;locked=0;container=0;strokeColor=none;" vertex="1" parent="W81d36O1FyqJt7WVWAbd-1">
          <mxGeometry x="586.5" y="394.5" width="30" height="30" as="geometry" />
        </mxCell>
        <mxCell id="W81d36O1FyqJt7WVWAbd-10" value="" style="ellipse;whiteSpace=wrap;html=1;aspect=fixed;fillColor=default;movable=1;resizable=1;rotatable=1;deletable=1;editable=1;connectable=1;rotation=0;locked=0;container=0;strokeColor=none;" vertex="1" parent="W81d36O1FyqJt7WVWAbd-1">
          <mxGeometry x="540.5" y="325.5" width="50" height="50" as="geometry" />
        </mxCell>
        <mxCell id="W81d36O1FyqJt7WVWAbd-11" value="" style="ellipse;whiteSpace=wrap;html=1;aspect=fixed;fillColor=default;movable=1;resizable=1;rotatable=1;deletable=1;editable=1;connectable=1;rotation=0;locked=0;container=0;strokeColor=none;" vertex="1" parent="W81d36O1FyqJt7WVWAbd-1">
          <mxGeometry x="460.5" y="258.5" width="70" height="70" as="geometry" />
        </mxCell>
        <mxCell id="W81d36O1FyqJt7WVWAbd-12" value="" style="ellipse;whiteSpace=wrap;html=1;aspect=fixed;fillColor=default;sketch=0;rotation=90;movable=1;resizable=1;rotatable=1;deletable=1;editable=1;locked=0;connectable=1;container=0;strokeColor=none;" vertex="1" parent="W81d36O1FyqJt7WVWAbd-1">
          <mxGeometry x="641.5" y="415.5" width="90" height="90" as="geometry" />
        </mxCell>
        <mxCell id="W81d36O1FyqJt7WVWAbd-13" value="" style="ellipse;whiteSpace=wrap;html=1;aspect=fixed;fillColor=default;rotation=90;movable=1;resizable=1;rotatable=1;deletable=1;editable=1;locked=0;connectable=1;container=0;strokeColor=none;" vertex="1" parent="W81d36O1FyqJt7WVWAbd-1">
          <mxGeometry x="495.5" y="220.5" width="10" height="10" as="geometry" />
        </mxCell>
        <mxCell id="W81d36O1FyqJt7WVWAbd-14" value="" style="ellipse;whiteSpace=wrap;html=1;aspect=fixed;fillColor=default;rotation=90;movable=1;resizable=1;rotatable=1;deletable=1;editable=1;locked=0;connectable=1;container=0;strokeColor=none;" vertex="1" parent="W81d36O1FyqJt7WVWAbd-1">
          <mxGeometry x="527.5" y="224.5" width="30" height="30" as="geometry" />
        </mxCell>
        <mxCell id="W81d36O1FyqJt7WVWAbd-15" value="" style="ellipse;whiteSpace=wrap;html=1;aspect=fixed;fillColor=default;rotation=90;movable=1;resizable=1;rotatable=1;deletable=1;editable=1;locked=0;connectable=1;container=0;strokeColor=none;" vertex="1" parent="W81d36O1FyqJt7WVWAbd-1">
          <mxGeometry x="576.5" y="250.5" width="50" height="50" as="geometry" />
        </mxCell>
        <mxCell id="W81d36O1FyqJt7WVWAbd-16" value="" style="ellipse;whiteSpace=wrap;html=1;aspect=fixed;fillColor=default;rotation=90;movable=1;resizable=1;rotatable=1;deletable=1;editable=1;locked=0;connectable=1;container=0;strokeColor=none;" vertex="1" parent="W81d36O1FyqJt7WVWAbd-1">
          <mxGeometry x="623.5" y="310.5" width="70" height="70" as="geometry" />
        </mxCell>
        <mxCell id="W81d36O1FyqJt7WVWAbd-17" value="" style="ellipse;whiteSpace=wrap;html=1;aspect=fixed;fillColor=default;movable=1;resizable=1;rotatable=1;deletable=1;editable=1;connectable=1;rotation=90;locked=0;container=0;strokeColor=none;" vertex="1" parent="W81d36O1FyqJt7WVWAbd-1">
          <mxGeometry x="496.5" y="690.5" width="10" height="10" as="geometry" />
        </mxCell>
        <mxCell id="W81d36O1FyqJt7WVWAbd-18" value="" style="ellipse;whiteSpace=wrap;html=1;aspect=fixed;fillColor=default;movable=1;resizable=1;rotatable=1;deletable=1;editable=1;connectable=1;rotation=90;locked=0;container=0;strokeColor=none;" vertex="1" parent="W81d36O1FyqJt7WVWAbd-1">
          <mxGeometry x="527.5" y="666.5" width="30" height="30" as="geometry" />
        </mxCell>
        <mxCell id="W81d36O1FyqJt7WVWAbd-19" value="" style="ellipse;whiteSpace=wrap;html=1;aspect=fixed;fillColor=default;movable=1;resizable=1;rotatable=1;deletable=1;editable=1;connectable=1;rotation=90;locked=0;container=0;strokeColor=none;" vertex="1" parent="W81d36O1FyqJt7WVWAbd-1">
          <mxGeometry x="576.5" y="620.5" width="50" height="50" as="geometry" />
        </mxCell>
        <mxCell id="W81d36O1FyqJt7WVWAbd-20" value="" style="ellipse;whiteSpace=wrap;html=1;aspect=fixed;fillColor=default;movable=1;resizable=1;rotatable=1;deletable=1;editable=1;connectable=1;rotation=90;locked=0;container=0;strokeColor=none;" vertex="1" parent="W81d36O1FyqJt7WVWAbd-1">
          <mxGeometry x="623.5" y="540.5" width="70" height="70" as="geometry" />
        </mxCell>
        <mxCell id="W81d36O1FyqJt7WVWAbd-21" value="" style="ellipse;whiteSpace=wrap;html=1;aspect=fixed;fillColor=default;sketch=0;rotation=-180;container=0;strokeColor=none;" vertex="1" parent="W81d36O1FyqJt7WVWAbd-1">
          <mxGeometry x="445.5" y="720.5" width="90" height="90" as="geometry" />
        </mxCell>
        <mxCell id="W81d36O1FyqJt7WVWAbd-22" value="" style="ellipse;whiteSpace=wrap;html=1;aspect=fixed;fillColor=default;rotation=-180;movable=1;resizable=1;rotatable=1;deletable=1;editable=1;locked=0;connectable=1;container=0;strokeColor=none;" vertex="1" parent="W81d36O1FyqJt7WVWAbd-1">
          <mxGeometry x="720.5" y="575.5" width="10" height="10" as="geometry" />
        </mxCell>
        <mxCell id="W81d36O1FyqJt7WVWAbd-23" value="" style="ellipse;whiteSpace=wrap;html=1;aspect=fixed;fillColor=default;rotation=-180;movable=1;resizable=1;rotatable=1;deletable=1;editable=1;locked=0;connectable=1;container=0;strokeColor=none;" vertex="1" parent="W81d36O1FyqJt7WVWAbd-1">
          <mxGeometry x="696.5" y="606.5" width="30" height="30" as="geometry" />
        </mxCell>
        <mxCell id="W81d36O1FyqJt7WVWAbd-24" value="" style="ellipse;whiteSpace=wrap;html=1;aspect=fixed;fillColor=default;rotation=-180;movable=1;resizable=1;rotatable=1;deletable=1;editable=1;locked=0;connectable=1;container=0;strokeColor=none;" vertex="1" parent="W81d36O1FyqJt7WVWAbd-1">
          <mxGeometry x="650.5" y="655.5" width="50" height="50" as="geometry" />
        </mxCell>
        <mxCell id="W81d36O1FyqJt7WVWAbd-25" value="" style="ellipse;whiteSpace=wrap;html=1;aspect=fixed;fillColor=default;rotation=-180;container=0;strokeColor=none;" vertex="1" parent="W81d36O1FyqJt7WVWAbd-1">
          <mxGeometry x="570.5" y="702.5" width="70" height="70" as="geometry" />
        </mxCell>
        <mxCell id="W81d36O1FyqJt7WVWAbd-26" value="" style="ellipse;whiteSpace=wrap;html=1;aspect=fixed;fillColor=default;movable=1;resizable=1;rotatable=1;deletable=1;editable=1;connectable=1;rotation=-180;locked=0;container=0;strokeColor=none;" vertex="1" parent="W81d36O1FyqJt7WVWAbd-1">
          <mxGeometry x="250.5" y="575.5" width="10" height="10" as="geometry" />
        </mxCell>
        <mxCell id="W81d36O1FyqJt7WVWAbd-27" value="" style="ellipse;whiteSpace=wrap;html=1;aspect=fixed;fillColor=default;movable=1;resizable=1;rotatable=1;deletable=1;editable=1;connectable=1;rotation=-180;locked=0;container=0;strokeColor=none;" vertex="1" parent="W81d36O1FyqJt7WVWAbd-1">
          <mxGeometry x="254.5" y="606.5" width="30" height="30" as="geometry" />
        </mxCell>
        <mxCell id="W81d36O1FyqJt7WVWAbd-28" value="" style="ellipse;whiteSpace=wrap;html=1;aspect=fixed;fillColor=default;movable=1;resizable=1;rotatable=1;deletable=1;editable=1;connectable=1;rotation=-180;locked=0;container=0;strokeColor=none;" vertex="1" parent="W81d36O1FyqJt7WVWAbd-1">
          <mxGeometry x="280.5" y="655.5" width="50" height="50" as="geometry" />
        </mxCell>
        <mxCell id="W81d36O1FyqJt7WVWAbd-29" value="" style="ellipse;whiteSpace=wrap;html=1;aspect=fixed;fillColor=default;movable=1;resizable=1;rotatable=1;deletable=1;editable=1;connectable=1;rotation=-180;container=0;strokeColor=none;" vertex="1" parent="W81d36O1FyqJt7WVWAbd-1">
          <mxGeometry x="340.5" y="702.5" width="70" height="70" as="geometry" />
        </mxCell>
        <mxCell id="W81d36O1FyqJt7WVWAbd-30" value="" style="ellipse;whiteSpace=wrap;html=1;aspect=fixed;fillColor=default;sketch=0;rotation=-90;movable=1;resizable=1;rotatable=1;deletable=1;editable=1;locked=0;connectable=1;container=0;strokeColor=none;" vertex="1" parent="W81d36O1FyqJt7WVWAbd-1">
          <mxGeometry x="140.5" y="525.5" width="90" height="90" as="geometry" />
        </mxCell>
        <mxCell id="W81d36O1FyqJt7WVWAbd-31" value="" style="ellipse;whiteSpace=wrap;html=1;aspect=fixed;fillColor=default;rotation=-90;container=0;strokeColor=none;" vertex="1" parent="W81d36O1FyqJt7WVWAbd-1">
          <mxGeometry x="365.5" y="800.5" width="10" height="10" as="geometry" />
        </mxCell>
        <mxCell id="W81d36O1FyqJt7WVWAbd-32" value="" style="ellipse;whiteSpace=wrap;html=1;aspect=fixed;fillColor=default;rotation=-90;container=0;strokeColor=none;" vertex="1" parent="W81d36O1FyqJt7WVWAbd-1">
          <mxGeometry x="314.5" y="776.5" width="30" height="30" as="geometry" />
        </mxCell>
        <mxCell id="W81d36O1FyqJt7WVWAbd-33" value="" style="ellipse;whiteSpace=wrap;html=1;aspect=fixed;fillColor=default;rotation=-90;container=0;strokeColor=none;" vertex="1" parent="W81d36O1FyqJt7WVWAbd-1">
          <mxGeometry x="245.5" y="730.5" width="50" height="50" as="geometry" />
        </mxCell>
        <mxCell id="W81d36O1FyqJt7WVWAbd-34" value="" style="ellipse;whiteSpace=wrap;html=1;aspect=fixed;fillColor=default;rotation=-90;movable=1;resizable=1;rotatable=1;deletable=1;editable=1;locked=0;connectable=1;container=0;strokeColor=none;" vertex="1" parent="W81d36O1FyqJt7WVWAbd-1">
          <mxGeometry x="178.5" y="650.5" width="70" height="70" as="geometry" />
        </mxCell>
        <mxCell id="W81d36O1FyqJt7WVWAbd-35" value="" style="ellipse;whiteSpace=wrap;html=1;aspect=fixed;fillColor=default;movable=1;resizable=1;rotatable=1;deletable=1;editable=1;connectable=1;rotation=-90;locked=0;container=0;strokeColor=none;" vertex="1" parent="W81d36O1FyqJt7WVWAbd-1">
          <mxGeometry x="365.5" y="330.5" width="10" height="10" as="geometry" />
        </mxCell>
        <mxCell id="W81d36O1FyqJt7WVWAbd-36" value="" style="ellipse;whiteSpace=wrap;html=1;aspect=fixed;fillColor=default;movable=1;resizable=1;rotatable=1;deletable=1;editable=1;connectable=1;rotation=-90;locked=0;container=0;strokeColor=none;" vertex="1" parent="W81d36O1FyqJt7WVWAbd-1">
          <mxGeometry x="314.5" y="334.5" width="30" height="30" as="geometry" />
        </mxCell>
        <mxCell id="W81d36O1FyqJt7WVWAbd-37" value="" style="ellipse;whiteSpace=wrap;html=1;aspect=fixed;fillColor=default;movable=1;resizable=1;rotatable=1;deletable=1;editable=1;connectable=1;rotation=-90;locked=0;container=0;strokeColor=none;" vertex="1" parent="W81d36O1FyqJt7WVWAbd-1">
          <mxGeometry x="245.5" y="360.5" width="50" height="50" as="geometry" />
        </mxCell>
        <mxCell id="W81d36O1FyqJt7WVWAbd-38" value="" style="ellipse;whiteSpace=wrap;html=1;aspect=fixed;fillColor=default;movable=1;resizable=1;rotatable=1;deletable=1;editable=1;connectable=1;rotation=-90;locked=0;container=0;strokeColor=none;" vertex="1" parent="W81d36O1FyqJt7WVWAbd-1">
          <mxGeometry x="178.5" y="420.5" width="70" height="70" as="geometry" />
        </mxCell>
        <mxCell id="Jz77P2ICA5JCDNovnXND-1" value="Davelight" style="text;html=1;strokeColor=none;fillColor=none;align=center;verticalAlign=middle;whiteSpace=wrap;rounded=0;fontColor=#FFFFFF;fontFamily=COCOGOOSE;fontSize=160;" vertex="1" parent="W81d36O1FyqJt7WVWAbd-1">
          <mxGeometry x="-257" y="810" width="1400" height="280" as="geometry" />
        </mxCell>
      </root>
    </mxGraphModel>
  </diagram>
  <diagram name="white on transparent" id="JoquwXnvc4zdrysCZ6oB">
    <mxGraphModel dx="1036" dy="614" grid="1" gridSize="10" guides="1" tooltips="1" connect="1" arrows="1" fold="1" page="1" pageScale="1" pageWidth="827" pageHeight="1169" math="0" shadow="0">
      <root>
        <mxCell id="9ExBvVBEpKe3fiFLfT6A-0" />
        <mxCell id="9ExBvVBEpKe3fiFLfT6A-1" parent="9ExBvVBEpKe3fiFLfT6A-0" />
        <mxCell id="9ExBvVBEpKe3fiFLfT6A-3" value="" style="ellipse;whiteSpace=wrap;html=1;aspect=fixed;fillColor=default;sketch=0;rotation=0;movable=1;resizable=1;rotatable=1;deletable=1;editable=1;locked=0;connectable=1;container=0;strokeColor=none;" parent="9ExBvVBEpKe3fiFLfT6A-1" vertex="1">
          <mxGeometry x="335.5" y="220.5" width="90" height="90" as="geometry" />
        </mxCell>
        <mxCell id="9ExBvVBEpKe3fiFLfT6A-4" value="" style="ellipse;whiteSpace=wrap;html=1;aspect=fixed;fillColor=default;movable=1;resizable=1;rotatable=1;deletable=1;editable=1;locked=0;connectable=1;container=0;strokeColor=none;" parent="9ExBvVBEpKe3fiFLfT6A-1" vertex="1">
          <mxGeometry x="140.5" y="445.5" width="10" height="10" as="geometry" />
        </mxCell>
        <mxCell id="9ExBvVBEpKe3fiFLfT6A-5" value="" style="ellipse;whiteSpace=wrap;html=1;aspect=fixed;fillColor=default;movable=1;resizable=1;rotatable=1;deletable=1;editable=1;locked=0;connectable=1;container=0;strokeColor=none;" parent="9ExBvVBEpKe3fiFLfT6A-1" vertex="1">
          <mxGeometry x="144.5" y="394.5" width="30" height="30" as="geometry" />
        </mxCell>
        <mxCell id="9ExBvVBEpKe3fiFLfT6A-6" value="" style="ellipse;whiteSpace=wrap;html=1;aspect=fixed;fillColor=default;movable=1;resizable=1;rotatable=1;deletable=1;editable=1;locked=0;connectable=1;container=0;strokeColor=none;" parent="9ExBvVBEpKe3fiFLfT6A-1" vertex="1">
          <mxGeometry x="170.5" y="325.5" width="50" height="50" as="geometry" />
        </mxCell>
        <mxCell id="9ExBvVBEpKe3fiFLfT6A-7" value="" style="ellipse;whiteSpace=wrap;html=1;aspect=fixed;fillColor=default;movable=1;resizable=1;rotatable=1;deletable=1;editable=1;locked=0;connectable=1;container=0;strokeColor=none;" parent="9ExBvVBEpKe3fiFLfT6A-1" vertex="1">
          <mxGeometry x="230.5" y="258.5" width="70" height="70" as="geometry" />
        </mxCell>
        <mxCell id="9ExBvVBEpKe3fiFLfT6A-8" value="" style="ellipse;whiteSpace=wrap;html=1;aspect=fixed;fillColor=default;movable=1;resizable=1;rotatable=1;deletable=1;editable=1;connectable=1;rotation=0;locked=0;container=0;strokeColor=none;" parent="9ExBvVBEpKe3fiFLfT6A-1" vertex="1">
          <mxGeometry x="610.5" y="445.5" width="10" height="10" as="geometry" />
        </mxCell>
        <mxCell id="9ExBvVBEpKe3fiFLfT6A-9" value="" style="ellipse;whiteSpace=wrap;html=1;aspect=fixed;fillColor=default;movable=1;resizable=1;rotatable=1;deletable=1;editable=1;connectable=1;rotation=0;locked=0;container=0;strokeColor=none;" parent="9ExBvVBEpKe3fiFLfT6A-1" vertex="1">
          <mxGeometry x="586.5" y="394.5" width="30" height="30" as="geometry" />
        </mxCell>
        <mxCell id="9ExBvVBEpKe3fiFLfT6A-10" value="" style="ellipse;whiteSpace=wrap;html=1;aspect=fixed;fillColor=default;movable=1;resizable=1;rotatable=1;deletable=1;editable=1;connectable=1;rotation=0;locked=0;container=0;strokeColor=none;" parent="9ExBvVBEpKe3fiFLfT6A-1" vertex="1">
          <mxGeometry x="540.5" y="325.5" width="50" height="50" as="geometry" />
        </mxCell>
        <mxCell id="9ExBvVBEpKe3fiFLfT6A-11" value="" style="ellipse;whiteSpace=wrap;html=1;aspect=fixed;fillColor=default;movable=1;resizable=1;rotatable=1;deletable=1;editable=1;connectable=1;rotation=0;locked=0;container=0;strokeColor=none;" parent="9ExBvVBEpKe3fiFLfT6A-1" vertex="1">
          <mxGeometry x="460.5" y="258.5" width="70" height="70" as="geometry" />
        </mxCell>
        <mxCell id="9ExBvVBEpKe3fiFLfT6A-12" value="" style="ellipse;whiteSpace=wrap;html=1;aspect=fixed;fillColor=default;sketch=0;rotation=90;movable=1;resizable=1;rotatable=1;deletable=1;editable=1;locked=0;connectable=1;container=0;strokeColor=none;" parent="9ExBvVBEpKe3fiFLfT6A-1" vertex="1">
          <mxGeometry x="641.5" y="415.5" width="90" height="90" as="geometry" />
        </mxCell>
        <mxCell id="9ExBvVBEpKe3fiFLfT6A-13" value="" style="ellipse;whiteSpace=wrap;html=1;aspect=fixed;fillColor=default;rotation=90;movable=1;resizable=1;rotatable=1;deletable=1;editable=1;locked=0;connectable=1;container=0;strokeColor=none;" parent="9ExBvVBEpKe3fiFLfT6A-1" vertex="1">
          <mxGeometry x="495.5" y="220.5" width="10" height="10" as="geometry" />
        </mxCell>
        <mxCell id="9ExBvVBEpKe3fiFLfT6A-14" value="" style="ellipse;whiteSpace=wrap;html=1;aspect=fixed;fillColor=default;rotation=90;movable=1;resizable=1;rotatable=1;deletable=1;editable=1;locked=0;connectable=1;container=0;strokeColor=none;" parent="9ExBvVBEpKe3fiFLfT6A-1" vertex="1">
          <mxGeometry x="527.5" y="224.5" width="30" height="30" as="geometry" />
        </mxCell>
        <mxCell id="9ExBvVBEpKe3fiFLfT6A-15" value="" style="ellipse;whiteSpace=wrap;html=1;aspect=fixed;fillColor=default;rotation=90;movable=1;resizable=1;rotatable=1;deletable=1;editable=1;locked=0;connectable=1;container=0;strokeColor=none;" parent="9ExBvVBEpKe3fiFLfT6A-1" vertex="1">
          <mxGeometry x="576.5" y="250.5" width="50" height="50" as="geometry" />
        </mxCell>
        <mxCell id="9ExBvVBEpKe3fiFLfT6A-16" value="" style="ellipse;whiteSpace=wrap;html=1;aspect=fixed;fillColor=default;rotation=90;movable=1;resizable=1;rotatable=1;deletable=1;editable=1;locked=0;connectable=1;container=0;strokeColor=none;" parent="9ExBvVBEpKe3fiFLfT6A-1" vertex="1">
          <mxGeometry x="623.5" y="310.5" width="70" height="70" as="geometry" />
        </mxCell>
        <mxCell id="9ExBvVBEpKe3fiFLfT6A-17" value="" style="ellipse;whiteSpace=wrap;html=1;aspect=fixed;fillColor=default;movable=1;resizable=1;rotatable=1;deletable=1;editable=1;connectable=1;rotation=90;locked=0;container=0;strokeColor=none;" parent="9ExBvVBEpKe3fiFLfT6A-1" vertex="1">
          <mxGeometry x="496.5" y="690.5" width="10" height="10" as="geometry" />
        </mxCell>
        <mxCell id="9ExBvVBEpKe3fiFLfT6A-18" value="" style="ellipse;whiteSpace=wrap;html=1;aspect=fixed;fillColor=default;movable=1;resizable=1;rotatable=1;deletable=1;editable=1;connectable=1;rotation=90;locked=0;container=0;strokeColor=none;" parent="9ExBvVBEpKe3fiFLfT6A-1" vertex="1">
          <mxGeometry x="527.5" y="666.5" width="30" height="30" as="geometry" />
        </mxCell>
        <mxCell id="9ExBvVBEpKe3fiFLfT6A-19" value="" style="ellipse;whiteSpace=wrap;html=1;aspect=fixed;fillColor=default;movable=1;resizable=1;rotatable=1;deletable=1;editable=1;connectable=1;rotation=90;locked=0;container=0;strokeColor=none;" parent="9ExBvVBEpKe3fiFLfT6A-1" vertex="1">
          <mxGeometry x="576.5" y="620.5" width="50" height="50" as="geometry" />
        </mxCell>
        <mxCell id="9ExBvVBEpKe3fiFLfT6A-20" value="" style="ellipse;whiteSpace=wrap;html=1;aspect=fixed;fillColor=default;movable=1;resizable=1;rotatable=1;deletable=1;editable=1;connectable=1;rotation=90;locked=0;container=0;strokeColor=none;" parent="9ExBvVBEpKe3fiFLfT6A-1" vertex="1">
          <mxGeometry x="623.5" y="540.5" width="70" height="70" as="geometry" />
        </mxCell>
        <mxCell id="9ExBvVBEpKe3fiFLfT6A-21" value="" style="ellipse;whiteSpace=wrap;html=1;aspect=fixed;fillColor=default;sketch=0;rotation=-180;container=0;strokeColor=none;" parent="9ExBvVBEpKe3fiFLfT6A-1" vertex="1">
          <mxGeometry x="445.5" y="720.5" width="90" height="90" as="geometry" />
        </mxCell>
        <mxCell id="9ExBvVBEpKe3fiFLfT6A-22" value="" style="ellipse;whiteSpace=wrap;html=1;aspect=fixed;fillColor=default;rotation=-180;movable=1;resizable=1;rotatable=1;deletable=1;editable=1;locked=0;connectable=1;container=0;strokeColor=none;" parent="9ExBvVBEpKe3fiFLfT6A-1" vertex="1">
          <mxGeometry x="720.5" y="575.5" width="10" height="10" as="geometry" />
        </mxCell>
        <mxCell id="9ExBvVBEpKe3fiFLfT6A-23" value="" style="ellipse;whiteSpace=wrap;html=1;aspect=fixed;fillColor=default;rotation=-180;movable=1;resizable=1;rotatable=1;deletable=1;editable=1;locked=0;connectable=1;container=0;strokeColor=none;" parent="9ExBvVBEpKe3fiFLfT6A-1" vertex="1">
          <mxGeometry x="696.5" y="606.5" width="30" height="30" as="geometry" />
        </mxCell>
        <mxCell id="9ExBvVBEpKe3fiFLfT6A-24" value="" style="ellipse;whiteSpace=wrap;html=1;aspect=fixed;fillColor=default;rotation=-180;movable=1;resizable=1;rotatable=1;deletable=1;editable=1;locked=0;connectable=1;container=0;strokeColor=none;" parent="9ExBvVBEpKe3fiFLfT6A-1" vertex="1">
          <mxGeometry x="650.5" y="655.5" width="50" height="50" as="geometry" />
        </mxCell>
        <mxCell id="9ExBvVBEpKe3fiFLfT6A-25" value="" style="ellipse;whiteSpace=wrap;html=1;aspect=fixed;fillColor=default;rotation=-180;container=0;strokeColor=none;" parent="9ExBvVBEpKe3fiFLfT6A-1" vertex="1">
          <mxGeometry x="570.5" y="702.5" width="70" height="70" as="geometry" />
        </mxCell>
        <mxCell id="9ExBvVBEpKe3fiFLfT6A-26" value="" style="ellipse;whiteSpace=wrap;html=1;aspect=fixed;fillColor=default;movable=1;resizable=1;rotatable=1;deletable=1;editable=1;connectable=1;rotation=-180;locked=0;container=0;strokeColor=none;" parent="9ExBvVBEpKe3fiFLfT6A-1" vertex="1">
          <mxGeometry x="250.5" y="575.5" width="10" height="10" as="geometry" />
        </mxCell>
        <mxCell id="9ExBvVBEpKe3fiFLfT6A-27" value="" style="ellipse;whiteSpace=wrap;html=1;aspect=fixed;fillColor=default;movable=1;resizable=1;rotatable=1;deletable=1;editable=1;connectable=1;rotation=-180;locked=0;container=0;strokeColor=none;" parent="9ExBvVBEpKe3fiFLfT6A-1" vertex="1">
          <mxGeometry x="254.5" y="606.5" width="30" height="30" as="geometry" />
        </mxCell>
        <mxCell id="9ExBvVBEpKe3fiFLfT6A-28" value="" style="ellipse;whiteSpace=wrap;html=1;aspect=fixed;fillColor=default;movable=1;resizable=1;rotatable=1;deletable=1;editable=1;connectable=1;rotation=-180;locked=0;container=0;strokeColor=none;" parent="9ExBvVBEpKe3fiFLfT6A-1" vertex="1">
          <mxGeometry x="280.5" y="655.5" width="50" height="50" as="geometry" />
        </mxCell>
        <mxCell id="9ExBvVBEpKe3fiFLfT6A-29" value="" style="ellipse;whiteSpace=wrap;html=1;aspect=fixed;fillColor=default;movable=1;resizable=1;rotatable=1;deletable=1;editable=1;connectable=1;rotation=-180;container=0;strokeColor=none;" parent="9ExBvVBEpKe3fiFLfT6A-1" vertex="1">
          <mxGeometry x="340.5" y="702.5" width="70" height="70" as="geometry" />
        </mxCell>
        <mxCell id="9ExBvVBEpKe3fiFLfT6A-30" value="" style="ellipse;whiteSpace=wrap;html=1;aspect=fixed;fillColor=default;sketch=0;rotation=-90;movable=1;resizable=1;rotatable=1;deletable=1;editable=1;locked=0;connectable=1;container=0;strokeColor=none;" parent="9ExBvVBEpKe3fiFLfT6A-1" vertex="1">
          <mxGeometry x="140.5" y="525.5" width="90" height="90" as="geometry" />
        </mxCell>
        <mxCell id="9ExBvVBEpKe3fiFLfT6A-31" value="" style="ellipse;whiteSpace=wrap;html=1;aspect=fixed;fillColor=default;rotation=-90;container=0;strokeColor=none;" parent="9ExBvVBEpKe3fiFLfT6A-1" vertex="1">
          <mxGeometry x="365.5" y="800.5" width="10" height="10" as="geometry" />
        </mxCell>
        <mxCell id="9ExBvVBEpKe3fiFLfT6A-32" value="" style="ellipse;whiteSpace=wrap;html=1;aspect=fixed;fillColor=default;rotation=-90;container=0;strokeColor=none;" parent="9ExBvVBEpKe3fiFLfT6A-1" vertex="1">
          <mxGeometry x="314.5" y="776.5" width="30" height="30" as="geometry" />
        </mxCell>
        <mxCell id="9ExBvVBEpKe3fiFLfT6A-33" value="" style="ellipse;whiteSpace=wrap;html=1;aspect=fixed;fillColor=default;rotation=-90;container=0;strokeColor=none;" parent="9ExBvVBEpKe3fiFLfT6A-1" vertex="1">
          <mxGeometry x="245.5" y="730.5" width="50" height="50" as="geometry" />
        </mxCell>
        <mxCell id="9ExBvVBEpKe3fiFLfT6A-34" value="" style="ellipse;whiteSpace=wrap;html=1;aspect=fixed;fillColor=default;rotation=-90;movable=1;resizable=1;rotatable=1;deletable=1;editable=1;locked=0;connectable=1;container=0;strokeColor=none;" parent="9ExBvVBEpKe3fiFLfT6A-1" vertex="1">
          <mxGeometry x="178.5" y="650.5" width="70" height="70" as="geometry" />
        </mxCell>
        <mxCell id="9ExBvVBEpKe3fiFLfT6A-35" value="" style="ellipse;whiteSpace=wrap;html=1;aspect=fixed;fillColor=default;movable=1;resizable=1;rotatable=1;deletable=1;editable=1;connectable=1;rotation=-90;locked=0;container=0;strokeColor=none;" parent="9ExBvVBEpKe3fiFLfT6A-1" vertex="1">
          <mxGeometry x="365.5" y="330.5" width="10" height="10" as="geometry" />
        </mxCell>
        <mxCell id="9ExBvVBEpKe3fiFLfT6A-36" value="" style="ellipse;whiteSpace=wrap;html=1;aspect=fixed;fillColor=default;movable=1;resizable=1;rotatable=1;deletable=1;editable=1;connectable=1;rotation=-90;locked=0;container=0;strokeColor=none;" parent="9ExBvVBEpKe3fiFLfT6A-1" vertex="1">
          <mxGeometry x="314.5" y="334.5" width="30" height="30" as="geometry" />
        </mxCell>
        <mxCell id="9ExBvVBEpKe3fiFLfT6A-37" value="" style="ellipse;whiteSpace=wrap;html=1;aspect=fixed;fillColor=default;movable=1;resizable=1;rotatable=1;deletable=1;editable=1;connectable=1;rotation=-90;locked=0;container=0;strokeColor=none;" parent="9ExBvVBEpKe3fiFLfT6A-1" vertex="1">
          <mxGeometry x="245.5" y="360.5" width="50" height="50" as="geometry" />
        </mxCell>
        <mxCell id="9ExBvVBEpKe3fiFLfT6A-38" value="" style="ellipse;whiteSpace=wrap;html=1;aspect=fixed;fillColor=default;movable=1;resizable=1;rotatable=1;deletable=1;editable=1;connectable=1;rotation=-90;locked=0;container=0;strokeColor=none;" parent="9ExBvVBEpKe3fiFLfT6A-1" vertex="1">
          <mxGeometry x="178.5" y="420.5" width="70" height="70" as="geometry" />
        </mxCell>
      </root>
    </mxGraphModel>
  </diagram>
  <diagram name="black on white" id="hfpzVLX_tjHV7DZA6L2a">
    <mxGraphModel dx="1036" dy="614" grid="1" gridSize="10" guides="1" tooltips="1" connect="1" arrows="1" fold="1" page="1" pageScale="1" pageWidth="827" pageHeight="1169" math="0" shadow="0">
      <root>
        <mxCell id="3XckZ7QNyzIzjzGsV1J0-0" />
        <mxCell id="3XckZ7QNyzIzjzGsV1J0-1" parent="3XckZ7QNyzIzjzGsV1J0-0" />
        <mxCell id="3XckZ7QNyzIzjzGsV1J0-2" value="" style="group;fillColor=#FFFFFF;container=0;" parent="3XckZ7QNyzIzjzGsV1J0-1" vertex="1" connectable="0">
          <mxGeometry x="139.5" y="219.5" width="591" height="591" as="geometry" />
        </mxCell>
        <mxCell id="3XckZ7QNyzIzjzGsV1J0-3" value="" style="ellipse;whiteSpace=wrap;html=1;aspect=fixed;fillColor=#000000;sketch=0;rotation=0;movable=1;resizable=1;rotatable=1;deletable=1;editable=1;locked=0;connectable=1;container=0;strokeColor=none;" parent="3XckZ7QNyzIzjzGsV1J0-1" vertex="1">
          <mxGeometry x="335.5" y="220.5" width="90" height="90" as="geometry" />
        </mxCell>
        <mxCell id="3XckZ7QNyzIzjzGsV1J0-4" value="" style="ellipse;whiteSpace=wrap;html=1;aspect=fixed;fillColor=#000000;movable=1;resizable=1;rotatable=1;deletable=1;editable=1;locked=0;connectable=1;container=0;strokeColor=none;" parent="3XckZ7QNyzIzjzGsV1J0-1" vertex="1">
          <mxGeometry x="140.5" y="445.5" width="10" height="10" as="geometry" />
        </mxCell>
        <mxCell id="3XckZ7QNyzIzjzGsV1J0-5" value="" style="ellipse;whiteSpace=wrap;html=1;aspect=fixed;fillColor=#000000;movable=1;resizable=1;rotatable=1;deletable=1;editable=1;locked=0;connectable=1;container=0;strokeColor=none;" parent="3XckZ7QNyzIzjzGsV1J0-1" vertex="1">
          <mxGeometry x="144.5" y="394.5" width="30" height="30" as="geometry" />
        </mxCell>
        <mxCell id="3XckZ7QNyzIzjzGsV1J0-6" value="" style="ellipse;whiteSpace=wrap;html=1;aspect=fixed;fillColor=#000000;movable=1;resizable=1;rotatable=1;deletable=1;editable=1;locked=0;connectable=1;container=0;strokeColor=none;" parent="3XckZ7QNyzIzjzGsV1J0-1" vertex="1">
          <mxGeometry x="170.5" y="325.5" width="50" height="50" as="geometry" />
        </mxCell>
        <mxCell id="3XckZ7QNyzIzjzGsV1J0-7" value="" style="ellipse;whiteSpace=wrap;html=1;aspect=fixed;fillColor=#000000;movable=1;resizable=1;rotatable=1;deletable=1;editable=1;locked=0;connectable=1;container=0;strokeColor=none;" parent="3XckZ7QNyzIzjzGsV1J0-1" vertex="1">
          <mxGeometry x="230.5" y="258.5" width="70" height="70" as="geometry" />
        </mxCell>
        <mxCell id="3XckZ7QNyzIzjzGsV1J0-8" value="" style="ellipse;whiteSpace=wrap;html=1;aspect=fixed;fillColor=#000000;movable=1;resizable=1;rotatable=1;deletable=1;editable=1;connectable=1;rotation=0;locked=0;container=0;strokeColor=none;" parent="3XckZ7QNyzIzjzGsV1J0-1" vertex="1">
          <mxGeometry x="610.5" y="445.5" width="10" height="10" as="geometry" />
        </mxCell>
        <mxCell id="3XckZ7QNyzIzjzGsV1J0-9" value="" style="ellipse;whiteSpace=wrap;html=1;aspect=fixed;fillColor=#000000;movable=1;resizable=1;rotatable=1;deletable=1;editable=1;connectable=1;rotation=0;locked=0;container=0;strokeColor=none;" parent="3XckZ7QNyzIzjzGsV1J0-1" vertex="1">
          <mxGeometry x="586.5" y="394.5" width="30" height="30" as="geometry" />
        </mxCell>
        <mxCell id="3XckZ7QNyzIzjzGsV1J0-10" value="" style="ellipse;whiteSpace=wrap;html=1;aspect=fixed;fillColor=#000000;movable=1;resizable=1;rotatable=1;deletable=1;editable=1;connectable=1;rotation=0;locked=0;container=0;strokeColor=none;" parent="3XckZ7QNyzIzjzGsV1J0-1" vertex="1">
          <mxGeometry x="540.5" y="325.5" width="50" height="50" as="geometry" />
        </mxCell>
        <mxCell id="3XckZ7QNyzIzjzGsV1J0-11" value="" style="ellipse;whiteSpace=wrap;html=1;aspect=fixed;fillColor=#000000;movable=1;resizable=1;rotatable=1;deletable=1;editable=1;connectable=1;rotation=0;locked=0;container=0;strokeColor=none;" parent="3XckZ7QNyzIzjzGsV1J0-1" vertex="1">
          <mxGeometry x="460.5" y="258.5" width="70" height="70" as="geometry" />
        </mxCell>
        <mxCell id="3XckZ7QNyzIzjzGsV1J0-12" value="" style="ellipse;whiteSpace=wrap;html=1;aspect=fixed;fillColor=#000000;sketch=0;rotation=90;movable=1;resizable=1;rotatable=1;deletable=1;editable=1;locked=0;connectable=1;container=0;strokeColor=none;" parent="3XckZ7QNyzIzjzGsV1J0-1" vertex="1">
          <mxGeometry x="641.5" y="415.5" width="90" height="90" as="geometry" />
        </mxCell>
        <mxCell id="3XckZ7QNyzIzjzGsV1J0-13" value="" style="ellipse;whiteSpace=wrap;html=1;aspect=fixed;fillColor=#000000;rotation=90;movable=1;resizable=1;rotatable=1;deletable=1;editable=1;locked=0;connectable=1;container=0;strokeColor=none;" parent="3XckZ7QNyzIzjzGsV1J0-1" vertex="1">
          <mxGeometry x="495.5" y="220.5" width="10" height="10" as="geometry" />
        </mxCell>
        <mxCell id="3XckZ7QNyzIzjzGsV1J0-14" value="" style="ellipse;whiteSpace=wrap;html=1;aspect=fixed;fillColor=#000000;rotation=90;movable=1;resizable=1;rotatable=1;deletable=1;editable=1;locked=0;connectable=1;container=0;strokeColor=none;" parent="3XckZ7QNyzIzjzGsV1J0-1" vertex="1">
          <mxGeometry x="527.5" y="224.5" width="30" height="30" as="geometry" />
        </mxCell>
        <mxCell id="3XckZ7QNyzIzjzGsV1J0-15" value="" style="ellipse;whiteSpace=wrap;html=1;aspect=fixed;fillColor=#000000;rotation=90;movable=1;resizable=1;rotatable=1;deletable=1;editable=1;locked=0;connectable=1;container=0;strokeColor=none;" parent="3XckZ7QNyzIzjzGsV1J0-1" vertex="1">
          <mxGeometry x="576.5" y="250.5" width="50" height="50" as="geometry" />
        </mxCell>
        <mxCell id="3XckZ7QNyzIzjzGsV1J0-16" value="" style="ellipse;whiteSpace=wrap;html=1;aspect=fixed;fillColor=#000000;rotation=90;movable=1;resizable=1;rotatable=1;deletable=1;editable=1;locked=0;connectable=1;container=0;strokeColor=none;" parent="3XckZ7QNyzIzjzGsV1J0-1" vertex="1">
          <mxGeometry x="623.5" y="310.5" width="70" height="70" as="geometry" />
        </mxCell>
        <mxCell id="3XckZ7QNyzIzjzGsV1J0-17" value="" style="ellipse;whiteSpace=wrap;html=1;aspect=fixed;fillColor=#000000;movable=1;resizable=1;rotatable=1;deletable=1;editable=1;connectable=1;rotation=90;locked=0;container=0;strokeColor=none;" parent="3XckZ7QNyzIzjzGsV1J0-1" vertex="1">
          <mxGeometry x="496.5" y="690.5" width="10" height="10" as="geometry" />
        </mxCell>
        <mxCell id="3XckZ7QNyzIzjzGsV1J0-18" value="" style="ellipse;whiteSpace=wrap;html=1;aspect=fixed;fillColor=#000000;movable=1;resizable=1;rotatable=1;deletable=1;editable=1;connectable=1;rotation=90;locked=0;container=0;strokeColor=none;" parent="3XckZ7QNyzIzjzGsV1J0-1" vertex="1">
          <mxGeometry x="527.5" y="666.5" width="30" height="30" as="geometry" />
        </mxCell>
        <mxCell id="3XckZ7QNyzIzjzGsV1J0-19" value="" style="ellipse;whiteSpace=wrap;html=1;aspect=fixed;fillColor=#000000;movable=1;resizable=1;rotatable=1;deletable=1;editable=1;connectable=1;rotation=90;locked=0;container=0;strokeColor=none;" parent="3XckZ7QNyzIzjzGsV1J0-1" vertex="1">
          <mxGeometry x="576.5" y="620.5" width="50" height="50" as="geometry" />
        </mxCell>
        <mxCell id="3XckZ7QNyzIzjzGsV1J0-20" value="" style="ellipse;whiteSpace=wrap;html=1;aspect=fixed;fillColor=#000000;movable=1;resizable=1;rotatable=1;deletable=1;editable=1;connectable=1;rotation=90;locked=0;container=0;strokeColor=none;" parent="3XckZ7QNyzIzjzGsV1J0-1" vertex="1">
          <mxGeometry x="623.5" y="540.5" width="70" height="70" as="geometry" />
        </mxCell>
        <mxCell id="3XckZ7QNyzIzjzGsV1J0-21" value="" style="ellipse;whiteSpace=wrap;html=1;aspect=fixed;fillColor=#000000;sketch=0;rotation=-180;container=0;strokeColor=none;" parent="3XckZ7QNyzIzjzGsV1J0-1" vertex="1">
          <mxGeometry x="445.5" y="720.5" width="90" height="90" as="geometry" />
        </mxCell>
        <mxCell id="3XckZ7QNyzIzjzGsV1J0-22" value="" style="ellipse;whiteSpace=wrap;html=1;aspect=fixed;fillColor=#000000;rotation=-180;movable=1;resizable=1;rotatable=1;deletable=1;editable=1;locked=0;connectable=1;container=0;strokeColor=none;" parent="3XckZ7QNyzIzjzGsV1J0-1" vertex="1">
          <mxGeometry x="720.5" y="575.5" width="10" height="10" as="geometry" />
        </mxCell>
        <mxCell id="3XckZ7QNyzIzjzGsV1J0-23" value="" style="ellipse;whiteSpace=wrap;html=1;aspect=fixed;fillColor=#000000;rotation=-180;movable=1;resizable=1;rotatable=1;deletable=1;editable=1;locked=0;connectable=1;container=0;strokeColor=none;" parent="3XckZ7QNyzIzjzGsV1J0-1" vertex="1">
          <mxGeometry x="696.5" y="606.5" width="30" height="30" as="geometry" />
        </mxCell>
        <mxCell id="3XckZ7QNyzIzjzGsV1J0-24" value="" style="ellipse;whiteSpace=wrap;html=1;aspect=fixed;fillColor=#000000;rotation=-180;movable=1;resizable=1;rotatable=1;deletable=1;editable=1;locked=0;connectable=1;container=0;strokeColor=none;" parent="3XckZ7QNyzIzjzGsV1J0-1" vertex="1">
          <mxGeometry x="650.5" y="655.5" width="50" height="50" as="geometry" />
        </mxCell>
        <mxCell id="3XckZ7QNyzIzjzGsV1J0-25" value="" style="ellipse;whiteSpace=wrap;html=1;aspect=fixed;fillColor=#000000;rotation=-180;container=0;strokeColor=none;" parent="3XckZ7QNyzIzjzGsV1J0-1" vertex="1">
          <mxGeometry x="570.5" y="702.5" width="70" height="70" as="geometry" />
        </mxCell>
        <mxCell id="3XckZ7QNyzIzjzGsV1J0-26" value="" style="ellipse;whiteSpace=wrap;html=1;aspect=fixed;fillColor=#000000;movable=1;resizable=1;rotatable=1;deletable=1;editable=1;connectable=1;rotation=-180;locked=0;container=0;strokeColor=none;" parent="3XckZ7QNyzIzjzGsV1J0-1" vertex="1">
          <mxGeometry x="250.5" y="575.5" width="10" height="10" as="geometry" />
        </mxCell>
        <mxCell id="3XckZ7QNyzIzjzGsV1J0-27" value="" style="ellipse;whiteSpace=wrap;html=1;aspect=fixed;fillColor=#000000;movable=1;resizable=1;rotatable=1;deletable=1;editable=1;connectable=1;rotation=-180;locked=0;container=0;strokeColor=none;" parent="3XckZ7QNyzIzjzGsV1J0-1" vertex="1">
          <mxGeometry x="254.5" y="606.5" width="30" height="30" as="geometry" />
        </mxCell>
        <mxCell id="3XckZ7QNyzIzjzGsV1J0-28" value="" style="ellipse;whiteSpace=wrap;html=1;aspect=fixed;fillColor=#000000;movable=1;resizable=1;rotatable=1;deletable=1;editable=1;connectable=1;rotation=-180;locked=0;container=0;strokeColor=none;" parent="3XckZ7QNyzIzjzGsV1J0-1" vertex="1">
          <mxGeometry x="280.5" y="655.5" width="50" height="50" as="geometry" />
        </mxCell>
        <mxCell id="3XckZ7QNyzIzjzGsV1J0-29" value="" style="ellipse;whiteSpace=wrap;html=1;aspect=fixed;fillColor=#000000;movable=1;resizable=1;rotatable=1;deletable=1;editable=1;connectable=1;rotation=-180;container=0;strokeColor=none;" parent="3XckZ7QNyzIzjzGsV1J0-1" vertex="1">
          <mxGeometry x="340.5" y="702.5" width="70" height="70" as="geometry" />
        </mxCell>
        <mxCell id="3XckZ7QNyzIzjzGsV1J0-30" value="" style="ellipse;whiteSpace=wrap;html=1;aspect=fixed;fillColor=#000000;sketch=0;rotation=-90;movable=1;resizable=1;rotatable=1;deletable=1;editable=1;locked=0;connectable=1;container=0;strokeColor=none;" parent="3XckZ7QNyzIzjzGsV1J0-1" vertex="1">
          <mxGeometry x="140.5" y="525.5" width="90" height="90" as="geometry" />
        </mxCell>
        <mxCell id="3XckZ7QNyzIzjzGsV1J0-31" value="" style="ellipse;whiteSpace=wrap;html=1;aspect=fixed;fillColor=#000000;rotation=-90;container=0;strokeColor=none;" parent="3XckZ7QNyzIzjzGsV1J0-1" vertex="1">
          <mxGeometry x="365.5" y="800.5" width="10" height="10" as="geometry" />
        </mxCell>
        <mxCell id="3XckZ7QNyzIzjzGsV1J0-32" value="" style="ellipse;whiteSpace=wrap;html=1;aspect=fixed;fillColor=#000000;rotation=-90;container=0;strokeColor=none;" parent="3XckZ7QNyzIzjzGsV1J0-1" vertex="1">
          <mxGeometry x="314.5" y="776.5" width="30" height="30" as="geometry" />
        </mxCell>
        <mxCell id="3XckZ7QNyzIzjzGsV1J0-33" value="" style="ellipse;whiteSpace=wrap;html=1;aspect=fixed;fillColor=#000000;rotation=-90;container=0;strokeColor=none;" parent="3XckZ7QNyzIzjzGsV1J0-1" vertex="1">
          <mxGeometry x="245.5" y="730.5" width="50" height="50" as="geometry" />
        </mxCell>
        <mxCell id="3XckZ7QNyzIzjzGsV1J0-34" value="" style="ellipse;whiteSpace=wrap;html=1;aspect=fixed;fillColor=#000000;rotation=-90;movable=1;resizable=1;rotatable=1;deletable=1;editable=1;locked=0;connectable=1;container=0;strokeColor=none;" parent="3XckZ7QNyzIzjzGsV1J0-1" vertex="1">
          <mxGeometry x="178.5" y="650.5" width="70" height="70" as="geometry" />
        </mxCell>
        <mxCell id="3XckZ7QNyzIzjzGsV1J0-35" value="" style="ellipse;whiteSpace=wrap;html=1;aspect=fixed;fillColor=#000000;movable=1;resizable=1;rotatable=1;deletable=1;editable=1;connectable=1;rotation=-90;locked=0;container=0;strokeColor=none;" parent="3XckZ7QNyzIzjzGsV1J0-1" vertex="1">
          <mxGeometry x="365.5" y="330.5" width="10" height="10" as="geometry" />
        </mxCell>
        <mxCell id="3XckZ7QNyzIzjzGsV1J0-36" value="" style="ellipse;whiteSpace=wrap;html=1;aspect=fixed;fillColor=#000000;movable=1;resizable=1;rotatable=1;deletable=1;editable=1;connectable=1;rotation=-90;locked=0;container=0;strokeColor=none;" parent="3XckZ7QNyzIzjzGsV1J0-1" vertex="1">
          <mxGeometry x="314.5" y="334.5" width="30" height="30" as="geometry" />
        </mxCell>
        <mxCell id="3XckZ7QNyzIzjzGsV1J0-37" value="" style="ellipse;whiteSpace=wrap;html=1;aspect=fixed;fillColor=#000000;movable=1;resizable=1;rotatable=1;deletable=1;editable=1;connectable=1;rotation=-90;locked=0;container=0;strokeColor=none;" parent="3XckZ7QNyzIzjzGsV1J0-1" vertex="1">
          <mxGeometry x="245.5" y="360.5" width="50" height="50" as="geometry" />
        </mxCell>
        <mxCell id="3XckZ7QNyzIzjzGsV1J0-38" value="" style="ellipse;whiteSpace=wrap;html=1;aspect=fixed;fillColor=#000000;movable=1;resizable=1;rotatable=1;deletable=1;editable=1;connectable=1;rotation=-90;locked=0;container=0;strokeColor=none;" parent="3XckZ7QNyzIzjzGsV1J0-1" vertex="1">
          <mxGeometry x="178.5" y="420.5" width="70" height="70" as="geometry" />
        </mxCell>
      </root>
    </mxGraphModel>
  </diagram>
  <diagram name="black on white text" id="GlUv2WsIDhXOAfrsei0u">
    <mxGraphModel dx="3787" dy="1754" grid="1" gridSize="10" guides="1" tooltips="1" connect="1" arrows="1" fold="1" page="1" pageScale="1" pageWidth="827" pageHeight="1169" math="0" shadow="0">
      <root>
        <mxCell id="kK90Hqk3drhQzoE87QyG-0" />
        <mxCell id="kK90Hqk3drhQzoE87QyG-1" parent="kK90Hqk3drhQzoE87QyG-0" />
        <mxCell id="kK90Hqk3drhQzoE87QyG-2" value="" style="rounded=1;whiteSpace=wrap;html=1;strokeColor=none;fillColor=#FFFFFF;arcSize=9;" vertex="1" parent="kK90Hqk3drhQzoE87QyG-1">
          <mxGeometry x="-258.5" y="170" width="1400" height="920" as="geometry" />
        </mxCell>
        <mxCell id="kK90Hqk3drhQzoE87QyG-3" value="" style="ellipse;whiteSpace=wrap;html=1;aspect=fixed;fillColor=#000000;sketch=0;rotation=0;movable=1;resizable=1;rotatable=1;deletable=1;editable=1;locked=0;connectable=1;container=0;strokeColor=none;" vertex="1" parent="kK90Hqk3drhQzoE87QyG-1">
          <mxGeometry x="335.5" y="220.5" width="90" height="90" as="geometry" />
        </mxCell>
        <mxCell id="kK90Hqk3drhQzoE87QyG-4" value="" style="ellipse;whiteSpace=wrap;html=1;aspect=fixed;fillColor=#000000;movable=1;resizable=1;rotatable=1;deletable=1;editable=1;locked=0;connectable=1;container=0;strokeColor=none;" vertex="1" parent="kK90Hqk3drhQzoE87QyG-1">
          <mxGeometry x="140.5" y="445.5" width="10" height="10" as="geometry" />
        </mxCell>
        <mxCell id="kK90Hqk3drhQzoE87QyG-5" value="" style="ellipse;whiteSpace=wrap;html=1;aspect=fixed;fillColor=#000000;movable=1;resizable=1;rotatable=1;deletable=1;editable=1;locked=0;connectable=1;container=0;strokeColor=none;" vertex="1" parent="kK90Hqk3drhQzoE87QyG-1">
          <mxGeometry x="144.5" y="394.5" width="30" height="30" as="geometry" />
        </mxCell>
        <mxCell id="kK90Hqk3drhQzoE87QyG-6" value="" style="ellipse;whiteSpace=wrap;html=1;aspect=fixed;fillColor=#000000;movable=1;resizable=1;rotatable=1;deletable=1;editable=1;locked=0;connectable=1;container=0;strokeColor=none;" vertex="1" parent="kK90Hqk3drhQzoE87QyG-1">
          <mxGeometry x="170.5" y="325.5" width="50" height="50" as="geometry" />
        </mxCell>
        <mxCell id="kK90Hqk3drhQzoE87QyG-7" value="" style="ellipse;whiteSpace=wrap;html=1;aspect=fixed;fillColor=#000000;movable=1;resizable=1;rotatable=1;deletable=1;editable=1;locked=0;connectable=1;container=0;strokeColor=none;" vertex="1" parent="kK90Hqk3drhQzoE87QyG-1">
          <mxGeometry x="230.5" y="258.5" width="70" height="70" as="geometry" />
        </mxCell>
        <mxCell id="kK90Hqk3drhQzoE87QyG-8" value="" style="ellipse;whiteSpace=wrap;html=1;aspect=fixed;fillColor=#000000;movable=1;resizable=1;rotatable=1;deletable=1;editable=1;connectable=1;rotation=0;locked=0;container=0;strokeColor=none;" vertex="1" parent="kK90Hqk3drhQzoE87QyG-1">
          <mxGeometry x="610.5" y="445.5" width="10" height="10" as="geometry" />
        </mxCell>
        <mxCell id="kK90Hqk3drhQzoE87QyG-9" value="" style="ellipse;whiteSpace=wrap;html=1;aspect=fixed;fillColor=#000000;movable=1;resizable=1;rotatable=1;deletable=1;editable=1;connectable=1;rotation=0;locked=0;container=0;strokeColor=none;" vertex="1" parent="kK90Hqk3drhQzoE87QyG-1">
          <mxGeometry x="586.5" y="394.5" width="30" height="30" as="geometry" />
        </mxCell>
        <mxCell id="kK90Hqk3drhQzoE87QyG-10" value="" style="ellipse;whiteSpace=wrap;html=1;aspect=fixed;fillColor=#000000;movable=1;resizable=1;rotatable=1;deletable=1;editable=1;connectable=1;rotation=0;locked=0;container=0;strokeColor=none;" vertex="1" parent="kK90Hqk3drhQzoE87QyG-1">
          <mxGeometry x="540.5" y="325.5" width="50" height="50" as="geometry" />
        </mxCell>
        <mxCell id="kK90Hqk3drhQzoE87QyG-11" value="" style="ellipse;whiteSpace=wrap;html=1;aspect=fixed;fillColor=#000000;movable=1;resizable=1;rotatable=1;deletable=1;editable=1;connectable=1;rotation=0;locked=0;container=0;strokeColor=none;" vertex="1" parent="kK90Hqk3drhQzoE87QyG-1">
          <mxGeometry x="460.5" y="258.5" width="70" height="70" as="geometry" />
        </mxCell>
        <mxCell id="kK90Hqk3drhQzoE87QyG-12" value="" style="ellipse;whiteSpace=wrap;html=1;aspect=fixed;fillColor=#000000;sketch=0;rotation=90;movable=1;resizable=1;rotatable=1;deletable=1;editable=1;locked=0;connectable=1;container=0;strokeColor=none;" vertex="1" parent="kK90Hqk3drhQzoE87QyG-1">
          <mxGeometry x="641.5" y="415.5" width="90" height="90" as="geometry" />
        </mxCell>
        <mxCell id="kK90Hqk3drhQzoE87QyG-13" value="" style="ellipse;whiteSpace=wrap;html=1;aspect=fixed;fillColor=#000000;rotation=90;movable=1;resizable=1;rotatable=1;deletable=1;editable=1;locked=0;connectable=1;container=0;strokeColor=none;" vertex="1" parent="kK90Hqk3drhQzoE87QyG-1">
          <mxGeometry x="495.5" y="220.5" width="10" height="10" as="geometry" />
        </mxCell>
        <mxCell id="kK90Hqk3drhQzoE87QyG-14" value="" style="ellipse;whiteSpace=wrap;html=1;aspect=fixed;fillColor=#000000;rotation=90;movable=1;resizable=1;rotatable=1;deletable=1;editable=1;locked=0;connectable=1;container=0;strokeColor=none;" vertex="1" parent="kK90Hqk3drhQzoE87QyG-1">
          <mxGeometry x="527.5" y="224.5" width="30" height="30" as="geometry" />
        </mxCell>
        <mxCell id="kK90Hqk3drhQzoE87QyG-15" value="" style="ellipse;whiteSpace=wrap;html=1;aspect=fixed;fillColor=#000000;rotation=90;movable=1;resizable=1;rotatable=1;deletable=1;editable=1;locked=0;connectable=1;container=0;strokeColor=none;" vertex="1" parent="kK90Hqk3drhQzoE87QyG-1">
          <mxGeometry x="576.5" y="250.5" width="50" height="50" as="geometry" />
        </mxCell>
        <mxCell id="kK90Hqk3drhQzoE87QyG-16" value="" style="ellipse;whiteSpace=wrap;html=1;aspect=fixed;fillColor=#000000;rotation=90;movable=1;resizable=1;rotatable=1;deletable=1;editable=1;locked=0;connectable=1;container=0;strokeColor=none;" vertex="1" parent="kK90Hqk3drhQzoE87QyG-1">
          <mxGeometry x="623.5" y="310.5" width="70" height="70" as="geometry" />
        </mxCell>
        <mxCell id="kK90Hqk3drhQzoE87QyG-17" value="" style="ellipse;whiteSpace=wrap;html=1;aspect=fixed;fillColor=#000000;movable=1;resizable=1;rotatable=1;deletable=1;editable=1;connectable=1;rotation=90;locked=0;container=0;strokeColor=none;" vertex="1" parent="kK90Hqk3drhQzoE87QyG-1">
          <mxGeometry x="496.5" y="690.5" width="10" height="10" as="geometry" />
        </mxCell>
        <mxCell id="kK90Hqk3drhQzoE87QyG-18" value="" style="ellipse;whiteSpace=wrap;html=1;aspect=fixed;fillColor=#000000;movable=1;resizable=1;rotatable=1;deletable=1;editable=1;connectable=1;rotation=90;locked=0;container=0;strokeColor=none;" vertex="1" parent="kK90Hqk3drhQzoE87QyG-1">
          <mxGeometry x="527.5" y="666.5" width="30" height="30" as="geometry" />
        </mxCell>
        <mxCell id="kK90Hqk3drhQzoE87QyG-19" value="" style="ellipse;whiteSpace=wrap;html=1;aspect=fixed;fillColor=#000000;movable=1;resizable=1;rotatable=1;deletable=1;editable=1;connectable=1;rotation=90;locked=0;container=0;strokeColor=none;" vertex="1" parent="kK90Hqk3drhQzoE87QyG-1">
          <mxGeometry x="576.5" y="620.5" width="50" height="50" as="geometry" />
        </mxCell>
        <mxCell id="kK90Hqk3drhQzoE87QyG-20" value="" style="ellipse;whiteSpace=wrap;html=1;aspect=fixed;fillColor=#000000;movable=1;resizable=1;rotatable=1;deletable=1;editable=1;connectable=1;rotation=90;locked=0;container=0;strokeColor=none;" vertex="1" parent="kK90Hqk3drhQzoE87QyG-1">
          <mxGeometry x="623.5" y="540.5" width="70" height="70" as="geometry" />
        </mxCell>
        <mxCell id="kK90Hqk3drhQzoE87QyG-21" value="" style="ellipse;whiteSpace=wrap;html=1;aspect=fixed;fillColor=#000000;sketch=0;rotation=-180;container=0;strokeColor=none;" vertex="1" parent="kK90Hqk3drhQzoE87QyG-1">
          <mxGeometry x="445.5" y="720.5" width="90" height="90" as="geometry" />
        </mxCell>
        <mxCell id="kK90Hqk3drhQzoE87QyG-22" value="" style="ellipse;whiteSpace=wrap;html=1;aspect=fixed;fillColor=#000000;rotation=-180;movable=1;resizable=1;rotatable=1;deletable=1;editable=1;locked=0;connectable=1;container=0;strokeColor=none;" vertex="1" parent="kK90Hqk3drhQzoE87QyG-1">
          <mxGeometry x="720.5" y="575.5" width="10" height="10" as="geometry" />
        </mxCell>
        <mxCell id="kK90Hqk3drhQzoE87QyG-23" value="" style="ellipse;whiteSpace=wrap;html=1;aspect=fixed;fillColor=#000000;rotation=-180;movable=1;resizable=1;rotatable=1;deletable=1;editable=1;locked=0;connectable=1;container=0;strokeColor=none;" vertex="1" parent="kK90Hqk3drhQzoE87QyG-1">
          <mxGeometry x="696.5" y="606.5" width="30" height="30" as="geometry" />
        </mxCell>
        <mxCell id="kK90Hqk3drhQzoE87QyG-24" value="" style="ellipse;whiteSpace=wrap;html=1;aspect=fixed;fillColor=#000000;rotation=-180;movable=1;resizable=1;rotatable=1;deletable=1;editable=1;locked=0;connectable=1;container=0;strokeColor=none;" vertex="1" parent="kK90Hqk3drhQzoE87QyG-1">
          <mxGeometry x="650.5" y="655.5" width="50" height="50" as="geometry" />
        </mxCell>
        <mxCell id="kK90Hqk3drhQzoE87QyG-25" value="" style="ellipse;whiteSpace=wrap;html=1;aspect=fixed;fillColor=#000000;rotation=-180;container=0;strokeColor=none;" vertex="1" parent="kK90Hqk3drhQzoE87QyG-1">
          <mxGeometry x="570.5" y="702.5" width="70" height="70" as="geometry" />
        </mxCell>
        <mxCell id="kK90Hqk3drhQzoE87QyG-26" value="" style="ellipse;whiteSpace=wrap;html=1;aspect=fixed;fillColor=#000000;movable=1;resizable=1;rotatable=1;deletable=1;editable=1;connectable=1;rotation=-180;locked=0;container=0;strokeColor=none;" vertex="1" parent="kK90Hqk3drhQzoE87QyG-1">
          <mxGeometry x="250.5" y="575.5" width="10" height="10" as="geometry" />
        </mxCell>
        <mxCell id="kK90Hqk3drhQzoE87QyG-27" value="" style="ellipse;whiteSpace=wrap;html=1;aspect=fixed;fillColor=#000000;movable=1;resizable=1;rotatable=1;deletable=1;editable=1;connectable=1;rotation=-180;locked=0;container=0;strokeColor=none;" vertex="1" parent="kK90Hqk3drhQzoE87QyG-1">
          <mxGeometry x="254.5" y="606.5" width="30" height="30" as="geometry" />
        </mxCell>
        <mxCell id="kK90Hqk3drhQzoE87QyG-28" value="" style="ellipse;whiteSpace=wrap;html=1;aspect=fixed;fillColor=#000000;movable=1;resizable=1;rotatable=1;deletable=1;editable=1;connectable=1;rotation=-180;locked=0;container=0;strokeColor=none;" vertex="1" parent="kK90Hqk3drhQzoE87QyG-1">
          <mxGeometry x="280.5" y="655.5" width="50" height="50" as="geometry" />
        </mxCell>
        <mxCell id="kK90Hqk3drhQzoE87QyG-29" value="" style="ellipse;whiteSpace=wrap;html=1;aspect=fixed;fillColor=#000000;movable=1;resizable=1;rotatable=1;deletable=1;editable=1;connectable=1;rotation=-180;container=0;strokeColor=none;" vertex="1" parent="kK90Hqk3drhQzoE87QyG-1">
          <mxGeometry x="340.5" y="702.5" width="70" height="70" as="geometry" />
        </mxCell>
        <mxCell id="kK90Hqk3drhQzoE87QyG-30" value="" style="ellipse;whiteSpace=wrap;html=1;aspect=fixed;fillColor=#000000;sketch=0;rotation=-90;movable=1;resizable=1;rotatable=1;deletable=1;editable=1;locked=0;connectable=1;container=0;strokeColor=none;" vertex="1" parent="kK90Hqk3drhQzoE87QyG-1">
          <mxGeometry x="140.5" y="525.5" width="90" height="90" as="geometry" />
        </mxCell>
        <mxCell id="kK90Hqk3drhQzoE87QyG-31" value="" style="ellipse;whiteSpace=wrap;html=1;aspect=fixed;fillColor=#000000;rotation=-90;container=0;strokeColor=none;" vertex="1" parent="kK90Hqk3drhQzoE87QyG-1">
          <mxGeometry x="365.5" y="800.5" width="10" height="10" as="geometry" />
        </mxCell>
        <mxCell id="kK90Hqk3drhQzoE87QyG-32" value="" style="ellipse;whiteSpace=wrap;html=1;aspect=fixed;fillColor=#000000;rotation=-90;container=0;strokeColor=none;" vertex="1" parent="kK90Hqk3drhQzoE87QyG-1">
          <mxGeometry x="314.5" y="776.5" width="30" height="30" as="geometry" />
        </mxCell>
        <mxCell id="kK90Hqk3drhQzoE87QyG-33" value="" style="ellipse;whiteSpace=wrap;html=1;aspect=fixed;fillColor=#000000;rotation=-90;container=0;strokeColor=none;" vertex="1" parent="kK90Hqk3drhQzoE87QyG-1">
          <mxGeometry x="245.5" y="730.5" width="50" height="50" as="geometry" />
        </mxCell>
        <mxCell id="kK90Hqk3drhQzoE87QyG-34" value="" style="ellipse;whiteSpace=wrap;html=1;aspect=fixed;fillColor=#000000;rotation=-90;movable=1;resizable=1;rotatable=1;deletable=1;editable=1;locked=0;connectable=1;container=0;strokeColor=none;" vertex="1" parent="kK90Hqk3drhQzoE87QyG-1">
          <mxGeometry x="178.5" y="650.5" width="70" height="70" as="geometry" />
        </mxCell>
        <mxCell id="kK90Hqk3drhQzoE87QyG-35" value="" style="ellipse;whiteSpace=wrap;html=1;aspect=fixed;fillColor=#000000;movable=1;resizable=1;rotatable=1;deletable=1;editable=1;connectable=1;rotation=-90;locked=0;container=0;strokeColor=none;" vertex="1" parent="kK90Hqk3drhQzoE87QyG-1">
          <mxGeometry x="365.5" y="330.5" width="10" height="10" as="geometry" />
        </mxCell>
        <mxCell id="kK90Hqk3drhQzoE87QyG-36" value="" style="ellipse;whiteSpace=wrap;html=1;aspect=fixed;fillColor=#000000;movable=1;resizable=1;rotatable=1;deletable=1;editable=1;connectable=1;rotation=-90;locked=0;container=0;strokeColor=none;" vertex="1" parent="kK90Hqk3drhQzoE87QyG-1">
          <mxGeometry x="314.5" y="334.5" width="30" height="30" as="geometry" />
        </mxCell>
        <mxCell id="kK90Hqk3drhQzoE87QyG-37" value="" style="ellipse;whiteSpace=wrap;html=1;aspect=fixed;fillColor=#000000;movable=1;resizable=1;rotatable=1;deletable=1;editable=1;connectable=1;rotation=-90;locked=0;container=0;strokeColor=none;" vertex="1" parent="kK90Hqk3drhQzoE87QyG-1">
          <mxGeometry x="245.5" y="360.5" width="50" height="50" as="geometry" />
        </mxCell>
        <mxCell id="kK90Hqk3drhQzoE87QyG-38" value="" style="ellipse;whiteSpace=wrap;html=1;aspect=fixed;fillColor=#000000;movable=1;resizable=1;rotatable=1;deletable=1;editable=1;connectable=1;rotation=-90;locked=0;container=0;strokeColor=none;" vertex="1" parent="kK90Hqk3drhQzoE87QyG-1">
          <mxGeometry x="178.5" y="420.5" width="70" height="70" as="geometry" />
        </mxCell>
        <mxCell id="kK90Hqk3drhQzoE87QyG-39" value="Davelight" style="text;html=1;strokeColor=none;fillColor=none;align=center;verticalAlign=middle;whiteSpace=wrap;rounded=0;fontColor=#000000;fontFamily=COCOGOOSE;fontSize=160;" vertex="1" parent="kK90Hqk3drhQzoE87QyG-1">
          <mxGeometry x="-257" y="810" width="1400" height="280" as="geometry" />
        </mxCell>
      </root>
    </mxGraphModel>
  </diagram>
  <diagram name="black on transparent" id="T1XVifLUBlQQkT4gm2KO">
    <mxGraphModel dx="1036" dy="614" grid="1" gridSize="10" guides="1" tooltips="1" connect="1" arrows="1" fold="1" page="1" pageScale="1" pageWidth="827" pageHeight="1169" math="0" shadow="0">
      <root>
        <mxCell id="8xQXMDj8ivw0jOcAjezK-0" />
        <mxCell id="8xQXMDj8ivw0jOcAjezK-1" parent="8xQXMDj8ivw0jOcAjezK-0" />
        <mxCell id="8xQXMDj8ivw0jOcAjezK-3" value="" style="ellipse;whiteSpace=wrap;html=1;aspect=fixed;fillColor=#000000;sketch=0;rotation=0;movable=1;resizable=1;rotatable=1;deletable=1;editable=1;locked=0;connectable=1;container=0;strokeColor=none;" parent="8xQXMDj8ivw0jOcAjezK-1" vertex="1">
          <mxGeometry x="335.5" y="220.5" width="90" height="90" as="geometry" />
        </mxCell>
        <mxCell id="8xQXMDj8ivw0jOcAjezK-4" value="" style="ellipse;whiteSpace=wrap;html=1;aspect=fixed;fillColor=#000000;movable=1;resizable=1;rotatable=1;deletable=1;editable=1;locked=0;connectable=1;container=0;strokeColor=none;" parent="8xQXMDj8ivw0jOcAjezK-1" vertex="1">
          <mxGeometry x="140.5" y="445.5" width="10" height="10" as="geometry" />
        </mxCell>
        <mxCell id="8xQXMDj8ivw0jOcAjezK-5" value="" style="ellipse;whiteSpace=wrap;html=1;aspect=fixed;fillColor=#000000;movable=1;resizable=1;rotatable=1;deletable=1;editable=1;locked=0;connectable=1;container=0;strokeColor=none;" parent="8xQXMDj8ivw0jOcAjezK-1" vertex="1">
          <mxGeometry x="144.5" y="394.5" width="30" height="30" as="geometry" />
        </mxCell>
        <mxCell id="8xQXMDj8ivw0jOcAjezK-6" value="" style="ellipse;whiteSpace=wrap;html=1;aspect=fixed;fillColor=#000000;movable=1;resizable=1;rotatable=1;deletable=1;editable=1;locked=0;connectable=1;container=0;strokeColor=none;" parent="8xQXMDj8ivw0jOcAjezK-1" vertex="1">
          <mxGeometry x="170.5" y="325.5" width="50" height="50" as="geometry" />
        </mxCell>
        <mxCell id="8xQXMDj8ivw0jOcAjezK-7" value="" style="ellipse;whiteSpace=wrap;html=1;aspect=fixed;fillColor=#000000;movable=1;resizable=1;rotatable=1;deletable=1;editable=1;locked=0;connectable=1;container=0;strokeColor=none;" parent="8xQXMDj8ivw0jOcAjezK-1" vertex="1">
          <mxGeometry x="230.5" y="258.5" width="70" height="70" as="geometry" />
        </mxCell>
        <mxCell id="8xQXMDj8ivw0jOcAjezK-8" value="" style="ellipse;whiteSpace=wrap;html=1;aspect=fixed;fillColor=#000000;movable=1;resizable=1;rotatable=1;deletable=1;editable=1;connectable=1;rotation=0;locked=0;container=0;strokeColor=none;" parent="8xQXMDj8ivw0jOcAjezK-1" vertex="1">
          <mxGeometry x="610.5" y="445.5" width="10" height="10" as="geometry" />
        </mxCell>
        <mxCell id="8xQXMDj8ivw0jOcAjezK-9" value="" style="ellipse;whiteSpace=wrap;html=1;aspect=fixed;fillColor=#000000;movable=1;resizable=1;rotatable=1;deletable=1;editable=1;connectable=1;rotation=0;locked=0;container=0;strokeColor=none;" parent="8xQXMDj8ivw0jOcAjezK-1" vertex="1">
          <mxGeometry x="586.5" y="394.5" width="30" height="30" as="geometry" />
        </mxCell>
        <mxCell id="8xQXMDj8ivw0jOcAjezK-10" value="" style="ellipse;whiteSpace=wrap;html=1;aspect=fixed;fillColor=#000000;movable=1;resizable=1;rotatable=1;deletable=1;editable=1;connectable=1;rotation=0;locked=0;container=0;strokeColor=none;" parent="8xQXMDj8ivw0jOcAjezK-1" vertex="1">
          <mxGeometry x="540.5" y="325.5" width="50" height="50" as="geometry" />
        </mxCell>
        <mxCell id="8xQXMDj8ivw0jOcAjezK-11" value="" style="ellipse;whiteSpace=wrap;html=1;aspect=fixed;fillColor=#000000;movable=1;resizable=1;rotatable=1;deletable=1;editable=1;connectable=1;rotation=0;locked=0;container=0;strokeColor=none;" parent="8xQXMDj8ivw0jOcAjezK-1" vertex="1">
          <mxGeometry x="460.5" y="258.5" width="70" height="70" as="geometry" />
        </mxCell>
        <mxCell id="8xQXMDj8ivw0jOcAjezK-12" value="" style="ellipse;whiteSpace=wrap;html=1;aspect=fixed;fillColor=#000000;sketch=0;rotation=90;movable=1;resizable=1;rotatable=1;deletable=1;editable=1;locked=0;connectable=1;container=0;strokeColor=none;" parent="8xQXMDj8ivw0jOcAjezK-1" vertex="1">
          <mxGeometry x="641.5" y="415.5" width="90" height="90" as="geometry" />
        </mxCell>
        <mxCell id="8xQXMDj8ivw0jOcAjezK-13" value="" style="ellipse;whiteSpace=wrap;html=1;aspect=fixed;fillColor=#000000;rotation=90;movable=1;resizable=1;rotatable=1;deletable=1;editable=1;locked=0;connectable=1;container=0;strokeColor=none;" parent="8xQXMDj8ivw0jOcAjezK-1" vertex="1">
          <mxGeometry x="495.5" y="220.5" width="10" height="10" as="geometry" />
        </mxCell>
        <mxCell id="8xQXMDj8ivw0jOcAjezK-14" value="" style="ellipse;whiteSpace=wrap;html=1;aspect=fixed;fillColor=#000000;rotation=90;movable=1;resizable=1;rotatable=1;deletable=1;editable=1;locked=0;connectable=1;container=0;strokeColor=none;" parent="8xQXMDj8ivw0jOcAjezK-1" vertex="1">
          <mxGeometry x="527.5" y="224.5" width="30" height="30" as="geometry" />
        </mxCell>
        <mxCell id="8xQXMDj8ivw0jOcAjezK-15" value="" style="ellipse;whiteSpace=wrap;html=1;aspect=fixed;fillColor=#000000;rotation=90;movable=1;resizable=1;rotatable=1;deletable=1;editable=1;locked=0;connectable=1;container=0;strokeColor=none;" parent="8xQXMDj8ivw0jOcAjezK-1" vertex="1">
          <mxGeometry x="576.5" y="250.5" width="50" height="50" as="geometry" />
        </mxCell>
        <mxCell id="8xQXMDj8ivw0jOcAjezK-16" value="" style="ellipse;whiteSpace=wrap;html=1;aspect=fixed;fillColor=#000000;rotation=90;movable=1;resizable=1;rotatable=1;deletable=1;editable=1;locked=0;connectable=1;container=0;strokeColor=none;" parent="8xQXMDj8ivw0jOcAjezK-1" vertex="1">
          <mxGeometry x="623.5" y="310.5" width="70" height="70" as="geometry" />
        </mxCell>
        <mxCell id="8xQXMDj8ivw0jOcAjezK-17" value="" style="ellipse;whiteSpace=wrap;html=1;aspect=fixed;fillColor=#000000;movable=1;resizable=1;rotatable=1;deletable=1;editable=1;connectable=1;rotation=90;locked=0;container=0;strokeColor=none;" parent="8xQXMDj8ivw0jOcAjezK-1" vertex="1">
          <mxGeometry x="496.5" y="690.5" width="10" height="10" as="geometry" />
        </mxCell>
        <mxCell id="8xQXMDj8ivw0jOcAjezK-18" value="" style="ellipse;whiteSpace=wrap;html=1;aspect=fixed;fillColor=#000000;movable=1;resizable=1;rotatable=1;deletable=1;editable=1;connectable=1;rotation=90;locked=0;container=0;strokeColor=none;" parent="8xQXMDj8ivw0jOcAjezK-1" vertex="1">
          <mxGeometry x="527.5" y="666.5" width="30" height="30" as="geometry" />
        </mxCell>
        <mxCell id="8xQXMDj8ivw0jOcAjezK-19" value="" style="ellipse;whiteSpace=wrap;html=1;aspect=fixed;fillColor=#000000;movable=1;resizable=1;rotatable=1;deletable=1;editable=1;connectable=1;rotation=90;locked=0;container=0;strokeColor=none;" parent="8xQXMDj8ivw0jOcAjezK-1" vertex="1">
          <mxGeometry x="576.5" y="620.5" width="50" height="50" as="geometry" />
        </mxCell>
        <mxCell id="8xQXMDj8ivw0jOcAjezK-20" value="" style="ellipse;whiteSpace=wrap;html=1;aspect=fixed;fillColor=#000000;movable=1;resizable=1;rotatable=1;deletable=1;editable=1;connectable=1;rotation=90;locked=0;container=0;strokeColor=none;" parent="8xQXMDj8ivw0jOcAjezK-1" vertex="1">
          <mxGeometry x="623.5" y="540.5" width="70" height="70" as="geometry" />
        </mxCell>
        <mxCell id="8xQXMDj8ivw0jOcAjezK-21" value="" style="ellipse;whiteSpace=wrap;html=1;aspect=fixed;fillColor=#000000;sketch=0;rotation=-180;container=0;strokeColor=none;" parent="8xQXMDj8ivw0jOcAjezK-1" vertex="1">
          <mxGeometry x="445.5" y="720.5" width="90" height="90" as="geometry" />
        </mxCell>
        <mxCell id="8xQXMDj8ivw0jOcAjezK-22" value="" style="ellipse;whiteSpace=wrap;html=1;aspect=fixed;fillColor=#000000;rotation=-180;movable=1;resizable=1;rotatable=1;deletable=1;editable=1;locked=0;connectable=1;container=0;strokeColor=none;" parent="8xQXMDj8ivw0jOcAjezK-1" vertex="1">
          <mxGeometry x="720.5" y="575.5" width="10" height="10" as="geometry" />
        </mxCell>
        <mxCell id="8xQXMDj8ivw0jOcAjezK-23" value="" style="ellipse;whiteSpace=wrap;html=1;aspect=fixed;fillColor=#000000;rotation=-180;movable=1;resizable=1;rotatable=1;deletable=1;editable=1;locked=0;connectable=1;container=0;strokeColor=none;" parent="8xQXMDj8ivw0jOcAjezK-1" vertex="1">
          <mxGeometry x="696.5" y="606.5" width="30" height="30" as="geometry" />
        </mxCell>
        <mxCell id="8xQXMDj8ivw0jOcAjezK-24" value="" style="ellipse;whiteSpace=wrap;html=1;aspect=fixed;fillColor=#000000;rotation=-180;movable=1;resizable=1;rotatable=1;deletable=1;editable=1;locked=0;connectable=1;container=0;strokeColor=none;" parent="8xQXMDj8ivw0jOcAjezK-1" vertex="1">
          <mxGeometry x="650.5" y="655.5" width="50" height="50" as="geometry" />
        </mxCell>
        <mxCell id="8xQXMDj8ivw0jOcAjezK-25" value="" style="ellipse;whiteSpace=wrap;html=1;aspect=fixed;fillColor=#000000;rotation=-180;container=0;strokeColor=none;" parent="8xQXMDj8ivw0jOcAjezK-1" vertex="1">
          <mxGeometry x="570.5" y="702.5" width="70" height="70" as="geometry" />
        </mxCell>
        <mxCell id="8xQXMDj8ivw0jOcAjezK-26" value="" style="ellipse;whiteSpace=wrap;html=1;aspect=fixed;fillColor=#000000;movable=1;resizable=1;rotatable=1;deletable=1;editable=1;connectable=1;rotation=-180;locked=0;container=0;strokeColor=none;" parent="8xQXMDj8ivw0jOcAjezK-1" vertex="1">
          <mxGeometry x="250.5" y="575.5" width="10" height="10" as="geometry" />
        </mxCell>
        <mxCell id="8xQXMDj8ivw0jOcAjezK-27" value="" style="ellipse;whiteSpace=wrap;html=1;aspect=fixed;fillColor=#000000;movable=1;resizable=1;rotatable=1;deletable=1;editable=1;connectable=1;rotation=-180;locked=0;container=0;strokeColor=none;" parent="8xQXMDj8ivw0jOcAjezK-1" vertex="1">
          <mxGeometry x="254.5" y="606.5" width="30" height="30" as="geometry" />
        </mxCell>
        <mxCell id="8xQXMDj8ivw0jOcAjezK-28" value="" style="ellipse;whiteSpace=wrap;html=1;aspect=fixed;fillColor=#000000;movable=1;resizable=1;rotatable=1;deletable=1;editable=1;connectable=1;rotation=-180;locked=0;container=0;strokeColor=none;" parent="8xQXMDj8ivw0jOcAjezK-1" vertex="1">
          <mxGeometry x="280.5" y="655.5" width="50" height="50" as="geometry" />
        </mxCell>
        <mxCell id="8xQXMDj8ivw0jOcAjezK-29" value="" style="ellipse;whiteSpace=wrap;html=1;aspect=fixed;fillColor=#000000;movable=1;resizable=1;rotatable=1;deletable=1;editable=1;connectable=1;rotation=-180;container=0;strokeColor=none;" parent="8xQXMDj8ivw0jOcAjezK-1" vertex="1">
          <mxGeometry x="340.5" y="702.5" width="70" height="70" as="geometry" />
        </mxCell>
        <mxCell id="8xQXMDj8ivw0jOcAjezK-30" value="" style="ellipse;whiteSpace=wrap;html=1;aspect=fixed;fillColor=#000000;sketch=0;rotation=-90;movable=1;resizable=1;rotatable=1;deletable=1;editable=1;locked=0;connectable=1;container=0;strokeColor=none;" parent="8xQXMDj8ivw0jOcAjezK-1" vertex="1">
          <mxGeometry x="140.5" y="525.5" width="90" height="90" as="geometry" />
        </mxCell>
        <mxCell id="8xQXMDj8ivw0jOcAjezK-31" value="" style="ellipse;whiteSpace=wrap;html=1;aspect=fixed;fillColor=#000000;rotation=-90;container=0;strokeColor=none;" parent="8xQXMDj8ivw0jOcAjezK-1" vertex="1">
          <mxGeometry x="365.5" y="800.5" width="10" height="10" as="geometry" />
        </mxCell>
        <mxCell id="8xQXMDj8ivw0jOcAjezK-32" value="" style="ellipse;whiteSpace=wrap;html=1;aspect=fixed;fillColor=#000000;rotation=-90;container=0;strokeColor=none;" parent="8xQXMDj8ivw0jOcAjezK-1" vertex="1">
          <mxGeometry x="314.5" y="776.5" width="30" height="30" as="geometry" />
        </mxCell>
        <mxCell id="8xQXMDj8ivw0jOcAjezK-33" value="" style="ellipse;whiteSpace=wrap;html=1;aspect=fixed;fillColor=#000000;rotation=-90;container=0;strokeColor=none;" parent="8xQXMDj8ivw0jOcAjezK-1" vertex="1">
          <mxGeometry x="245.5" y="730.5" width="50" height="50" as="geometry" />
        </mxCell>
        <mxCell id="8xQXMDj8ivw0jOcAjezK-34" value="" style="ellipse;whiteSpace=wrap;html=1;aspect=fixed;fillColor=#000000;rotation=-90;movable=1;resizable=1;rotatable=1;deletable=1;editable=1;locked=0;connectable=1;container=0;strokeColor=none;" parent="8xQXMDj8ivw0jOcAjezK-1" vertex="1">
          <mxGeometry x="178.5" y="650.5" width="70" height="70" as="geometry" />
        </mxCell>
        <mxCell id="8xQXMDj8ivw0jOcAjezK-35" value="" style="ellipse;whiteSpace=wrap;html=1;aspect=fixed;fillColor=#000000;movable=1;resizable=1;rotatable=1;deletable=1;editable=1;connectable=1;rotation=-90;locked=0;container=0;strokeColor=none;" parent="8xQXMDj8ivw0jOcAjezK-1" vertex="1">
          <mxGeometry x="365.5" y="330.5" width="10" height="10" as="geometry" />
        </mxCell>
        <mxCell id="8xQXMDj8ivw0jOcAjezK-36" value="" style="ellipse;whiteSpace=wrap;html=1;aspect=fixed;fillColor=#000000;movable=1;resizable=1;rotatable=1;deletable=1;editable=1;connectable=1;rotation=-90;locked=0;container=0;strokeColor=none;" parent="8xQXMDj8ivw0jOcAjezK-1" vertex="1">
          <mxGeometry x="314.5" y="334.5" width="30" height="30" as="geometry" />
        </mxCell>
        <mxCell id="8xQXMDj8ivw0jOcAjezK-37" value="" style="ellipse;whiteSpace=wrap;html=1;aspect=fixed;fillColor=#000000;movable=1;resizable=1;rotatable=1;deletable=1;editable=1;connectable=1;rotation=-90;locked=0;container=0;strokeColor=none;" parent="8xQXMDj8ivw0jOcAjezK-1" vertex="1">
          <mxGeometry x="245.5" y="360.5" width="50" height="50" as="geometry" />
        </mxCell>
        <mxCell id="8xQXMDj8ivw0jOcAjezK-38" value="" style="ellipse;whiteSpace=wrap;html=1;aspect=fixed;fillColor=#000000;movable=1;resizable=1;rotatable=1;deletable=1;editable=1;connectable=1;rotation=-90;locked=0;container=0;strokeColor=none;" parent="8xQXMDj8ivw0jOcAjezK-1" vertex="1">
          <mxGeometry x="178.5" y="420.5" width="70" height="70" as="geometry" />
        </mxCell>
      </root>
    </mxGraphModel>
  </diagram>
  <diagram name="blue on black" id="1ZsvB2zb_TfOo25qTycG">
    <mxGraphModel dx="1036" dy="614" grid="1" gridSize="10" guides="1" tooltips="1" connect="1" arrows="1" fold="1" page="1" pageScale="1" pageWidth="827" pageHeight="1169" math="0" shadow="0">
      <root>
        <mxCell id="cx6gbe-5kwEJQMhBKTZS-0" />
        <mxCell id="cx6gbe-5kwEJQMhBKTZS-1" parent="cx6gbe-5kwEJQMhBKTZS-0" />
        <mxCell id="cx6gbe-5kwEJQMhBKTZS-2" value="" style="group;fillColor=#111111;container=0;" parent="cx6gbe-5kwEJQMhBKTZS-1" vertex="1" connectable="0">
          <mxGeometry x="140.5" y="220" width="591" height="591" as="geometry" />
        </mxCell>
        <mxCell id="cx6gbe-5kwEJQMhBKTZS-3" value="" style="ellipse;whiteSpace=wrap;html=1;aspect=fixed;fillColor=#41A4C3;sketch=0;rotation=0;movable=1;resizable=1;rotatable=1;deletable=1;editable=1;locked=0;connectable=1;container=0;strokeColor=none;" parent="cx6gbe-5kwEJQMhBKTZS-1" vertex="1">
          <mxGeometry x="335.5" y="220.5" width="90" height="90" as="geometry" />
        </mxCell>
        <mxCell id="cx6gbe-5kwEJQMhBKTZS-4" value="" style="ellipse;whiteSpace=wrap;html=1;aspect=fixed;fillColor=#41A4C3;movable=1;resizable=1;rotatable=1;deletable=1;editable=1;locked=0;connectable=1;container=0;strokeColor=none;" parent="cx6gbe-5kwEJQMhBKTZS-1" vertex="1">
          <mxGeometry x="140.5" y="445.5" width="10" height="10" as="geometry" />
        </mxCell>
        <mxCell id="cx6gbe-5kwEJQMhBKTZS-5" value="" style="ellipse;whiteSpace=wrap;html=1;aspect=fixed;fillColor=#41A4C3;movable=1;resizable=1;rotatable=1;deletable=1;editable=1;locked=0;connectable=1;container=0;strokeColor=none;" parent="cx6gbe-5kwEJQMhBKTZS-1" vertex="1">
          <mxGeometry x="144.5" y="394.5" width="30" height="30" as="geometry" />
        </mxCell>
        <mxCell id="cx6gbe-5kwEJQMhBKTZS-6" value="" style="ellipse;whiteSpace=wrap;html=1;aspect=fixed;fillColor=#41A4C3;movable=1;resizable=1;rotatable=1;deletable=1;editable=1;locked=0;connectable=1;container=0;strokeColor=none;" parent="cx6gbe-5kwEJQMhBKTZS-1" vertex="1">
          <mxGeometry x="170.5" y="325.5" width="50" height="50" as="geometry" />
        </mxCell>
        <mxCell id="cx6gbe-5kwEJQMhBKTZS-7" value="" style="ellipse;whiteSpace=wrap;html=1;aspect=fixed;fillColor=#41A4C3;movable=1;resizable=1;rotatable=1;deletable=1;editable=1;locked=0;connectable=1;container=0;strokeColor=none;" parent="cx6gbe-5kwEJQMhBKTZS-1" vertex="1">
          <mxGeometry x="230.5" y="258.5" width="70" height="70" as="geometry" />
        </mxCell>
        <mxCell id="cx6gbe-5kwEJQMhBKTZS-8" value="" style="ellipse;whiteSpace=wrap;html=1;aspect=fixed;fillColor=#41A4C3;movable=1;resizable=1;rotatable=1;deletable=1;editable=1;connectable=1;rotation=0;locked=0;container=0;strokeColor=none;" parent="cx6gbe-5kwEJQMhBKTZS-1" vertex="1">
          <mxGeometry x="610.5" y="445.5" width="10" height="10" as="geometry" />
        </mxCell>
        <mxCell id="cx6gbe-5kwEJQMhBKTZS-9" value="" style="ellipse;whiteSpace=wrap;html=1;aspect=fixed;fillColor=#41A4C3;movable=1;resizable=1;rotatable=1;deletable=1;editable=1;connectable=1;rotation=0;locked=0;container=0;strokeColor=none;" parent="cx6gbe-5kwEJQMhBKTZS-1" vertex="1">
          <mxGeometry x="586.5" y="394.5" width="30" height="30" as="geometry" />
        </mxCell>
        <mxCell id="cx6gbe-5kwEJQMhBKTZS-10" value="" style="ellipse;whiteSpace=wrap;html=1;aspect=fixed;fillColor=#41A4C3;movable=1;resizable=1;rotatable=1;deletable=1;editable=1;connectable=1;rotation=0;locked=0;container=0;strokeColor=none;" parent="cx6gbe-5kwEJQMhBKTZS-1" vertex="1">
          <mxGeometry x="540.5" y="325.5" width="50" height="50" as="geometry" />
        </mxCell>
        <mxCell id="cx6gbe-5kwEJQMhBKTZS-11" value="" style="ellipse;whiteSpace=wrap;html=1;aspect=fixed;fillColor=#41A4C3;movable=1;resizable=1;rotatable=1;deletable=1;editable=1;connectable=1;rotation=0;locked=0;container=0;strokeColor=none;" parent="cx6gbe-5kwEJQMhBKTZS-1" vertex="1">
          <mxGeometry x="460.5" y="258.5" width="70" height="70" as="geometry" />
        </mxCell>
        <mxCell id="cx6gbe-5kwEJQMhBKTZS-12" value="" style="ellipse;whiteSpace=wrap;html=1;aspect=fixed;fillColor=#41A4C3;sketch=0;rotation=90;movable=1;resizable=1;rotatable=1;deletable=1;editable=1;locked=0;connectable=1;container=0;strokeColor=none;" parent="cx6gbe-5kwEJQMhBKTZS-1" vertex="1">
          <mxGeometry x="641.5" y="415.5" width="90" height="90" as="geometry" />
        </mxCell>
        <mxCell id="cx6gbe-5kwEJQMhBKTZS-13" value="" style="ellipse;whiteSpace=wrap;html=1;aspect=fixed;fillColor=#41A4C3;rotation=90;movable=1;resizable=1;rotatable=1;deletable=1;editable=1;locked=0;connectable=1;container=0;strokeColor=none;" parent="cx6gbe-5kwEJQMhBKTZS-1" vertex="1">
          <mxGeometry x="495.5" y="220.5" width="10" height="10" as="geometry" />
        </mxCell>
        <mxCell id="cx6gbe-5kwEJQMhBKTZS-14" value="" style="ellipse;whiteSpace=wrap;html=1;aspect=fixed;fillColor=#41A4C3;rotation=90;movable=1;resizable=1;rotatable=1;deletable=1;editable=1;locked=0;connectable=1;container=0;strokeColor=none;" parent="cx6gbe-5kwEJQMhBKTZS-1" vertex="1">
          <mxGeometry x="527.5" y="224.5" width="30" height="30" as="geometry" />
        </mxCell>
        <mxCell id="cx6gbe-5kwEJQMhBKTZS-15" value="" style="ellipse;whiteSpace=wrap;html=1;aspect=fixed;fillColor=#41A4C3;rotation=90;movable=1;resizable=1;rotatable=1;deletable=1;editable=1;locked=0;connectable=1;container=0;strokeColor=none;" parent="cx6gbe-5kwEJQMhBKTZS-1" vertex="1">
          <mxGeometry x="576.5" y="250.5" width="50" height="50" as="geometry" />
        </mxCell>
        <mxCell id="cx6gbe-5kwEJQMhBKTZS-16" value="" style="ellipse;whiteSpace=wrap;html=1;aspect=fixed;fillColor=#41A4C3;rotation=90;movable=1;resizable=1;rotatable=1;deletable=1;editable=1;locked=0;connectable=1;container=0;strokeColor=none;" parent="cx6gbe-5kwEJQMhBKTZS-1" vertex="1">
          <mxGeometry x="623.5" y="310.5" width="70" height="70" as="geometry" />
        </mxCell>
        <mxCell id="cx6gbe-5kwEJQMhBKTZS-17" value="" style="ellipse;whiteSpace=wrap;html=1;aspect=fixed;fillColor=#41A4C3;movable=1;resizable=1;rotatable=1;deletable=1;editable=1;connectable=1;rotation=90;locked=0;container=0;strokeColor=none;" parent="cx6gbe-5kwEJQMhBKTZS-1" vertex="1">
          <mxGeometry x="496.5" y="690.5" width="10" height="10" as="geometry" />
        </mxCell>
        <mxCell id="cx6gbe-5kwEJQMhBKTZS-18" value="" style="ellipse;whiteSpace=wrap;html=1;aspect=fixed;fillColor=#41A4C3;movable=1;resizable=1;rotatable=1;deletable=1;editable=1;connectable=1;rotation=90;locked=0;container=0;strokeColor=none;" parent="cx6gbe-5kwEJQMhBKTZS-1" vertex="1">
          <mxGeometry x="527.5" y="666.5" width="30" height="30" as="geometry" />
        </mxCell>
        <mxCell id="cx6gbe-5kwEJQMhBKTZS-19" value="" style="ellipse;whiteSpace=wrap;html=1;aspect=fixed;fillColor=#41A4C3;movable=1;resizable=1;rotatable=1;deletable=1;editable=1;connectable=1;rotation=90;locked=0;container=0;strokeColor=none;" parent="cx6gbe-5kwEJQMhBKTZS-1" vertex="1">
          <mxGeometry x="576.5" y="620.5" width="50" height="50" as="geometry" />
        </mxCell>
        <mxCell id="cx6gbe-5kwEJQMhBKTZS-20" value="" style="ellipse;whiteSpace=wrap;html=1;aspect=fixed;fillColor=#41A4C3;movable=1;resizable=1;rotatable=1;deletable=1;editable=1;connectable=1;rotation=90;locked=0;container=0;strokeColor=none;" parent="cx6gbe-5kwEJQMhBKTZS-1" vertex="1">
          <mxGeometry x="623.5" y="540.5" width="70" height="70" as="geometry" />
        </mxCell>
        <mxCell id="cx6gbe-5kwEJQMhBKTZS-21" value="" style="ellipse;whiteSpace=wrap;html=1;aspect=fixed;fillColor=#41A4C3;sketch=0;rotation=-180;container=0;strokeColor=none;" parent="cx6gbe-5kwEJQMhBKTZS-1" vertex="1">
          <mxGeometry x="445.5" y="720.5" width="90" height="90" as="geometry" />
        </mxCell>
        <mxCell id="cx6gbe-5kwEJQMhBKTZS-22" value="" style="ellipse;whiteSpace=wrap;html=1;aspect=fixed;fillColor=#41A4C3;rotation=-180;movable=1;resizable=1;rotatable=1;deletable=1;editable=1;locked=0;connectable=1;container=0;strokeColor=none;" parent="cx6gbe-5kwEJQMhBKTZS-1" vertex="1">
          <mxGeometry x="720.5" y="575.5" width="10" height="10" as="geometry" />
        </mxCell>
        <mxCell id="cx6gbe-5kwEJQMhBKTZS-23" value="" style="ellipse;whiteSpace=wrap;html=1;aspect=fixed;fillColor=#41A4C3;rotation=-180;movable=1;resizable=1;rotatable=1;deletable=1;editable=1;locked=0;connectable=1;container=0;strokeColor=none;" parent="cx6gbe-5kwEJQMhBKTZS-1" vertex="1">
          <mxGeometry x="696.5" y="606.5" width="30" height="30" as="geometry" />
        </mxCell>
        <mxCell id="cx6gbe-5kwEJQMhBKTZS-24" value="" style="ellipse;whiteSpace=wrap;html=1;aspect=fixed;fillColor=#41A4C3;rotation=-180;movable=1;resizable=1;rotatable=1;deletable=1;editable=1;locked=0;connectable=1;container=0;strokeColor=none;" parent="cx6gbe-5kwEJQMhBKTZS-1" vertex="1">
          <mxGeometry x="650.5" y="655.5" width="50" height="50" as="geometry" />
        </mxCell>
        <mxCell id="cx6gbe-5kwEJQMhBKTZS-25" value="" style="ellipse;whiteSpace=wrap;html=1;aspect=fixed;fillColor=#41A4C3;rotation=-180;container=0;strokeColor=none;" parent="cx6gbe-5kwEJQMhBKTZS-1" vertex="1">
          <mxGeometry x="570.5" y="702.5" width="70" height="70" as="geometry" />
        </mxCell>
        <mxCell id="cx6gbe-5kwEJQMhBKTZS-26" value="" style="ellipse;whiteSpace=wrap;html=1;aspect=fixed;fillColor=#41A4C3;movable=1;resizable=1;rotatable=1;deletable=1;editable=1;connectable=1;rotation=-180;locked=0;container=0;strokeColor=none;" parent="cx6gbe-5kwEJQMhBKTZS-1" vertex="1">
          <mxGeometry x="250.5" y="575.5" width="10" height="10" as="geometry" />
        </mxCell>
        <mxCell id="cx6gbe-5kwEJQMhBKTZS-27" value="" style="ellipse;whiteSpace=wrap;html=1;aspect=fixed;fillColor=#41A4C3;movable=1;resizable=1;rotatable=1;deletable=1;editable=1;connectable=1;rotation=-180;locked=0;container=0;strokeColor=none;" parent="cx6gbe-5kwEJQMhBKTZS-1" vertex="1">
          <mxGeometry x="254.5" y="606.5" width="30" height="30" as="geometry" />
        </mxCell>
        <mxCell id="cx6gbe-5kwEJQMhBKTZS-28" value="" style="ellipse;whiteSpace=wrap;html=1;aspect=fixed;fillColor=#41A4C3;movable=1;resizable=1;rotatable=1;deletable=1;editable=1;connectable=1;rotation=-180;locked=0;container=0;strokeColor=none;" parent="cx6gbe-5kwEJQMhBKTZS-1" vertex="1">
          <mxGeometry x="280.5" y="655.5" width="50" height="50" as="geometry" />
        </mxCell>
        <mxCell id="cx6gbe-5kwEJQMhBKTZS-29" value="" style="ellipse;whiteSpace=wrap;html=1;aspect=fixed;fillColor=#41A4C3;movable=1;resizable=1;rotatable=1;deletable=1;editable=1;connectable=1;rotation=-180;container=0;strokeColor=none;" parent="cx6gbe-5kwEJQMhBKTZS-1" vertex="1">
          <mxGeometry x="340.5" y="702.5" width="70" height="70" as="geometry" />
        </mxCell>
        <mxCell id="cx6gbe-5kwEJQMhBKTZS-30" value="" style="ellipse;whiteSpace=wrap;html=1;aspect=fixed;fillColor=#41A4C3;sketch=0;rotation=-90;movable=1;resizable=1;rotatable=1;deletable=1;editable=1;locked=0;connectable=1;container=0;strokeColor=none;" parent="cx6gbe-5kwEJQMhBKTZS-1" vertex="1">
          <mxGeometry x="140.5" y="525.5" width="90" height="90" as="geometry" />
        </mxCell>
        <mxCell id="cx6gbe-5kwEJQMhBKTZS-31" value="" style="ellipse;whiteSpace=wrap;html=1;aspect=fixed;fillColor=#41A4C3;rotation=-90;container=0;strokeColor=none;" parent="cx6gbe-5kwEJQMhBKTZS-1" vertex="1">
          <mxGeometry x="365.5" y="800.5" width="10" height="10" as="geometry" />
        </mxCell>
        <mxCell id="cx6gbe-5kwEJQMhBKTZS-32" value="" style="ellipse;whiteSpace=wrap;html=1;aspect=fixed;fillColor=#41A4C3;rotation=-90;container=0;strokeColor=none;" parent="cx6gbe-5kwEJQMhBKTZS-1" vertex="1">
          <mxGeometry x="314.5" y="776.5" width="30" height="30" as="geometry" />
        </mxCell>
        <mxCell id="cx6gbe-5kwEJQMhBKTZS-33" value="" style="ellipse;whiteSpace=wrap;html=1;aspect=fixed;fillColor=#41A4C3;rotation=-90;container=0;strokeColor=none;" parent="cx6gbe-5kwEJQMhBKTZS-1" vertex="1">
          <mxGeometry x="245.5" y="730.5" width="50" height="50" as="geometry" />
        </mxCell>
        <mxCell id="cx6gbe-5kwEJQMhBKTZS-34" value="" style="ellipse;whiteSpace=wrap;html=1;aspect=fixed;fillColor=#41A4C3;rotation=-90;movable=1;resizable=1;rotatable=1;deletable=1;editable=1;locked=0;connectable=1;container=0;strokeColor=none;" parent="cx6gbe-5kwEJQMhBKTZS-1" vertex="1">
          <mxGeometry x="178.5" y="650.5" width="70" height="70" as="geometry" />
        </mxCell>
        <mxCell id="cx6gbe-5kwEJQMhBKTZS-35" value="" style="ellipse;whiteSpace=wrap;html=1;aspect=fixed;fillColor=#41A4C3;movable=1;resizable=1;rotatable=1;deletable=1;editable=1;connectable=1;rotation=-90;locked=0;container=0;strokeColor=none;" parent="cx6gbe-5kwEJQMhBKTZS-1" vertex="1">
          <mxGeometry x="365.5" y="330.5" width="10" height="10" as="geometry" />
        </mxCell>
        <mxCell id="cx6gbe-5kwEJQMhBKTZS-36" value="" style="ellipse;whiteSpace=wrap;html=1;aspect=fixed;fillColor=#41A4C3;movable=1;resizable=1;rotatable=1;deletable=1;editable=1;connectable=1;rotation=-90;locked=0;container=0;strokeColor=none;" parent="cx6gbe-5kwEJQMhBKTZS-1" vertex="1">
          <mxGeometry x="314.5" y="334.5" width="30" height="30" as="geometry" />
        </mxCell>
        <mxCell id="cx6gbe-5kwEJQMhBKTZS-37" value="" style="ellipse;whiteSpace=wrap;html=1;aspect=fixed;fillColor=#41A4C3;movable=1;resizable=1;rotatable=1;deletable=1;editable=1;connectable=1;rotation=-90;locked=0;container=0;strokeColor=none;" parent="cx6gbe-5kwEJQMhBKTZS-1" vertex="1">
          <mxGeometry x="245.5" y="360.5" width="50" height="50" as="geometry" />
        </mxCell>
        <mxCell id="cx6gbe-5kwEJQMhBKTZS-38" value="" style="ellipse;whiteSpace=wrap;html=1;aspect=fixed;fillColor=#41A4C3;movable=1;resizable=1;rotatable=1;deletable=1;editable=1;connectable=1;rotation=-90;locked=0;container=0;strokeColor=none;" parent="cx6gbe-5kwEJQMhBKTZS-1" vertex="1">
          <mxGeometry x="178.5" y="420.5" width="70" height="70" as="geometry" />
        </mxCell>
      </root>
    </mxGraphModel>
  </diagram>
  <diagram name="blue on white" id="NE3gK1a95UxpjhtzYe_e">
    <mxGraphModel dx="1036" dy="614" grid="1" gridSize="10" guides="1" tooltips="1" connect="1" arrows="1" fold="1" page="1" pageScale="1" pageWidth="827" pageHeight="1169" math="0" shadow="0">
      <root>
        <mxCell id="XftnxffBB7gVw9XOpUjU-0" />
        <mxCell id="XftnxffBB7gVw9XOpUjU-1" parent="XftnxffBB7gVw9XOpUjU-0" />
        <mxCell id="XftnxffBB7gVw9XOpUjU-2" value="" style="group;fillColor=#FFFFFF;container=0;" parent="XftnxffBB7gVw9XOpUjU-1" vertex="1" connectable="0">
          <mxGeometry x="140.5" y="220" width="591" height="591" as="geometry" />
        </mxCell>
        <mxCell id="XftnxffBB7gVw9XOpUjU-3" value="" style="ellipse;whiteSpace=wrap;html=1;aspect=fixed;fillColor=#41A4C3;sketch=0;rotation=0;movable=1;resizable=1;rotatable=1;deletable=1;editable=1;locked=0;connectable=1;container=0;strokeColor=none;" parent="XftnxffBB7gVw9XOpUjU-1" vertex="1">
          <mxGeometry x="335.5" y="220.5" width="90" height="90" as="geometry" />
        </mxCell>
        <mxCell id="XftnxffBB7gVw9XOpUjU-4" value="" style="ellipse;whiteSpace=wrap;html=1;aspect=fixed;fillColor=#41A4C3;movable=1;resizable=1;rotatable=1;deletable=1;editable=1;locked=0;connectable=1;container=0;strokeColor=none;" parent="XftnxffBB7gVw9XOpUjU-1" vertex="1">
          <mxGeometry x="140.5" y="445.5" width="10" height="10" as="geometry" />
        </mxCell>
        <mxCell id="XftnxffBB7gVw9XOpUjU-5" value="" style="ellipse;whiteSpace=wrap;html=1;aspect=fixed;fillColor=#41A4C3;movable=1;resizable=1;rotatable=1;deletable=1;editable=1;locked=0;connectable=1;container=0;strokeColor=none;" parent="XftnxffBB7gVw9XOpUjU-1" vertex="1">
          <mxGeometry x="144.5" y="394.5" width="30" height="30" as="geometry" />
        </mxCell>
        <mxCell id="XftnxffBB7gVw9XOpUjU-6" value="" style="ellipse;whiteSpace=wrap;html=1;aspect=fixed;fillColor=#41A4C3;movable=1;resizable=1;rotatable=1;deletable=1;editable=1;locked=0;connectable=1;container=0;strokeColor=none;" parent="XftnxffBB7gVw9XOpUjU-1" vertex="1">
          <mxGeometry x="170.5" y="325.5" width="50" height="50" as="geometry" />
        </mxCell>
        <mxCell id="XftnxffBB7gVw9XOpUjU-7" value="" style="ellipse;whiteSpace=wrap;html=1;aspect=fixed;fillColor=#41A4C3;movable=1;resizable=1;rotatable=1;deletable=1;editable=1;locked=0;connectable=1;container=0;strokeColor=none;" parent="XftnxffBB7gVw9XOpUjU-1" vertex="1">
          <mxGeometry x="230.5" y="258.5" width="70" height="70" as="geometry" />
        </mxCell>
        <mxCell id="XftnxffBB7gVw9XOpUjU-8" value="" style="ellipse;whiteSpace=wrap;html=1;aspect=fixed;fillColor=#41A4C3;movable=1;resizable=1;rotatable=1;deletable=1;editable=1;connectable=1;rotation=0;locked=0;container=0;strokeColor=none;" parent="XftnxffBB7gVw9XOpUjU-1" vertex="1">
          <mxGeometry x="610.5" y="445.5" width="10" height="10" as="geometry" />
        </mxCell>
        <mxCell id="XftnxffBB7gVw9XOpUjU-9" value="" style="ellipse;whiteSpace=wrap;html=1;aspect=fixed;fillColor=#41A4C3;movable=1;resizable=1;rotatable=1;deletable=1;editable=1;connectable=1;rotation=0;locked=0;container=0;strokeColor=none;" parent="XftnxffBB7gVw9XOpUjU-1" vertex="1">
          <mxGeometry x="586.5" y="394.5" width="30" height="30" as="geometry" />
        </mxCell>
        <mxCell id="XftnxffBB7gVw9XOpUjU-10" value="" style="ellipse;whiteSpace=wrap;html=1;aspect=fixed;fillColor=#41A4C3;movable=1;resizable=1;rotatable=1;deletable=1;editable=1;connectable=1;rotation=0;locked=0;container=0;strokeColor=none;" parent="XftnxffBB7gVw9XOpUjU-1" vertex="1">
          <mxGeometry x="540.5" y="325.5" width="50" height="50" as="geometry" />
        </mxCell>
        <mxCell id="XftnxffBB7gVw9XOpUjU-11" value="" style="ellipse;whiteSpace=wrap;html=1;aspect=fixed;fillColor=#41A4C3;movable=1;resizable=1;rotatable=1;deletable=1;editable=1;connectable=1;rotation=0;locked=0;container=0;strokeColor=none;" parent="XftnxffBB7gVw9XOpUjU-1" vertex="1">
          <mxGeometry x="460.5" y="258.5" width="70" height="70" as="geometry" />
        </mxCell>
        <mxCell id="XftnxffBB7gVw9XOpUjU-12" value="" style="ellipse;whiteSpace=wrap;html=1;aspect=fixed;fillColor=#41A4C3;sketch=0;rotation=90;movable=1;resizable=1;rotatable=1;deletable=1;editable=1;locked=0;connectable=1;container=0;strokeColor=none;" parent="XftnxffBB7gVw9XOpUjU-1" vertex="1">
          <mxGeometry x="641.5" y="415.5" width="90" height="90" as="geometry" />
        </mxCell>
        <mxCell id="XftnxffBB7gVw9XOpUjU-13" value="" style="ellipse;whiteSpace=wrap;html=1;aspect=fixed;fillColor=#41A4C3;rotation=90;movable=1;resizable=1;rotatable=1;deletable=1;editable=1;locked=0;connectable=1;container=0;strokeColor=none;" parent="XftnxffBB7gVw9XOpUjU-1" vertex="1">
          <mxGeometry x="495.5" y="220.5" width="10" height="10" as="geometry" />
        </mxCell>
        <mxCell id="XftnxffBB7gVw9XOpUjU-14" value="" style="ellipse;whiteSpace=wrap;html=1;aspect=fixed;fillColor=#41A4C3;rotation=90;movable=1;resizable=1;rotatable=1;deletable=1;editable=1;locked=0;connectable=1;container=0;strokeColor=none;" parent="XftnxffBB7gVw9XOpUjU-1" vertex="1">
          <mxGeometry x="527.5" y="224.5" width="30" height="30" as="geometry" />
        </mxCell>
        <mxCell id="XftnxffBB7gVw9XOpUjU-15" value="" style="ellipse;whiteSpace=wrap;html=1;aspect=fixed;fillColor=#41A4C3;rotation=90;movable=1;resizable=1;rotatable=1;deletable=1;editable=1;locked=0;connectable=1;container=0;strokeColor=none;" parent="XftnxffBB7gVw9XOpUjU-1" vertex="1">
          <mxGeometry x="576.5" y="250.5" width="50" height="50" as="geometry" />
        </mxCell>
        <mxCell id="XftnxffBB7gVw9XOpUjU-16" value="" style="ellipse;whiteSpace=wrap;html=1;aspect=fixed;fillColor=#41A4C3;rotation=90;movable=1;resizable=1;rotatable=1;deletable=1;editable=1;locked=0;connectable=1;container=0;strokeColor=none;" parent="XftnxffBB7gVw9XOpUjU-1" vertex="1">
          <mxGeometry x="623.5" y="310.5" width="70" height="70" as="geometry" />
        </mxCell>
        <mxCell id="XftnxffBB7gVw9XOpUjU-17" value="" style="ellipse;whiteSpace=wrap;html=1;aspect=fixed;fillColor=#41A4C3;movable=1;resizable=1;rotatable=1;deletable=1;editable=1;connectable=1;rotation=90;locked=0;container=0;strokeColor=none;" parent="XftnxffBB7gVw9XOpUjU-1" vertex="1">
          <mxGeometry x="496.5" y="690.5" width="10" height="10" as="geometry" />
        </mxCell>
        <mxCell id="XftnxffBB7gVw9XOpUjU-18" value="" style="ellipse;whiteSpace=wrap;html=1;aspect=fixed;fillColor=#41A4C3;movable=1;resizable=1;rotatable=1;deletable=1;editable=1;connectable=1;rotation=90;locked=0;container=0;strokeColor=none;" parent="XftnxffBB7gVw9XOpUjU-1" vertex="1">
          <mxGeometry x="527.5" y="666.5" width="30" height="30" as="geometry" />
        </mxCell>
        <mxCell id="XftnxffBB7gVw9XOpUjU-19" value="" style="ellipse;whiteSpace=wrap;html=1;aspect=fixed;fillColor=#41A4C3;movable=1;resizable=1;rotatable=1;deletable=1;editable=1;connectable=1;rotation=90;locked=0;container=0;strokeColor=none;" parent="XftnxffBB7gVw9XOpUjU-1" vertex="1">
          <mxGeometry x="576.5" y="620.5" width="50" height="50" as="geometry" />
        </mxCell>
        <mxCell id="XftnxffBB7gVw9XOpUjU-20" value="" style="ellipse;whiteSpace=wrap;html=1;aspect=fixed;fillColor=#41A4C3;movable=1;resizable=1;rotatable=1;deletable=1;editable=1;connectable=1;rotation=90;locked=0;container=0;strokeColor=none;" parent="XftnxffBB7gVw9XOpUjU-1" vertex="1">
          <mxGeometry x="623.5" y="540.5" width="70" height="70" as="geometry" />
        </mxCell>
        <mxCell id="XftnxffBB7gVw9XOpUjU-21" value="" style="ellipse;whiteSpace=wrap;html=1;aspect=fixed;fillColor=#41A4C3;sketch=0;rotation=-180;container=0;strokeColor=none;" parent="XftnxffBB7gVw9XOpUjU-1" vertex="1">
          <mxGeometry x="445.5" y="720.5" width="90" height="90" as="geometry" />
        </mxCell>
        <mxCell id="XftnxffBB7gVw9XOpUjU-22" value="" style="ellipse;whiteSpace=wrap;html=1;aspect=fixed;fillColor=#41A4C3;rotation=-180;movable=1;resizable=1;rotatable=1;deletable=1;editable=1;locked=0;connectable=1;container=0;strokeColor=none;" parent="XftnxffBB7gVw9XOpUjU-1" vertex="1">
          <mxGeometry x="720.5" y="575.5" width="10" height="10" as="geometry" />
        </mxCell>
        <mxCell id="XftnxffBB7gVw9XOpUjU-23" value="" style="ellipse;whiteSpace=wrap;html=1;aspect=fixed;fillColor=#41A4C3;rotation=-180;movable=1;resizable=1;rotatable=1;deletable=1;editable=1;locked=0;connectable=1;container=0;strokeColor=none;" parent="XftnxffBB7gVw9XOpUjU-1" vertex="1">
          <mxGeometry x="696.5" y="606.5" width="30" height="30" as="geometry" />
        </mxCell>
        <mxCell id="XftnxffBB7gVw9XOpUjU-24" value="" style="ellipse;whiteSpace=wrap;html=1;aspect=fixed;fillColor=#41A4C3;rotation=-180;movable=1;resizable=1;rotatable=1;deletable=1;editable=1;locked=0;connectable=1;container=0;strokeColor=none;" parent="XftnxffBB7gVw9XOpUjU-1" vertex="1">
          <mxGeometry x="650.5" y="655.5" width="50" height="50" as="geometry" />
        </mxCell>
        <mxCell id="XftnxffBB7gVw9XOpUjU-25" value="" style="ellipse;whiteSpace=wrap;html=1;aspect=fixed;fillColor=#41A4C3;rotation=-180;container=0;strokeColor=none;" parent="XftnxffBB7gVw9XOpUjU-1" vertex="1">
          <mxGeometry x="570.5" y="702.5" width="70" height="70" as="geometry" />
        </mxCell>
        <mxCell id="XftnxffBB7gVw9XOpUjU-26" value="" style="ellipse;whiteSpace=wrap;html=1;aspect=fixed;fillColor=#41A4C3;movable=1;resizable=1;rotatable=1;deletable=1;editable=1;connectable=1;rotation=-180;locked=0;container=0;strokeColor=none;" parent="XftnxffBB7gVw9XOpUjU-1" vertex="1">
          <mxGeometry x="250.5" y="575.5" width="10" height="10" as="geometry" />
        </mxCell>
        <mxCell id="XftnxffBB7gVw9XOpUjU-27" value="" style="ellipse;whiteSpace=wrap;html=1;aspect=fixed;fillColor=#41A4C3;movable=1;resizable=1;rotatable=1;deletable=1;editable=1;connectable=1;rotation=-180;locked=0;container=0;strokeColor=none;" parent="XftnxffBB7gVw9XOpUjU-1" vertex="1">
          <mxGeometry x="254.5" y="606.5" width="30" height="30" as="geometry" />
        </mxCell>
        <mxCell id="XftnxffBB7gVw9XOpUjU-28" value="" style="ellipse;whiteSpace=wrap;html=1;aspect=fixed;fillColor=#41A4C3;movable=1;resizable=1;rotatable=1;deletable=1;editable=1;connectable=1;rotation=-180;locked=0;container=0;strokeColor=none;" parent="XftnxffBB7gVw9XOpUjU-1" vertex="1">
          <mxGeometry x="280.5" y="655.5" width="50" height="50" as="geometry" />
        </mxCell>
        <mxCell id="XftnxffBB7gVw9XOpUjU-29" value="" style="ellipse;whiteSpace=wrap;html=1;aspect=fixed;fillColor=#41A4C3;movable=1;resizable=1;rotatable=1;deletable=1;editable=1;connectable=1;rotation=-180;container=0;strokeColor=none;" parent="XftnxffBB7gVw9XOpUjU-1" vertex="1">
          <mxGeometry x="340.5" y="702.5" width="70" height="70" as="geometry" />
        </mxCell>
        <mxCell id="XftnxffBB7gVw9XOpUjU-30" value="" style="ellipse;whiteSpace=wrap;html=1;aspect=fixed;fillColor=#41A4C3;sketch=0;rotation=-90;movable=1;resizable=1;rotatable=1;deletable=1;editable=1;locked=0;connectable=1;container=0;strokeColor=none;" parent="XftnxffBB7gVw9XOpUjU-1" vertex="1">
          <mxGeometry x="140.5" y="525.5" width="90" height="90" as="geometry" />
        </mxCell>
        <mxCell id="XftnxffBB7gVw9XOpUjU-31" value="" style="ellipse;whiteSpace=wrap;html=1;aspect=fixed;fillColor=#41A4C3;rotation=-90;container=0;strokeColor=none;" parent="XftnxffBB7gVw9XOpUjU-1" vertex="1">
          <mxGeometry x="365.5" y="800.5" width="10" height="10" as="geometry" />
        </mxCell>
        <mxCell id="XftnxffBB7gVw9XOpUjU-32" value="" style="ellipse;whiteSpace=wrap;html=1;aspect=fixed;fillColor=#41A4C3;rotation=-90;container=0;strokeColor=none;" parent="XftnxffBB7gVw9XOpUjU-1" vertex="1">
          <mxGeometry x="314.5" y="776.5" width="30" height="30" as="geometry" />
        </mxCell>
        <mxCell id="XftnxffBB7gVw9XOpUjU-33" value="" style="ellipse;whiteSpace=wrap;html=1;aspect=fixed;fillColor=#41A4C3;rotation=-90;container=0;strokeColor=none;" parent="XftnxffBB7gVw9XOpUjU-1" vertex="1">
          <mxGeometry x="245.5" y="730.5" width="50" height="50" as="geometry" />
        </mxCell>
        <mxCell id="XftnxffBB7gVw9XOpUjU-34" value="" style="ellipse;whiteSpace=wrap;html=1;aspect=fixed;fillColor=#41A4C3;rotation=-90;movable=1;resizable=1;rotatable=1;deletable=1;editable=1;locked=0;connectable=1;container=0;strokeColor=none;" parent="XftnxffBB7gVw9XOpUjU-1" vertex="1">
          <mxGeometry x="178.5" y="650.5" width="70" height="70" as="geometry" />
        </mxCell>
        <mxCell id="XftnxffBB7gVw9XOpUjU-35" value="" style="ellipse;whiteSpace=wrap;html=1;aspect=fixed;fillColor=#41A4C3;movable=1;resizable=1;rotatable=1;deletable=1;editable=1;connectable=1;rotation=-90;locked=0;container=0;strokeColor=none;" parent="XftnxffBB7gVw9XOpUjU-1" vertex="1">
          <mxGeometry x="365.5" y="330.5" width="10" height="10" as="geometry" />
        </mxCell>
        <mxCell id="XftnxffBB7gVw9XOpUjU-36" value="" style="ellipse;whiteSpace=wrap;html=1;aspect=fixed;fillColor=#41A4C3;movable=1;resizable=1;rotatable=1;deletable=1;editable=1;connectable=1;rotation=-90;locked=0;container=0;strokeColor=none;" parent="XftnxffBB7gVw9XOpUjU-1" vertex="1">
          <mxGeometry x="314.5" y="334.5" width="30" height="30" as="geometry" />
        </mxCell>
        <mxCell id="XftnxffBB7gVw9XOpUjU-37" value="" style="ellipse;whiteSpace=wrap;html=1;aspect=fixed;fillColor=#41A4C3;movable=1;resizable=1;rotatable=1;deletable=1;editable=1;connectable=1;rotation=-90;locked=0;container=0;strokeColor=none;" parent="XftnxffBB7gVw9XOpUjU-1" vertex="1">
          <mxGeometry x="245.5" y="360.5" width="50" height="50" as="geometry" />
        </mxCell>
        <mxCell id="XftnxffBB7gVw9XOpUjU-38" value="" style="ellipse;whiteSpace=wrap;html=1;aspect=fixed;fillColor=#41A4C3;movable=1;resizable=1;rotatable=1;deletable=1;editable=1;connectable=1;rotation=-90;locked=0;container=0;strokeColor=none;" parent="XftnxffBB7gVw9XOpUjU-1" vertex="1">
          <mxGeometry x="178.5" y="420.5" width="70" height="70" as="geometry" />
        </mxCell>
      </root>
    </mxGraphModel>
  </diagram>
  <diagram name="blue on white text" id="kO6WfwNW7ysdzVrYOG9F">
    <mxGraphModel dx="2899" dy="1228" grid="1" gridSize="10" guides="1" tooltips="1" connect="1" arrows="1" fold="1" page="1" pageScale="1" pageWidth="827" pageHeight="1169" math="0" shadow="0">
      <root>
        <mxCell id="DZUMJmK3dlQrP4KBg6jP-0" />
        <mxCell id="DZUMJmK3dlQrP4KBg6jP-1" parent="DZUMJmK3dlQrP4KBg6jP-0" />
        <mxCell id="DZUMJmK3dlQrP4KBg6jP-2" value="" style="rounded=1;whiteSpace=wrap;html=1;strokeColor=none;fillColor=#FFFFFF;arcSize=9;" vertex="1" parent="DZUMJmK3dlQrP4KBg6jP-1">
          <mxGeometry x="-258.5" y="170" width="1400" height="920" as="geometry" />
        </mxCell>
        <mxCell id="DZUMJmK3dlQrP4KBg6jP-3" value="" style="ellipse;whiteSpace=wrap;html=1;aspect=fixed;fillColor=#41A4C3;sketch=0;rotation=0;movable=1;resizable=1;rotatable=1;deletable=1;editable=1;locked=0;connectable=1;container=0;strokeColor=none;" vertex="1" parent="DZUMJmK3dlQrP4KBg6jP-1">
          <mxGeometry x="335.5" y="220.5" width="90" height="90" as="geometry" />
        </mxCell>
        <mxCell id="DZUMJmK3dlQrP4KBg6jP-4" value="" style="ellipse;whiteSpace=wrap;html=1;aspect=fixed;fillColor=#41A4C3;movable=1;resizable=1;rotatable=1;deletable=1;editable=1;locked=0;connectable=1;container=0;strokeColor=none;" vertex="1" parent="DZUMJmK3dlQrP4KBg6jP-1">
          <mxGeometry x="140.5" y="445.5" width="10" height="10" as="geometry" />
        </mxCell>
        <mxCell id="DZUMJmK3dlQrP4KBg6jP-5" value="" style="ellipse;whiteSpace=wrap;html=1;aspect=fixed;fillColor=#41A4C3;movable=1;resizable=1;rotatable=1;deletable=1;editable=1;locked=0;connectable=1;container=0;strokeColor=none;" vertex="1" parent="DZUMJmK3dlQrP4KBg6jP-1">
          <mxGeometry x="144.5" y="394.5" width="30" height="30" as="geometry" />
        </mxCell>
        <mxCell id="DZUMJmK3dlQrP4KBg6jP-6" value="" style="ellipse;whiteSpace=wrap;html=1;aspect=fixed;fillColor=#41A4C3;movable=1;resizable=1;rotatable=1;deletable=1;editable=1;locked=0;connectable=1;container=0;strokeColor=none;" vertex="1" parent="DZUMJmK3dlQrP4KBg6jP-1">
          <mxGeometry x="170.5" y="325.5" width="50" height="50" as="geometry" />
        </mxCell>
        <mxCell id="DZUMJmK3dlQrP4KBg6jP-7" value="" style="ellipse;whiteSpace=wrap;html=1;aspect=fixed;fillColor=#41A4C3;movable=1;resizable=1;rotatable=1;deletable=1;editable=1;locked=0;connectable=1;container=0;strokeColor=none;" vertex="1" parent="DZUMJmK3dlQrP4KBg6jP-1">
          <mxGeometry x="230.5" y="258.5" width="70" height="70" as="geometry" />
        </mxCell>
        <mxCell id="DZUMJmK3dlQrP4KBg6jP-8" value="" style="ellipse;whiteSpace=wrap;html=1;aspect=fixed;fillColor=#41A4C3;movable=1;resizable=1;rotatable=1;deletable=1;editable=1;connectable=1;rotation=0;locked=0;container=0;strokeColor=none;" vertex="1" parent="DZUMJmK3dlQrP4KBg6jP-1">
          <mxGeometry x="610.5" y="445.5" width="10" height="10" as="geometry" />
        </mxCell>
        <mxCell id="DZUMJmK3dlQrP4KBg6jP-9" value="" style="ellipse;whiteSpace=wrap;html=1;aspect=fixed;fillColor=#41A4C3;movable=1;resizable=1;rotatable=1;deletable=1;editable=1;connectable=1;rotation=0;locked=0;container=0;strokeColor=none;" vertex="1" parent="DZUMJmK3dlQrP4KBg6jP-1">
          <mxGeometry x="586.5" y="394.5" width="30" height="30" as="geometry" />
        </mxCell>
        <mxCell id="DZUMJmK3dlQrP4KBg6jP-10" value="" style="ellipse;whiteSpace=wrap;html=1;aspect=fixed;fillColor=#41A4C3;movable=1;resizable=1;rotatable=1;deletable=1;editable=1;connectable=1;rotation=0;locked=0;container=0;strokeColor=none;" vertex="1" parent="DZUMJmK3dlQrP4KBg6jP-1">
          <mxGeometry x="540.5" y="325.5" width="50" height="50" as="geometry" />
        </mxCell>
        <mxCell id="DZUMJmK3dlQrP4KBg6jP-11" value="" style="ellipse;whiteSpace=wrap;html=1;aspect=fixed;fillColor=#41A4C3;movable=1;resizable=1;rotatable=1;deletable=1;editable=1;connectable=1;rotation=0;locked=0;container=0;strokeColor=none;" vertex="1" parent="DZUMJmK3dlQrP4KBg6jP-1">
          <mxGeometry x="460.5" y="258.5" width="70" height="70" as="geometry" />
        </mxCell>
        <mxCell id="DZUMJmK3dlQrP4KBg6jP-12" value="" style="ellipse;whiteSpace=wrap;html=1;aspect=fixed;fillColor=#41A4C3;sketch=0;rotation=90;movable=1;resizable=1;rotatable=1;deletable=1;editable=1;locked=0;connectable=1;container=0;strokeColor=none;" vertex="1" parent="DZUMJmK3dlQrP4KBg6jP-1">
          <mxGeometry x="641.5" y="415.5" width="90" height="90" as="geometry" />
        </mxCell>
        <mxCell id="DZUMJmK3dlQrP4KBg6jP-13" value="" style="ellipse;whiteSpace=wrap;html=1;aspect=fixed;fillColor=#41A4C3;rotation=90;movable=1;resizable=1;rotatable=1;deletable=1;editable=1;locked=0;connectable=1;container=0;strokeColor=none;" vertex="1" parent="DZUMJmK3dlQrP4KBg6jP-1">
          <mxGeometry x="495.5" y="220.5" width="10" height="10" as="geometry" />
        </mxCell>
        <mxCell id="DZUMJmK3dlQrP4KBg6jP-14" value="" style="ellipse;whiteSpace=wrap;html=1;aspect=fixed;fillColor=#41A4C3;rotation=90;movable=1;resizable=1;rotatable=1;deletable=1;editable=1;locked=0;connectable=1;container=0;strokeColor=none;" vertex="1" parent="DZUMJmK3dlQrP4KBg6jP-1">
          <mxGeometry x="527.5" y="224.5" width="30" height="30" as="geometry" />
        </mxCell>
        <mxCell id="DZUMJmK3dlQrP4KBg6jP-15" value="" style="ellipse;whiteSpace=wrap;html=1;aspect=fixed;fillColor=#41A4C3;rotation=90;movable=1;resizable=1;rotatable=1;deletable=1;editable=1;locked=0;connectable=1;container=0;strokeColor=none;" vertex="1" parent="DZUMJmK3dlQrP4KBg6jP-1">
          <mxGeometry x="576.5" y="250.5" width="50" height="50" as="geometry" />
        </mxCell>
        <mxCell id="DZUMJmK3dlQrP4KBg6jP-16" value="" style="ellipse;whiteSpace=wrap;html=1;aspect=fixed;fillColor=#41A4C3;rotation=90;movable=1;resizable=1;rotatable=1;deletable=1;editable=1;locked=0;connectable=1;container=0;strokeColor=none;" vertex="1" parent="DZUMJmK3dlQrP4KBg6jP-1">
          <mxGeometry x="623.5" y="310.5" width="70" height="70" as="geometry" />
        </mxCell>
        <mxCell id="DZUMJmK3dlQrP4KBg6jP-17" value="" style="ellipse;whiteSpace=wrap;html=1;aspect=fixed;fillColor=#41A4C3;movable=1;resizable=1;rotatable=1;deletable=1;editable=1;connectable=1;rotation=90;locked=0;container=0;strokeColor=none;" vertex="1" parent="DZUMJmK3dlQrP4KBg6jP-1">
          <mxGeometry x="496.5" y="690.5" width="10" height="10" as="geometry" />
        </mxCell>
        <mxCell id="DZUMJmK3dlQrP4KBg6jP-18" value="" style="ellipse;whiteSpace=wrap;html=1;aspect=fixed;fillColor=#41A4C3;movable=1;resizable=1;rotatable=1;deletable=1;editable=1;connectable=1;rotation=90;locked=0;container=0;strokeColor=none;" vertex="1" parent="DZUMJmK3dlQrP4KBg6jP-1">
          <mxGeometry x="527.5" y="666.5" width="30" height="30" as="geometry" />
        </mxCell>
        <mxCell id="DZUMJmK3dlQrP4KBg6jP-19" value="" style="ellipse;whiteSpace=wrap;html=1;aspect=fixed;fillColor=#41A4C3;movable=1;resizable=1;rotatable=1;deletable=1;editable=1;connectable=1;rotation=90;locked=0;container=0;strokeColor=none;" vertex="1" parent="DZUMJmK3dlQrP4KBg6jP-1">
          <mxGeometry x="576.5" y="620.5" width="50" height="50" as="geometry" />
        </mxCell>
        <mxCell id="DZUMJmK3dlQrP4KBg6jP-20" value="" style="ellipse;whiteSpace=wrap;html=1;aspect=fixed;fillColor=#41A4C3;movable=1;resizable=1;rotatable=1;deletable=1;editable=1;connectable=1;rotation=90;locked=0;container=0;strokeColor=none;" vertex="1" parent="DZUMJmK3dlQrP4KBg6jP-1">
          <mxGeometry x="623.5" y="540.5" width="70" height="70" as="geometry" />
        </mxCell>
        <mxCell id="DZUMJmK3dlQrP4KBg6jP-21" value="" style="ellipse;whiteSpace=wrap;html=1;aspect=fixed;fillColor=#41A4C3;sketch=0;rotation=-180;container=0;strokeColor=none;" vertex="1" parent="DZUMJmK3dlQrP4KBg6jP-1">
          <mxGeometry x="445.5" y="720.5" width="90" height="90" as="geometry" />
        </mxCell>
        <mxCell id="DZUMJmK3dlQrP4KBg6jP-22" value="" style="ellipse;whiteSpace=wrap;html=1;aspect=fixed;fillColor=#41A4C3;rotation=-180;movable=1;resizable=1;rotatable=1;deletable=1;editable=1;locked=0;connectable=1;container=0;strokeColor=none;" vertex="1" parent="DZUMJmK3dlQrP4KBg6jP-1">
          <mxGeometry x="720.5" y="575.5" width="10" height="10" as="geometry" />
        </mxCell>
        <mxCell id="DZUMJmK3dlQrP4KBg6jP-23" value="" style="ellipse;whiteSpace=wrap;html=1;aspect=fixed;fillColor=#41A4C3;rotation=-180;movable=1;resizable=1;rotatable=1;deletable=1;editable=1;locked=0;connectable=1;container=0;strokeColor=none;" vertex="1" parent="DZUMJmK3dlQrP4KBg6jP-1">
          <mxGeometry x="696.5" y="606.5" width="30" height="30" as="geometry" />
        </mxCell>
        <mxCell id="DZUMJmK3dlQrP4KBg6jP-24" value="" style="ellipse;whiteSpace=wrap;html=1;aspect=fixed;fillColor=#41A4C3;rotation=-180;movable=1;resizable=1;rotatable=1;deletable=1;editable=1;locked=0;connectable=1;container=0;strokeColor=none;" vertex="1" parent="DZUMJmK3dlQrP4KBg6jP-1">
          <mxGeometry x="650.5" y="655.5" width="50" height="50" as="geometry" />
        </mxCell>
        <mxCell id="DZUMJmK3dlQrP4KBg6jP-25" value="" style="ellipse;whiteSpace=wrap;html=1;aspect=fixed;fillColor=#41A4C3;rotation=-180;container=0;strokeColor=none;" vertex="1" parent="DZUMJmK3dlQrP4KBg6jP-1">
          <mxGeometry x="570.5" y="702.5" width="70" height="70" as="geometry" />
        </mxCell>
        <mxCell id="DZUMJmK3dlQrP4KBg6jP-26" value="" style="ellipse;whiteSpace=wrap;html=1;aspect=fixed;fillColor=#41A4C3;movable=1;resizable=1;rotatable=1;deletable=1;editable=1;connectable=1;rotation=-180;locked=0;container=0;strokeColor=none;" vertex="1" parent="DZUMJmK3dlQrP4KBg6jP-1">
          <mxGeometry x="250.5" y="575.5" width="10" height="10" as="geometry" />
        </mxCell>
        <mxCell id="DZUMJmK3dlQrP4KBg6jP-27" value="" style="ellipse;whiteSpace=wrap;html=1;aspect=fixed;fillColor=#41A4C3;movable=1;resizable=1;rotatable=1;deletable=1;editable=1;connectable=1;rotation=-180;locked=0;container=0;strokeColor=none;" vertex="1" parent="DZUMJmK3dlQrP4KBg6jP-1">
          <mxGeometry x="254.5" y="606.5" width="30" height="30" as="geometry" />
        </mxCell>
        <mxCell id="DZUMJmK3dlQrP4KBg6jP-28" value="" style="ellipse;whiteSpace=wrap;html=1;aspect=fixed;fillColor=#41A4C3;movable=1;resizable=1;rotatable=1;deletable=1;editable=1;connectable=1;rotation=-180;locked=0;container=0;strokeColor=none;" vertex="1" parent="DZUMJmK3dlQrP4KBg6jP-1">
          <mxGeometry x="280.5" y="655.5" width="50" height="50" as="geometry" />
        </mxCell>
        <mxCell id="DZUMJmK3dlQrP4KBg6jP-29" value="" style="ellipse;whiteSpace=wrap;html=1;aspect=fixed;fillColor=#41A4C3;movable=1;resizable=1;rotatable=1;deletable=1;editable=1;connectable=1;rotation=-180;container=0;strokeColor=none;" vertex="1" parent="DZUMJmK3dlQrP4KBg6jP-1">
          <mxGeometry x="340.5" y="702.5" width="70" height="70" as="geometry" />
        </mxCell>
        <mxCell id="DZUMJmK3dlQrP4KBg6jP-30" value="" style="ellipse;whiteSpace=wrap;html=1;aspect=fixed;fillColor=#41A4C3;sketch=0;rotation=-90;movable=1;resizable=1;rotatable=1;deletable=1;editable=1;locked=0;connectable=1;container=0;strokeColor=none;" vertex="1" parent="DZUMJmK3dlQrP4KBg6jP-1">
          <mxGeometry x="140.5" y="525.5" width="90" height="90" as="geometry" />
        </mxCell>
        <mxCell id="DZUMJmK3dlQrP4KBg6jP-31" value="" style="ellipse;whiteSpace=wrap;html=1;aspect=fixed;fillColor=#41A4C3;rotation=-90;container=0;strokeColor=none;" vertex="1" parent="DZUMJmK3dlQrP4KBg6jP-1">
          <mxGeometry x="365.5" y="800.5" width="10" height="10" as="geometry" />
        </mxCell>
        <mxCell id="DZUMJmK3dlQrP4KBg6jP-32" value="" style="ellipse;whiteSpace=wrap;html=1;aspect=fixed;fillColor=#41A4C3;rotation=-90;container=0;strokeColor=none;" vertex="1" parent="DZUMJmK3dlQrP4KBg6jP-1">
          <mxGeometry x="314.5" y="776.5" width="30" height="30" as="geometry" />
        </mxCell>
        <mxCell id="DZUMJmK3dlQrP4KBg6jP-33" value="" style="ellipse;whiteSpace=wrap;html=1;aspect=fixed;fillColor=#41A4C3;rotation=-90;container=0;strokeColor=none;" vertex="1" parent="DZUMJmK3dlQrP4KBg6jP-1">
          <mxGeometry x="245.5" y="730.5" width="50" height="50" as="geometry" />
        </mxCell>
        <mxCell id="DZUMJmK3dlQrP4KBg6jP-34" value="" style="ellipse;whiteSpace=wrap;html=1;aspect=fixed;fillColor=#41A4C3;rotation=-90;movable=1;resizable=1;rotatable=1;deletable=1;editable=1;locked=0;connectable=1;container=0;strokeColor=none;" vertex="1" parent="DZUMJmK3dlQrP4KBg6jP-1">
          <mxGeometry x="178.5" y="650.5" width="70" height="70" as="geometry" />
        </mxCell>
        <mxCell id="DZUMJmK3dlQrP4KBg6jP-35" value="" style="ellipse;whiteSpace=wrap;html=1;aspect=fixed;fillColor=#41A4C3;movable=1;resizable=1;rotatable=1;deletable=1;editable=1;connectable=1;rotation=-90;locked=0;container=0;strokeColor=none;" vertex="1" parent="DZUMJmK3dlQrP4KBg6jP-1">
          <mxGeometry x="365.5" y="330.5" width="10" height="10" as="geometry" />
        </mxCell>
        <mxCell id="DZUMJmK3dlQrP4KBg6jP-36" value="" style="ellipse;whiteSpace=wrap;html=1;aspect=fixed;fillColor=#41A4C3;movable=1;resizable=1;rotatable=1;deletable=1;editable=1;connectable=1;rotation=-90;locked=0;container=0;strokeColor=none;" vertex="1" parent="DZUMJmK3dlQrP4KBg6jP-1">
          <mxGeometry x="314.5" y="334.5" width="30" height="30" as="geometry" />
        </mxCell>
        <mxCell id="DZUMJmK3dlQrP4KBg6jP-37" value="" style="ellipse;whiteSpace=wrap;html=1;aspect=fixed;fillColor=#41A4C3;movable=1;resizable=1;rotatable=1;deletable=1;editable=1;connectable=1;rotation=-90;locked=0;container=0;strokeColor=none;" vertex="1" parent="DZUMJmK3dlQrP4KBg6jP-1">
          <mxGeometry x="245.5" y="360.5" width="50" height="50" as="geometry" />
        </mxCell>
        <mxCell id="DZUMJmK3dlQrP4KBg6jP-38" value="" style="ellipse;whiteSpace=wrap;html=1;aspect=fixed;fillColor=#41A4C3;movable=1;resizable=1;rotatable=1;deletable=1;editable=1;connectable=1;rotation=-90;locked=0;container=0;strokeColor=none;" vertex="1" parent="DZUMJmK3dlQrP4KBg6jP-1">
          <mxGeometry x="178.5" y="420.5" width="70" height="70" as="geometry" />
        </mxCell>
        <mxCell id="DZUMJmK3dlQrP4KBg6jP-39" value="Davelight" style="text;html=1;strokeColor=none;fillColor=none;align=center;verticalAlign=middle;whiteSpace=wrap;rounded=0;fontColor=#58d5d3;fontFamily=COCOGOOSE;fontSize=160;" vertex="1" parent="DZUMJmK3dlQrP4KBg6jP-1">
          <mxGeometry x="-257" y="810" width="1400" height="280" as="geometry" />
        </mxCell>
      </root>
    </mxGraphModel>
  </diagram>
  <diagram name="blue on black text" id="VzPEflJWoNW3y3eG3Sa-">
    <mxGraphModel dx="3417" dy="1535" grid="1" gridSize="10" guides="1" tooltips="1" connect="1" arrows="1" fold="1" page="1" pageScale="1" pageWidth="827" pageHeight="1169" math="0" shadow="0">
      <root>
        <mxCell id="_MAfNQt4T6J0QSIAHM2M-0" />
        <mxCell id="_MAfNQt4T6J0QSIAHM2M-1" parent="_MAfNQt4T6J0QSIAHM2M-0" />
        <mxCell id="_MAfNQt4T6J0QSIAHM2M-2" value="" style="rounded=1;whiteSpace=wrap;html=1;strokeColor=none;fillColor=#000000;arcSize=9;" vertex="1" parent="_MAfNQt4T6J0QSIAHM2M-1">
          <mxGeometry x="-258.5" y="170" width="1400" height="920" as="geometry" />
        </mxCell>
        <mxCell id="_MAfNQt4T6J0QSIAHM2M-3" value="" style="ellipse;whiteSpace=wrap;html=1;aspect=fixed;fillColor=#41A4C3;sketch=0;rotation=0;movable=1;resizable=1;rotatable=1;deletable=1;editable=1;locked=0;connectable=1;container=0;strokeColor=none;" vertex="1" parent="_MAfNQt4T6J0QSIAHM2M-1">
          <mxGeometry x="335.5" y="220.5" width="90" height="90" as="geometry" />
        </mxCell>
        <mxCell id="_MAfNQt4T6J0QSIAHM2M-4" value="" style="ellipse;whiteSpace=wrap;html=1;aspect=fixed;fillColor=#41A4C3;movable=1;resizable=1;rotatable=1;deletable=1;editable=1;locked=0;connectable=1;container=0;strokeColor=none;" vertex="1" parent="_MAfNQt4T6J0QSIAHM2M-1">
          <mxGeometry x="140.5" y="445.5" width="10" height="10" as="geometry" />
        </mxCell>
        <mxCell id="_MAfNQt4T6J0QSIAHM2M-5" value="" style="ellipse;whiteSpace=wrap;html=1;aspect=fixed;fillColor=#41A4C3;movable=1;resizable=1;rotatable=1;deletable=1;editable=1;locked=0;connectable=1;container=0;strokeColor=none;" vertex="1" parent="_MAfNQt4T6J0QSIAHM2M-1">
          <mxGeometry x="144.5" y="394.5" width="30" height="30" as="geometry" />
        </mxCell>
        <mxCell id="_MAfNQt4T6J0QSIAHM2M-6" value="" style="ellipse;whiteSpace=wrap;html=1;aspect=fixed;fillColor=#41A4C3;movable=1;resizable=1;rotatable=1;deletable=1;editable=1;locked=0;connectable=1;container=0;strokeColor=none;" vertex="1" parent="_MAfNQt4T6J0QSIAHM2M-1">
          <mxGeometry x="170.5" y="325.5" width="50" height="50" as="geometry" />
        </mxCell>
        <mxCell id="_MAfNQt4T6J0QSIAHM2M-7" value="" style="ellipse;whiteSpace=wrap;html=1;aspect=fixed;fillColor=#41A4C3;movable=1;resizable=1;rotatable=1;deletable=1;editable=1;locked=0;connectable=1;container=0;strokeColor=none;" vertex="1" parent="_MAfNQt4T6J0QSIAHM2M-1">
          <mxGeometry x="230.5" y="258.5" width="70" height="70" as="geometry" />
        </mxCell>
        <mxCell id="_MAfNQt4T6J0QSIAHM2M-8" value="" style="ellipse;whiteSpace=wrap;html=1;aspect=fixed;fillColor=#41A4C3;movable=1;resizable=1;rotatable=1;deletable=1;editable=1;connectable=1;rotation=0;locked=0;container=0;strokeColor=none;" vertex="1" parent="_MAfNQt4T6J0QSIAHM2M-1">
          <mxGeometry x="610.5" y="445.5" width="10" height="10" as="geometry" />
        </mxCell>
        <mxCell id="_MAfNQt4T6J0QSIAHM2M-9" value="" style="ellipse;whiteSpace=wrap;html=1;aspect=fixed;fillColor=#41A4C3;movable=1;resizable=1;rotatable=1;deletable=1;editable=1;connectable=1;rotation=0;locked=0;container=0;strokeColor=none;" vertex="1" parent="_MAfNQt4T6J0QSIAHM2M-1">
          <mxGeometry x="586.5" y="394.5" width="30" height="30" as="geometry" />
        </mxCell>
        <mxCell id="_MAfNQt4T6J0QSIAHM2M-10" value="" style="ellipse;whiteSpace=wrap;html=1;aspect=fixed;fillColor=#41A4C3;movable=1;resizable=1;rotatable=1;deletable=1;editable=1;connectable=1;rotation=0;locked=0;container=0;strokeColor=none;" vertex="1" parent="_MAfNQt4T6J0QSIAHM2M-1">
          <mxGeometry x="540.5" y="325.5" width="50" height="50" as="geometry" />
        </mxCell>
        <mxCell id="_MAfNQt4T6J0QSIAHM2M-11" value="" style="ellipse;whiteSpace=wrap;html=1;aspect=fixed;fillColor=#41A4C3;movable=1;resizable=1;rotatable=1;deletable=1;editable=1;connectable=1;rotation=0;locked=0;container=0;strokeColor=none;" vertex="1" parent="_MAfNQt4T6J0QSIAHM2M-1">
          <mxGeometry x="460.5" y="258.5" width="70" height="70" as="geometry" />
        </mxCell>
        <mxCell id="_MAfNQt4T6J0QSIAHM2M-12" value="" style="ellipse;whiteSpace=wrap;html=1;aspect=fixed;fillColor=#41A4C3;sketch=0;rotation=90;movable=1;resizable=1;rotatable=1;deletable=1;editable=1;locked=0;connectable=1;container=0;strokeColor=none;" vertex="1" parent="_MAfNQt4T6J0QSIAHM2M-1">
          <mxGeometry x="641.5" y="415.5" width="90" height="90" as="geometry" />
        </mxCell>
        <mxCell id="_MAfNQt4T6J0QSIAHM2M-13" value="" style="ellipse;whiteSpace=wrap;html=1;aspect=fixed;fillColor=#41A4C3;rotation=90;movable=1;resizable=1;rotatable=1;deletable=1;editable=1;locked=0;connectable=1;container=0;strokeColor=none;" vertex="1" parent="_MAfNQt4T6J0QSIAHM2M-1">
          <mxGeometry x="495.5" y="220.5" width="10" height="10" as="geometry" />
        </mxCell>
        <mxCell id="_MAfNQt4T6J0QSIAHM2M-14" value="" style="ellipse;whiteSpace=wrap;html=1;aspect=fixed;fillColor=#41A4C3;rotation=90;movable=1;resizable=1;rotatable=1;deletable=1;editable=1;locked=0;connectable=1;container=0;strokeColor=none;" vertex="1" parent="_MAfNQt4T6J0QSIAHM2M-1">
          <mxGeometry x="527.5" y="224.5" width="30" height="30" as="geometry" />
        </mxCell>
        <mxCell id="_MAfNQt4T6J0QSIAHM2M-15" value="" style="ellipse;whiteSpace=wrap;html=1;aspect=fixed;fillColor=#41A4C3;rotation=90;movable=1;resizable=1;rotatable=1;deletable=1;editable=1;locked=0;connectable=1;container=0;strokeColor=none;" vertex="1" parent="_MAfNQt4T6J0QSIAHM2M-1">
          <mxGeometry x="576.5" y="250.5" width="50" height="50" as="geometry" />
        </mxCell>
        <mxCell id="_MAfNQt4T6J0QSIAHM2M-16" value="" style="ellipse;whiteSpace=wrap;html=1;aspect=fixed;fillColor=#41A4C3;rotation=90;movable=1;resizable=1;rotatable=1;deletable=1;editable=1;locked=0;connectable=1;container=0;strokeColor=none;" vertex="1" parent="_MAfNQt4T6J0QSIAHM2M-1">
          <mxGeometry x="623.5" y="310.5" width="70" height="70" as="geometry" />
        </mxCell>
        <mxCell id="_MAfNQt4T6J0QSIAHM2M-17" value="" style="ellipse;whiteSpace=wrap;html=1;aspect=fixed;fillColor=#41A4C3;movable=1;resizable=1;rotatable=1;deletable=1;editable=1;connectable=1;rotation=90;locked=0;container=0;strokeColor=none;" vertex="1" parent="_MAfNQt4T6J0QSIAHM2M-1">
          <mxGeometry x="496.5" y="690.5" width="10" height="10" as="geometry" />
        </mxCell>
        <mxCell id="_MAfNQt4T6J0QSIAHM2M-18" value="" style="ellipse;whiteSpace=wrap;html=1;aspect=fixed;fillColor=#41A4C3;movable=1;resizable=1;rotatable=1;deletable=1;editable=1;connectable=1;rotation=90;locked=0;container=0;strokeColor=none;" vertex="1" parent="_MAfNQt4T6J0QSIAHM2M-1">
          <mxGeometry x="527.5" y="666.5" width="30" height="30" as="geometry" />
        </mxCell>
        <mxCell id="_MAfNQt4T6J0QSIAHM2M-19" value="" style="ellipse;whiteSpace=wrap;html=1;aspect=fixed;fillColor=#41A4C3;movable=1;resizable=1;rotatable=1;deletable=1;editable=1;connectable=1;rotation=90;locked=0;container=0;strokeColor=none;" vertex="1" parent="_MAfNQt4T6J0QSIAHM2M-1">
          <mxGeometry x="576.5" y="620.5" width="50" height="50" as="geometry" />
        </mxCell>
        <mxCell id="_MAfNQt4T6J0QSIAHM2M-20" value="" style="ellipse;whiteSpace=wrap;html=1;aspect=fixed;fillColor=#41A4C3;movable=1;resizable=1;rotatable=1;deletable=1;editable=1;connectable=1;rotation=90;locked=0;container=0;strokeColor=none;" vertex="1" parent="_MAfNQt4T6J0QSIAHM2M-1">
          <mxGeometry x="623.5" y="540.5" width="70" height="70" as="geometry" />
        </mxCell>
        <mxCell id="_MAfNQt4T6J0QSIAHM2M-21" value="" style="ellipse;whiteSpace=wrap;html=1;aspect=fixed;fillColor=#41A4C3;sketch=0;rotation=-180;container=0;strokeColor=none;" vertex="1" parent="_MAfNQt4T6J0QSIAHM2M-1">
          <mxGeometry x="445.5" y="720.5" width="90" height="90" as="geometry" />
        </mxCell>
        <mxCell id="_MAfNQt4T6J0QSIAHM2M-22" value="" style="ellipse;whiteSpace=wrap;html=1;aspect=fixed;fillColor=#41A4C3;rotation=-180;movable=1;resizable=1;rotatable=1;deletable=1;editable=1;locked=0;connectable=1;container=0;strokeColor=none;" vertex="1" parent="_MAfNQt4T6J0QSIAHM2M-1">
          <mxGeometry x="720.5" y="575.5" width="10" height="10" as="geometry" />
        </mxCell>
        <mxCell id="_MAfNQt4T6J0QSIAHM2M-23" value="" style="ellipse;whiteSpace=wrap;html=1;aspect=fixed;fillColor=#41A4C3;rotation=-180;movable=1;resizable=1;rotatable=1;deletable=1;editable=1;locked=0;connectable=1;container=0;strokeColor=none;" vertex="1" parent="_MAfNQt4T6J0QSIAHM2M-1">
          <mxGeometry x="696.5" y="606.5" width="30" height="30" as="geometry" />
        </mxCell>
        <mxCell id="_MAfNQt4T6J0QSIAHM2M-24" value="" style="ellipse;whiteSpace=wrap;html=1;aspect=fixed;fillColor=#41A4C3;rotation=-180;movable=1;resizable=1;rotatable=1;deletable=1;editable=1;locked=0;connectable=1;container=0;strokeColor=none;" vertex="1" parent="_MAfNQt4T6J0QSIAHM2M-1">
          <mxGeometry x="650.5" y="655.5" width="50" height="50" as="geometry" />
        </mxCell>
        <mxCell id="_MAfNQt4T6J0QSIAHM2M-25" value="" style="ellipse;whiteSpace=wrap;html=1;aspect=fixed;fillColor=#41A4C3;rotation=-180;container=0;strokeColor=none;" vertex="1" parent="_MAfNQt4T6J0QSIAHM2M-1">
          <mxGeometry x="570.5" y="702.5" width="70" height="70" as="geometry" />
        </mxCell>
        <mxCell id="_MAfNQt4T6J0QSIAHM2M-26" value="" style="ellipse;whiteSpace=wrap;html=1;aspect=fixed;fillColor=#41A4C3;movable=1;resizable=1;rotatable=1;deletable=1;editable=1;connectable=1;rotation=-180;locked=0;container=0;strokeColor=none;" vertex="1" parent="_MAfNQt4T6J0QSIAHM2M-1">
          <mxGeometry x="250.5" y="575.5" width="10" height="10" as="geometry" />
        </mxCell>
        <mxCell id="_MAfNQt4T6J0QSIAHM2M-27" value="" style="ellipse;whiteSpace=wrap;html=1;aspect=fixed;fillColor=#41A4C3;movable=1;resizable=1;rotatable=1;deletable=1;editable=1;connectable=1;rotation=-180;locked=0;container=0;strokeColor=none;" vertex="1" parent="_MAfNQt4T6J0QSIAHM2M-1">
          <mxGeometry x="254.5" y="606.5" width="30" height="30" as="geometry" />
        </mxCell>
        <mxCell id="_MAfNQt4T6J0QSIAHM2M-28" value="" style="ellipse;whiteSpace=wrap;html=1;aspect=fixed;fillColor=#41A4C3;movable=1;resizable=1;rotatable=1;deletable=1;editable=1;connectable=1;rotation=-180;locked=0;container=0;strokeColor=none;" vertex="1" parent="_MAfNQt4T6J0QSIAHM2M-1">
          <mxGeometry x="280.5" y="655.5" width="50" height="50" as="geometry" />
        </mxCell>
        <mxCell id="_MAfNQt4T6J0QSIAHM2M-29" value="" style="ellipse;whiteSpace=wrap;html=1;aspect=fixed;fillColor=#41A4C3;movable=1;resizable=1;rotatable=1;deletable=1;editable=1;connectable=1;rotation=-180;container=0;strokeColor=none;" vertex="1" parent="_MAfNQt4T6J0QSIAHM2M-1">
          <mxGeometry x="340.5" y="702.5" width="70" height="70" as="geometry" />
        </mxCell>
        <mxCell id="_MAfNQt4T6J0QSIAHM2M-30" value="" style="ellipse;whiteSpace=wrap;html=1;aspect=fixed;fillColor=#41A4C3;sketch=0;rotation=-90;movable=1;resizable=1;rotatable=1;deletable=1;editable=1;locked=0;connectable=1;container=0;strokeColor=none;" vertex="1" parent="_MAfNQt4T6J0QSIAHM2M-1">
          <mxGeometry x="140.5" y="525.5" width="90" height="90" as="geometry" />
        </mxCell>
        <mxCell id="_MAfNQt4T6J0QSIAHM2M-31" value="" style="ellipse;whiteSpace=wrap;html=1;aspect=fixed;fillColor=#41A4C3;rotation=-90;container=0;strokeColor=none;" vertex="1" parent="_MAfNQt4T6J0QSIAHM2M-1">
          <mxGeometry x="365.5" y="800.5" width="10" height="10" as="geometry" />
        </mxCell>
        <mxCell id="_MAfNQt4T6J0QSIAHM2M-32" value="" style="ellipse;whiteSpace=wrap;html=1;aspect=fixed;fillColor=#41A4C3;rotation=-90;container=0;strokeColor=none;" vertex="1" parent="_MAfNQt4T6J0QSIAHM2M-1">
          <mxGeometry x="314.5" y="776.5" width="30" height="30" as="geometry" />
        </mxCell>
        <mxCell id="_MAfNQt4T6J0QSIAHM2M-33" value="" style="ellipse;whiteSpace=wrap;html=1;aspect=fixed;fillColor=#41A4C3;rotation=-90;container=0;strokeColor=none;" vertex="1" parent="_MAfNQt4T6J0QSIAHM2M-1">
          <mxGeometry x="245.5" y="730.5" width="50" height="50" as="geometry" />
        </mxCell>
        <mxCell id="_MAfNQt4T6J0QSIAHM2M-34" value="" style="ellipse;whiteSpace=wrap;html=1;aspect=fixed;fillColor=#41A4C3;rotation=-90;movable=1;resizable=1;rotatable=1;deletable=1;editable=1;locked=0;connectable=1;container=0;strokeColor=none;" vertex="1" parent="_MAfNQt4T6J0QSIAHM2M-1">
          <mxGeometry x="178.5" y="650.5" width="70" height="70" as="geometry" />
        </mxCell>
        <mxCell id="_MAfNQt4T6J0QSIAHM2M-35" value="" style="ellipse;whiteSpace=wrap;html=1;aspect=fixed;fillColor=#41A4C3;movable=1;resizable=1;rotatable=1;deletable=1;editable=1;connectable=1;rotation=-90;locked=0;container=0;strokeColor=none;" vertex="1" parent="_MAfNQt4T6J0QSIAHM2M-1">
          <mxGeometry x="365.5" y="330.5" width="10" height="10" as="geometry" />
        </mxCell>
        <mxCell id="_MAfNQt4T6J0QSIAHM2M-36" value="" style="ellipse;whiteSpace=wrap;html=1;aspect=fixed;fillColor=#41A4C3;movable=1;resizable=1;rotatable=1;deletable=1;editable=1;connectable=1;rotation=-90;locked=0;container=0;strokeColor=none;" vertex="1" parent="_MAfNQt4T6J0QSIAHM2M-1">
          <mxGeometry x="314.5" y="334.5" width="30" height="30" as="geometry" />
        </mxCell>
        <mxCell id="_MAfNQt4T6J0QSIAHM2M-37" value="" style="ellipse;whiteSpace=wrap;html=1;aspect=fixed;fillColor=#41A4C3;movable=1;resizable=1;rotatable=1;deletable=1;editable=1;connectable=1;rotation=-90;locked=0;container=0;strokeColor=none;" vertex="1" parent="_MAfNQt4T6J0QSIAHM2M-1">
          <mxGeometry x="245.5" y="360.5" width="50" height="50" as="geometry" />
        </mxCell>
        <mxCell id="_MAfNQt4T6J0QSIAHM2M-38" value="" style="ellipse;whiteSpace=wrap;html=1;aspect=fixed;fillColor=#41A4C3;movable=1;resizable=1;rotatable=1;deletable=1;editable=1;connectable=1;rotation=-90;locked=0;container=0;strokeColor=none;" vertex="1" parent="_MAfNQt4T6J0QSIAHM2M-1">
          <mxGeometry x="178.5" y="420.5" width="70" height="70" as="geometry" />
        </mxCell>
        <mxCell id="_MAfNQt4T6J0QSIAHM2M-39" value="Davelight" style="text;html=1;strokeColor=none;fillColor=none;align=center;verticalAlign=middle;whiteSpace=wrap;rounded=0;fontColor=#58d5d3;fontFamily=COCOGOOSE;fontSize=160;" vertex="1" parent="_MAfNQt4T6J0QSIAHM2M-1">
          <mxGeometry x="-257" y="810" width="1400" height="280" as="geometry" />
        </mxCell>
      </root>
    </mxGraphModel>
  </diagram>
  <diagram name="blue on transparent" id="3jPzHeZW8A1xSQJQEJ4p">
    <mxGraphModel dx="1036" dy="614" grid="1" gridSize="10" guides="1" tooltips="1" connect="1" arrows="1" fold="1" page="1" pageScale="1" pageWidth="827" pageHeight="1169" math="0" shadow="0">
      <root>
        <mxCell id="S8SWW6FQlxjoJBMUvXyM-0" />
        <mxCell id="S8SWW6FQlxjoJBMUvXyM-1" parent="S8SWW6FQlxjoJBMUvXyM-0" />
        <mxCell id="S8SWW6FQlxjoJBMUvXyM-3" value="" style="ellipse;whiteSpace=wrap;html=1;aspect=fixed;fillColor=#41A4C3;sketch=0;rotation=0;movable=1;resizable=1;rotatable=1;deletable=1;editable=1;locked=0;connectable=1;container=0;strokeColor=none;" parent="S8SWW6FQlxjoJBMUvXyM-1" vertex="1">
          <mxGeometry x="335.5" y="220.5" width="90" height="90" as="geometry" />
        </mxCell>
        <mxCell id="S8SWW6FQlxjoJBMUvXyM-4" value="" style="ellipse;whiteSpace=wrap;html=1;aspect=fixed;fillColor=#41A4C3;movable=1;resizable=1;rotatable=1;deletable=1;editable=1;locked=0;connectable=1;container=0;strokeColor=none;" parent="S8SWW6FQlxjoJBMUvXyM-1" vertex="1">
          <mxGeometry x="140.5" y="445.5" width="10" height="10" as="geometry" />
        </mxCell>
        <mxCell id="S8SWW6FQlxjoJBMUvXyM-5" value="" style="ellipse;whiteSpace=wrap;html=1;aspect=fixed;fillColor=#41A4C3;movable=1;resizable=1;rotatable=1;deletable=1;editable=1;locked=0;connectable=1;container=0;strokeColor=none;" parent="S8SWW6FQlxjoJBMUvXyM-1" vertex="1">
          <mxGeometry x="144.5" y="394.5" width="30" height="30" as="geometry" />
        </mxCell>
        <mxCell id="S8SWW6FQlxjoJBMUvXyM-6" value="" style="ellipse;whiteSpace=wrap;html=1;aspect=fixed;fillColor=#41A4C3;movable=1;resizable=1;rotatable=1;deletable=1;editable=1;locked=0;connectable=1;container=0;strokeColor=none;" parent="S8SWW6FQlxjoJBMUvXyM-1" vertex="1">
          <mxGeometry x="170.5" y="325.5" width="50" height="50" as="geometry" />
        </mxCell>
        <mxCell id="S8SWW6FQlxjoJBMUvXyM-7" value="" style="ellipse;whiteSpace=wrap;html=1;aspect=fixed;fillColor=#41A4C3;movable=1;resizable=1;rotatable=1;deletable=1;editable=1;locked=0;connectable=1;container=0;strokeColor=none;" parent="S8SWW6FQlxjoJBMUvXyM-1" vertex="1">
          <mxGeometry x="230.5" y="258.5" width="70" height="70" as="geometry" />
        </mxCell>
        <mxCell id="S8SWW6FQlxjoJBMUvXyM-8" value="" style="ellipse;whiteSpace=wrap;html=1;aspect=fixed;fillColor=#41A4C3;movable=1;resizable=1;rotatable=1;deletable=1;editable=1;connectable=1;rotation=0;locked=0;container=0;strokeColor=none;" parent="S8SWW6FQlxjoJBMUvXyM-1" vertex="1">
          <mxGeometry x="610.5" y="445.5" width="10" height="10" as="geometry" />
        </mxCell>
        <mxCell id="S8SWW6FQlxjoJBMUvXyM-9" value="" style="ellipse;whiteSpace=wrap;html=1;aspect=fixed;fillColor=#41A4C3;movable=1;resizable=1;rotatable=1;deletable=1;editable=1;connectable=1;rotation=0;locked=0;container=0;strokeColor=none;" parent="S8SWW6FQlxjoJBMUvXyM-1" vertex="1">
          <mxGeometry x="586.5" y="394.5" width="30" height="30" as="geometry" />
        </mxCell>
        <mxCell id="S8SWW6FQlxjoJBMUvXyM-10" value="" style="ellipse;whiteSpace=wrap;html=1;aspect=fixed;fillColor=#41A4C3;movable=1;resizable=1;rotatable=1;deletable=1;editable=1;connectable=1;rotation=0;locked=0;container=0;strokeColor=none;" parent="S8SWW6FQlxjoJBMUvXyM-1" vertex="1">
          <mxGeometry x="540.5" y="325.5" width="50" height="50" as="geometry" />
        </mxCell>
        <mxCell id="S8SWW6FQlxjoJBMUvXyM-11" value="" style="ellipse;whiteSpace=wrap;html=1;aspect=fixed;fillColor=#41A4C3;movable=1;resizable=1;rotatable=1;deletable=1;editable=1;connectable=1;rotation=0;locked=0;container=0;strokeColor=none;" parent="S8SWW6FQlxjoJBMUvXyM-1" vertex="1">
          <mxGeometry x="460.5" y="258.5" width="70" height="70" as="geometry" />
        </mxCell>
        <mxCell id="S8SWW6FQlxjoJBMUvXyM-12" value="" style="ellipse;whiteSpace=wrap;html=1;aspect=fixed;fillColor=#41A4C3;sketch=0;rotation=90;movable=1;resizable=1;rotatable=1;deletable=1;editable=1;locked=0;connectable=1;container=0;strokeColor=none;" parent="S8SWW6FQlxjoJBMUvXyM-1" vertex="1">
          <mxGeometry x="641.5" y="415.5" width="90" height="90" as="geometry" />
        </mxCell>
        <mxCell id="S8SWW6FQlxjoJBMUvXyM-13" value="" style="ellipse;whiteSpace=wrap;html=1;aspect=fixed;fillColor=#41A4C3;rotation=90;movable=1;resizable=1;rotatable=1;deletable=1;editable=1;locked=0;connectable=1;container=0;strokeColor=none;" parent="S8SWW6FQlxjoJBMUvXyM-1" vertex="1">
          <mxGeometry x="495.5" y="220.5" width="10" height="10" as="geometry" />
        </mxCell>
        <mxCell id="S8SWW6FQlxjoJBMUvXyM-14" value="" style="ellipse;whiteSpace=wrap;html=1;aspect=fixed;fillColor=#41A4C3;rotation=90;movable=1;resizable=1;rotatable=1;deletable=1;editable=1;locked=0;connectable=1;container=0;strokeColor=none;" parent="S8SWW6FQlxjoJBMUvXyM-1" vertex="1">
          <mxGeometry x="527.5" y="224.5" width="30" height="30" as="geometry" />
        </mxCell>
        <mxCell id="S8SWW6FQlxjoJBMUvXyM-15" value="" style="ellipse;whiteSpace=wrap;html=1;aspect=fixed;fillColor=#41A4C3;rotation=90;movable=1;resizable=1;rotatable=1;deletable=1;editable=1;locked=0;connectable=1;container=0;strokeColor=none;" parent="S8SWW6FQlxjoJBMUvXyM-1" vertex="1">
          <mxGeometry x="576.5" y="250.5" width="50" height="50" as="geometry" />
        </mxCell>
        <mxCell id="S8SWW6FQlxjoJBMUvXyM-16" value="" style="ellipse;whiteSpace=wrap;html=1;aspect=fixed;fillColor=#41A4C3;rotation=90;movable=1;resizable=1;rotatable=1;deletable=1;editable=1;locked=0;connectable=1;container=0;strokeColor=none;" parent="S8SWW6FQlxjoJBMUvXyM-1" vertex="1">
          <mxGeometry x="623.5" y="310.5" width="70" height="70" as="geometry" />
        </mxCell>
        <mxCell id="S8SWW6FQlxjoJBMUvXyM-17" value="" style="ellipse;whiteSpace=wrap;html=1;aspect=fixed;fillColor=#41A4C3;movable=1;resizable=1;rotatable=1;deletable=1;editable=1;connectable=1;rotation=90;locked=0;container=0;strokeColor=none;" parent="S8SWW6FQlxjoJBMUvXyM-1" vertex="1">
          <mxGeometry x="496.5" y="690.5" width="10" height="10" as="geometry" />
        </mxCell>
        <mxCell id="S8SWW6FQlxjoJBMUvXyM-18" value="" style="ellipse;whiteSpace=wrap;html=1;aspect=fixed;fillColor=#41A4C3;movable=1;resizable=1;rotatable=1;deletable=1;editable=1;connectable=1;rotation=90;locked=0;container=0;strokeColor=none;" parent="S8SWW6FQlxjoJBMUvXyM-1" vertex="1">
          <mxGeometry x="527.5" y="666.5" width="30" height="30" as="geometry" />
        </mxCell>
        <mxCell id="S8SWW6FQlxjoJBMUvXyM-19" value="" style="ellipse;whiteSpace=wrap;html=1;aspect=fixed;fillColor=#41A4C3;movable=1;resizable=1;rotatable=1;deletable=1;editable=1;connectable=1;rotation=90;locked=0;container=0;strokeColor=none;" parent="S8SWW6FQlxjoJBMUvXyM-1" vertex="1">
          <mxGeometry x="576.5" y="620.5" width="50" height="50" as="geometry" />
        </mxCell>
        <mxCell id="S8SWW6FQlxjoJBMUvXyM-20" value="" style="ellipse;whiteSpace=wrap;html=1;aspect=fixed;fillColor=#41A4C3;movable=1;resizable=1;rotatable=1;deletable=1;editable=1;connectable=1;rotation=90;locked=0;container=0;strokeColor=none;" parent="S8SWW6FQlxjoJBMUvXyM-1" vertex="1">
          <mxGeometry x="623.5" y="540.5" width="70" height="70" as="geometry" />
        </mxCell>
        <mxCell id="S8SWW6FQlxjoJBMUvXyM-21" value="" style="ellipse;whiteSpace=wrap;html=1;aspect=fixed;fillColor=#41A4C3;sketch=0;rotation=-180;container=0;strokeColor=none;" parent="S8SWW6FQlxjoJBMUvXyM-1" vertex="1">
          <mxGeometry x="445.5" y="720.5" width="90" height="90" as="geometry" />
        </mxCell>
        <mxCell id="S8SWW6FQlxjoJBMUvXyM-22" value="" style="ellipse;whiteSpace=wrap;html=1;aspect=fixed;fillColor=#41A4C3;rotation=-180;movable=1;resizable=1;rotatable=1;deletable=1;editable=1;locked=0;connectable=1;container=0;strokeColor=none;" parent="S8SWW6FQlxjoJBMUvXyM-1" vertex="1">
          <mxGeometry x="720.5" y="575.5" width="10" height="10" as="geometry" />
        </mxCell>
        <mxCell id="S8SWW6FQlxjoJBMUvXyM-23" value="" style="ellipse;whiteSpace=wrap;html=1;aspect=fixed;fillColor=#41A4C3;rotation=-180;movable=1;resizable=1;rotatable=1;deletable=1;editable=1;locked=0;connectable=1;container=0;strokeColor=none;" parent="S8SWW6FQlxjoJBMUvXyM-1" vertex="1">
          <mxGeometry x="696.5" y="606.5" width="30" height="30" as="geometry" />
        </mxCell>
        <mxCell id="S8SWW6FQlxjoJBMUvXyM-24" value="" style="ellipse;whiteSpace=wrap;html=1;aspect=fixed;fillColor=#41A4C3;rotation=-180;movable=1;resizable=1;rotatable=1;deletable=1;editable=1;locked=0;connectable=1;container=0;strokeColor=none;" parent="S8SWW6FQlxjoJBMUvXyM-1" vertex="1">
          <mxGeometry x="650.5" y="655.5" width="50" height="50" as="geometry" />
        </mxCell>
        <mxCell id="S8SWW6FQlxjoJBMUvXyM-25" value="" style="ellipse;whiteSpace=wrap;html=1;aspect=fixed;fillColor=#41A4C3;rotation=-180;container=0;strokeColor=none;" parent="S8SWW6FQlxjoJBMUvXyM-1" vertex="1">
          <mxGeometry x="570.5" y="702.5" width="70" height="70" as="geometry" />
        </mxCell>
        <mxCell id="S8SWW6FQlxjoJBMUvXyM-26" value="" style="ellipse;whiteSpace=wrap;html=1;aspect=fixed;fillColor=#41A4C3;movable=1;resizable=1;rotatable=1;deletable=1;editable=1;connectable=1;rotation=-180;locked=0;container=0;strokeColor=none;" parent="S8SWW6FQlxjoJBMUvXyM-1" vertex="1">
          <mxGeometry x="250.5" y="575.5" width="10" height="10" as="geometry" />
        </mxCell>
        <mxCell id="S8SWW6FQlxjoJBMUvXyM-27" value="" style="ellipse;whiteSpace=wrap;html=1;aspect=fixed;fillColor=#41A4C3;movable=1;resizable=1;rotatable=1;deletable=1;editable=1;connectable=1;rotation=-180;locked=0;container=0;strokeColor=none;" parent="S8SWW6FQlxjoJBMUvXyM-1" vertex="1">
          <mxGeometry x="254.5" y="606.5" width="30" height="30" as="geometry" />
        </mxCell>
        <mxCell id="S8SWW6FQlxjoJBMUvXyM-28" value="" style="ellipse;whiteSpace=wrap;html=1;aspect=fixed;fillColor=#41A4C3;movable=1;resizable=1;rotatable=1;deletable=1;editable=1;connectable=1;rotation=-180;locked=0;container=0;strokeColor=none;" parent="S8SWW6FQlxjoJBMUvXyM-1" vertex="1">
          <mxGeometry x="280.5" y="655.5" width="50" height="50" as="geometry" />
        </mxCell>
        <mxCell id="S8SWW6FQlxjoJBMUvXyM-29" value="" style="ellipse;whiteSpace=wrap;html=1;aspect=fixed;fillColor=#41A4C3;movable=1;resizable=1;rotatable=1;deletable=1;editable=1;connectable=1;rotation=-180;container=0;strokeColor=none;" parent="S8SWW6FQlxjoJBMUvXyM-1" vertex="1">
          <mxGeometry x="340.5" y="702.5" width="70" height="70" as="geometry" />
        </mxCell>
        <mxCell id="S8SWW6FQlxjoJBMUvXyM-30" value="" style="ellipse;whiteSpace=wrap;html=1;aspect=fixed;fillColor=#41A4C3;sketch=0;rotation=-90;movable=1;resizable=1;rotatable=1;deletable=1;editable=1;locked=0;connectable=1;container=0;strokeColor=none;" parent="S8SWW6FQlxjoJBMUvXyM-1" vertex="1">
          <mxGeometry x="140.5" y="525.5" width="90" height="90" as="geometry" />
        </mxCell>
        <mxCell id="S8SWW6FQlxjoJBMUvXyM-31" value="" style="ellipse;whiteSpace=wrap;html=1;aspect=fixed;fillColor=#41A4C3;rotation=-90;container=0;strokeColor=none;" parent="S8SWW6FQlxjoJBMUvXyM-1" vertex="1">
          <mxGeometry x="365.5" y="800.5" width="10" height="10" as="geometry" />
        </mxCell>
        <mxCell id="S8SWW6FQlxjoJBMUvXyM-32" value="" style="ellipse;whiteSpace=wrap;html=1;aspect=fixed;fillColor=#41A4C3;rotation=-90;container=0;strokeColor=none;" parent="S8SWW6FQlxjoJBMUvXyM-1" vertex="1">
          <mxGeometry x="314.5" y="776.5" width="30" height="30" as="geometry" />
        </mxCell>
        <mxCell id="S8SWW6FQlxjoJBMUvXyM-33" value="" style="ellipse;whiteSpace=wrap;html=1;aspect=fixed;fillColor=#41A4C3;rotation=-90;container=0;strokeColor=none;" parent="S8SWW6FQlxjoJBMUvXyM-1" vertex="1">
          <mxGeometry x="245.5" y="730.5" width="50" height="50" as="geometry" />
        </mxCell>
        <mxCell id="S8SWW6FQlxjoJBMUvXyM-34" value="" style="ellipse;whiteSpace=wrap;html=1;aspect=fixed;fillColor=#41A4C3;rotation=-90;movable=1;resizable=1;rotatable=1;deletable=1;editable=1;locked=0;connectable=1;container=0;strokeColor=none;" parent="S8SWW6FQlxjoJBMUvXyM-1" vertex="1">
          <mxGeometry x="178.5" y="650.5" width="70" height="70" as="geometry" />
        </mxCell>
        <mxCell id="S8SWW6FQlxjoJBMUvXyM-35" value="" style="ellipse;whiteSpace=wrap;html=1;aspect=fixed;fillColor=#41A4C3;movable=1;resizable=1;rotatable=1;deletable=1;editable=1;connectable=1;rotation=-90;locked=0;container=0;strokeColor=none;" parent="S8SWW6FQlxjoJBMUvXyM-1" vertex="1">
          <mxGeometry x="365.5" y="330.5" width="10" height="10" as="geometry" />
        </mxCell>
        <mxCell id="S8SWW6FQlxjoJBMUvXyM-36" value="" style="ellipse;whiteSpace=wrap;html=1;aspect=fixed;fillColor=#41A4C3;movable=1;resizable=1;rotatable=1;deletable=1;editable=1;connectable=1;rotation=-90;locked=0;container=0;strokeColor=none;" parent="S8SWW6FQlxjoJBMUvXyM-1" vertex="1">
          <mxGeometry x="314.5" y="334.5" width="30" height="30" as="geometry" />
        </mxCell>
        <mxCell id="S8SWW6FQlxjoJBMUvXyM-37" value="" style="ellipse;whiteSpace=wrap;html=1;aspect=fixed;fillColor=#41A4C3;movable=1;resizable=1;rotatable=1;deletable=1;editable=1;connectable=1;rotation=-90;locked=0;container=0;strokeColor=none;" parent="S8SWW6FQlxjoJBMUvXyM-1" vertex="1">
          <mxGeometry x="245.5" y="360.5" width="50" height="50" as="geometry" />
        </mxCell>
        <mxCell id="S8SWW6FQlxjoJBMUvXyM-38" value="" style="ellipse;whiteSpace=wrap;html=1;aspect=fixed;fillColor=#41A4C3;movable=1;resizable=1;rotatable=1;deletable=1;editable=1;connectable=1;rotation=-90;locked=0;container=0;strokeColor=none;" parent="S8SWW6FQlxjoJBMUvXyM-1" vertex="1">
          <mxGeometry x="178.5" y="420.5" width="70" height="70" as="geometry" />
        </mxCell>
      </root>
    </mxGraphModel>
  </diagram>
  <diagram name="text blue on black" id="4SZ7suQQai1dgtmfkOT5">
    <mxGraphModel dx="1036" dy="614" grid="1" gridSize="10" guides="1" tooltips="1" connect="1" arrows="1" fold="1" page="1" pageScale="1" pageWidth="827" pageHeight="1169" math="0" shadow="0">
      <root>
        <mxCell id="3BFtCI0pGsJRITc8P1_K-0" />
        <mxCell id="3BFtCI0pGsJRITc8P1_K-1" parent="3BFtCI0pGsJRITc8P1_K-0" />
        <mxCell id="3BFtCI0pGsJRITc8P1_K-39" value="Davelight" style="text;html=1;strokeColor=none;fillColor=#000000;align=center;verticalAlign=middle;whiteSpace=wrap;rounded=0;fontColor=#58d5d3;fontFamily=COCOGOOSE;fontSize=160;" parent="3BFtCI0pGsJRITc8P1_K-1" vertex="1">
          <mxGeometry x="70" y="690" width="900" height="240" as="geometry" />
        </mxCell>
      </root>
    </mxGraphModel>
  </diagram>
  <diagram name="text blue on transparent" id="srbRf0ShO7fbeznIIU6I">
    <mxGraphModel dx="1036" dy="614" grid="1" gridSize="10" guides="1" tooltips="1" connect="1" arrows="1" fold="1" page="1" pageScale="1" pageWidth="827" pageHeight="1169" math="0" shadow="0">
      <root>
        <mxCell id="XfV8y_1Zcwqe9XZNCnnC-0" />
        <mxCell id="XfV8y_1Zcwqe9XZNCnnC-1" parent="XfV8y_1Zcwqe9XZNCnnC-0" />
        <mxCell id="XfV8y_1Zcwqe9XZNCnnC-2" value="Davelight" style="text;html=1;strokeColor=none;fillColor=none;align=center;verticalAlign=middle;whiteSpace=wrap;rounded=0;fontColor=#58d5d3;fontFamily=COCOGOOSE;fontSize=160;" vertex="1" parent="XfV8y_1Zcwqe9XZNCnnC-1">
          <mxGeometry x="70" y="690" width="900" height="240" as="geometry" />
        </mxCell>
      </root>
    </mxGraphModel>
  </diagram>
</mxfile>
